<?xml version="1.0" encoding="utf-8" standalone="no"?>
<!DOCTYPE svg PUBLIC "-//W3C//DTD SVG 1.1//EN"
  "http://www.w3.org/Graphics/SVG/1.1/DTD/svg11.dtd">
<!-- Created with matplotlib (https://matplotlib.org/) -->
<svg height="513.99638pt" version="1.1" viewBox="0 0 675.708125 513.99638" width="675.708125pt" xmlns="http://www.w3.org/2000/svg" xmlns:xlink="http://www.w3.org/1999/xlink">
 <defs>
  <style type="text/css">
*{stroke-linecap:butt;stroke-linejoin:round;}
  </style>
 </defs>
 <g id="figure_1">
  <g id="patch_1">
   <path d="M 0 513.99638 
L 675.708125 513.99638 
L 675.708125 0 
L 0 0 
z
" style="fill:#ffffff;"/>
  </g>
  <g id="axes_1">
   <g id="patch_2">
    <path d="M 54.708125 236.196886 
L 668.508125 236.196886 
L 668.508125 47.03325 
L 54.708125 47.03325 
z
" style="fill:#e5e5e5;"/>
   </g>
   <g id="matplotlib.axis_1">
    <g id="xtick_1">
     <g id="line2d_1">
      <path clip-path="url(#p32b49be4a4)" d="M 54.708125 236.196886 
L 54.708125 47.03325 
" style="fill:none;stroke:#ffffff;stroke-linecap:square;stroke-width:0.8;"/>
     </g>
     <g id="line2d_2">
      <defs>
       <path d="M 0 0 
L 0 3.5 
" id="m0228b2ceb2" style="stroke:#555555;stroke-width:0.8;"/>
      </defs>
      <g>
       <use style="fill:#555555;stroke:#555555;stroke-width:0.8;" x="54.708125" xlink:href="#m0228b2ceb2" y="236.196886"/>
      </g>
     </g>
    </g>
    <g id="xtick_2">
     <g id="line2d_3">
      <path clip-path="url(#p32b49be4a4)" d="M 87.115356 236.196886 
L 87.115356 47.03325 
" style="fill:none;stroke:#ffffff;stroke-linecap:square;stroke-width:0.8;"/>
     </g>
     <g id="line2d_4">
      <g>
       <use style="fill:#555555;stroke:#555555;stroke-width:0.8;" x="87.115356" xlink:href="#m0228b2ceb2" y="236.196886"/>
      </g>
     </g>
    </g>
    <g id="xtick_3">
     <g id="line2d_5">
      <path clip-path="url(#p32b49be4a4)" d="M 151.401439 236.196886 
L 151.401439 47.03325 
" style="fill:none;stroke:#ffffff;stroke-linecap:square;stroke-width:0.8;"/>
     </g>
     <g id="line2d_6">
      <g>
       <use style="fill:#555555;stroke:#555555;stroke-width:0.8;" x="151.401439" xlink:href="#m0228b2ceb2" y="236.196886"/>
      </g>
     </g>
    </g>
    <g id="xtick_4">
     <g id="line2d_7">
      <path clip-path="url(#p32b49be4a4)" d="M 215.863649 236.196886 
L 215.863649 47.03325 
" style="fill:none;stroke:#ffffff;stroke-linecap:square;stroke-width:0.8;"/>
     </g>
     <g id="line2d_8">
      <g>
       <use style="fill:#555555;stroke:#555555;stroke-width:0.8;" x="215.863649" xlink:href="#m0228b2ceb2" y="236.196886"/>
      </g>
     </g>
    </g>
    <g id="xtick_5">
     <g id="line2d_9">
      <path clip-path="url(#p32b49be4a4)" d="M 280.149732 236.196886 
L 280.149732 47.03325 
" style="fill:none;stroke:#ffffff;stroke-linecap:square;stroke-width:0.8;"/>
     </g>
     <g id="line2d_10">
      <g>
       <use style="fill:#555555;stroke:#555555;stroke-width:0.8;" x="280.149732" xlink:href="#m0228b2ceb2" y="236.196886"/>
      </g>
     </g>
    </g>
    <g id="xtick_6">
     <g id="line2d_11">
      <path clip-path="url(#p32b49be4a4)" d="M 344.435815 236.196886 
L 344.435815 47.03325 
" style="fill:none;stroke:#ffffff;stroke-linecap:square;stroke-width:0.8;"/>
     </g>
     <g id="line2d_12">
      <g>
       <use style="fill:#555555;stroke:#555555;stroke-width:0.8;" x="344.435815" xlink:href="#m0228b2ceb2" y="236.196886"/>
      </g>
     </g>
    </g>
    <g id="xtick_7">
     <g id="line2d_13">
      <path clip-path="url(#p32b49be4a4)" d="M 408.721898 236.196886 
L 408.721898 47.03325 
" style="fill:none;stroke:#ffffff;stroke-linecap:square;stroke-width:0.8;"/>
     </g>
     <g id="line2d_14">
      <g>
       <use style="fill:#555555;stroke:#555555;stroke-width:0.8;" x="408.721898" xlink:href="#m0228b2ceb2" y="236.196886"/>
      </g>
     </g>
    </g>
    <g id="xtick_8">
     <g id="line2d_15">
      <path clip-path="url(#p32b49be4a4)" d="M 473.184108 236.196886 
L 473.184108 47.03325 
" style="fill:none;stroke:#ffffff;stroke-linecap:square;stroke-width:0.8;"/>
     </g>
     <g id="line2d_16">
      <g>
       <use style="fill:#555555;stroke:#555555;stroke-width:0.8;" x="473.184108" xlink:href="#m0228b2ceb2" y="236.196886"/>
      </g>
     </g>
    </g>
    <g id="xtick_9">
     <g id="line2d_17">
      <path clip-path="url(#p32b49be4a4)" d="M 537.470191 236.196886 
L 537.470191 47.03325 
" style="fill:none;stroke:#ffffff;stroke-linecap:square;stroke-width:0.8;"/>
     </g>
     <g id="line2d_18">
      <g>
       <use style="fill:#555555;stroke:#555555;stroke-width:0.8;" x="537.470191" xlink:href="#m0228b2ceb2" y="236.196886"/>
      </g>
     </g>
    </g>
    <g id="xtick_10">
     <g id="line2d_19">
      <path clip-path="url(#p32b49be4a4)" d="M 601.756274 236.196886 
L 601.756274 47.03325 
" style="fill:none;stroke:#ffffff;stroke-linecap:square;stroke-width:0.8;"/>
     </g>
     <g id="line2d_20">
      <g>
       <use style="fill:#555555;stroke:#555555;stroke-width:0.8;" x="601.756274" xlink:href="#m0228b2ceb2" y="236.196886"/>
      </g>
     </g>
    </g>
    <g id="xtick_11">
     <g id="line2d_21">
      <path clip-path="url(#p32b49be4a4)" d="M 666.042357 236.196886 
L 666.042357 47.03325 
" style="fill:none;stroke:#ffffff;stroke-linecap:square;stroke-width:0.8;"/>
     </g>
     <g id="line2d_22">
      <g>
       <use style="fill:#555555;stroke:#555555;stroke-width:0.8;" x="666.042357" xlink:href="#m0228b2ceb2" y="236.196886"/>
      </g>
     </g>
    </g>
    <g id="xtick_12">
     <g id="line2d_23">
      <path clip-path="url(#p32b49be4a4)" d="M 668.508125 236.196886 
L 668.508125 47.03325 
" style="fill:none;stroke:#ffffff;stroke-linecap:square;stroke-width:0.8;"/>
     </g>
     <g id="line2d_24">
      <g>
       <use style="fill:#555555;stroke:#555555;stroke-width:0.8;" x="668.508125" xlink:href="#m0228b2ceb2" y="236.196886"/>
      </g>
     </g>
    </g>
    <g id="xtick_13">
     <g id="line2d_25">
      <defs>
       <path d="M 0 0 
L 0 2 
" id="m85efb206ca" style="stroke:#555555;stroke-width:0.6;"/>
      </defs>
      <g>
       <use style="fill:#555555;stroke:#555555;stroke-width:0.6;" x="70.91174" xlink:href="#m85efb206ca" y="236.196886"/>
      </g>
     </g>
    </g>
    <g id="xtick_14">
     <g id="line2d_26">
      <g>
       <use style="fill:#555555;stroke:#555555;stroke-width:0.6;" x="102.966719" xlink:href="#m85efb206ca" y="236.196886"/>
      </g>
     </g>
    </g>
    <g id="xtick_15">
     <g id="line2d_27">
      <g>
       <use style="fill:#555555;stroke:#555555;stroke-width:0.6;" x="118.994208" xlink:href="#m85efb206ca" y="236.196886"/>
      </g>
     </g>
    </g>
    <g id="xtick_16">
     <g id="line2d_28">
      <g>
       <use style="fill:#555555;stroke:#555555;stroke-width:0.6;" x="135.197824" xlink:href="#m85efb206ca" y="236.196886"/>
      </g>
     </g>
    </g>
    <g id="xtick_17">
     <g id="line2d_29">
      <g>
       <use style="fill:#555555;stroke:#555555;stroke-width:0.6;" x="167.428928" xlink:href="#m85efb206ca" y="236.196886"/>
      </g>
     </g>
    </g>
    <g id="xtick_18">
     <g id="line2d_30">
      <g>
       <use style="fill:#555555;stroke:#555555;stroke-width:0.6;" x="183.456418" xlink:href="#m85efb206ca" y="236.196886"/>
      </g>
     </g>
    </g>
    <g id="xtick_19">
     <g id="line2d_31">
      <g>
       <use style="fill:#555555;stroke:#555555;stroke-width:0.6;" x="199.660033" xlink:href="#m85efb206ca" y="236.196886"/>
      </g>
     </g>
    </g>
    <g id="xtick_20">
     <g id="line2d_32">
      <g>
       <use style="fill:#555555;stroke:#555555;stroke-width:0.6;" x="231.715012" xlink:href="#m85efb206ca" y="236.196886"/>
      </g>
     </g>
    </g>
    <g id="xtick_21">
     <g id="line2d_33">
      <g>
       <use style="fill:#555555;stroke:#555555;stroke-width:0.6;" x="247.742501" xlink:href="#m85efb206ca" y="236.196886"/>
      </g>
     </g>
    </g>
    <g id="xtick_22">
     <g id="line2d_34">
      <g>
       <use style="fill:#555555;stroke:#555555;stroke-width:0.6;" x="263.946116" xlink:href="#m85efb206ca" y="236.196886"/>
      </g>
     </g>
    </g>
    <g id="xtick_23">
     <g id="line2d_35">
      <g>
       <use style="fill:#555555;stroke:#555555;stroke-width:0.6;" x="296.001095" xlink:href="#m85efb206ca" y="236.196886"/>
      </g>
     </g>
    </g>
    <g id="xtick_24">
     <g id="line2d_36">
      <g>
       <use style="fill:#555555;stroke:#555555;stroke-width:0.6;" x="312.028584" xlink:href="#m85efb206ca" y="236.196886"/>
      </g>
     </g>
    </g>
    <g id="xtick_25">
     <g id="line2d_37">
      <g>
       <use style="fill:#555555;stroke:#555555;stroke-width:0.6;" x="328.2322" xlink:href="#m85efb206ca" y="236.196886"/>
      </g>
     </g>
    </g>
    <g id="xtick_26">
     <g id="line2d_38">
      <g>
       <use style="fill:#555555;stroke:#555555;stroke-width:0.6;" x="360.287178" xlink:href="#m85efb206ca" y="236.196886"/>
      </g>
     </g>
    </g>
    <g id="xtick_27">
     <g id="line2d_39">
      <g>
       <use style="fill:#555555;stroke:#555555;stroke-width:0.6;" x="376.314667" xlink:href="#m85efb206ca" y="236.196886"/>
      </g>
     </g>
    </g>
    <g id="xtick_28">
     <g id="line2d_40">
      <g>
       <use style="fill:#555555;stroke:#555555;stroke-width:0.6;" x="392.518283" xlink:href="#m85efb206ca" y="236.196886"/>
      </g>
     </g>
    </g>
    <g id="xtick_29">
     <g id="line2d_41">
      <g>
       <use style="fill:#555555;stroke:#555555;stroke-width:0.6;" x="424.749388" xlink:href="#m85efb206ca" y="236.196886"/>
      </g>
     </g>
    </g>
    <g id="xtick_30">
     <g id="line2d_42">
      <g>
       <use style="fill:#555555;stroke:#555555;stroke-width:0.6;" x="440.776877" xlink:href="#m85efb206ca" y="236.196886"/>
      </g>
     </g>
    </g>
    <g id="xtick_31">
     <g id="line2d_43">
      <g>
       <use style="fill:#555555;stroke:#555555;stroke-width:0.6;" x="456.980492" xlink:href="#m85efb206ca" y="236.196886"/>
      </g>
     </g>
    </g>
    <g id="xtick_32">
     <g id="line2d_44">
      <g>
       <use style="fill:#555555;stroke:#555555;stroke-width:0.6;" x="489.035471" xlink:href="#m85efb206ca" y="236.196886"/>
      </g>
     </g>
    </g>
    <g id="xtick_33">
     <g id="line2d_45">
      <g>
       <use style="fill:#555555;stroke:#555555;stroke-width:0.6;" x="505.06296" xlink:href="#m85efb206ca" y="236.196886"/>
      </g>
     </g>
    </g>
    <g id="xtick_34">
     <g id="line2d_46">
      <g>
       <use style="fill:#555555;stroke:#555555;stroke-width:0.6;" x="521.266576" xlink:href="#m85efb206ca" y="236.196886"/>
      </g>
     </g>
    </g>
    <g id="xtick_35">
     <g id="line2d_47">
      <g>
       <use style="fill:#555555;stroke:#555555;stroke-width:0.6;" x="553.321554" xlink:href="#m85efb206ca" y="236.196886"/>
      </g>
     </g>
    </g>
    <g id="xtick_36">
     <g id="line2d_48">
      <g>
       <use style="fill:#555555;stroke:#555555;stroke-width:0.6;" x="569.349043" xlink:href="#m85efb206ca" y="236.196886"/>
      </g>
     </g>
    </g>
    <g id="xtick_37">
     <g id="line2d_49">
      <g>
       <use style="fill:#555555;stroke:#555555;stroke-width:0.6;" x="585.552659" xlink:href="#m85efb206ca" y="236.196886"/>
      </g>
     </g>
    </g>
    <g id="xtick_38">
     <g id="line2d_50">
      <g>
       <use style="fill:#555555;stroke:#555555;stroke-width:0.6;" x="617.607637" xlink:href="#m85efb206ca" y="236.196886"/>
      </g>
     </g>
    </g>
    <g id="xtick_39">
     <g id="line2d_51">
      <g>
       <use style="fill:#555555;stroke:#555555;stroke-width:0.6;" x="633.635126" xlink:href="#m85efb206ca" y="236.196886"/>
      </g>
     </g>
    </g>
    <g id="xtick_40">
     <g id="line2d_52">
      <g>
       <use style="fill:#555555;stroke:#555555;stroke-width:0.6;" x="649.838742" xlink:href="#m85efb206ca" y="236.196886"/>
      </g>
     </g>
    </g>
    <g id="text_1">
     <!-- Days -->
     <defs>
      <path d="M 19.671875 64.796875 
L 19.671875 8.109375 
L 31.59375 8.109375 
Q 46.6875 8.109375 53.6875 14.9375 
Q 60.6875 21.78125 60.6875 36.53125 
Q 60.6875 51.171875 53.6875 57.984375 
Q 46.6875 64.796875 31.59375 64.796875 
z
M 9.8125 72.90625 
L 30.078125 72.90625 
Q 51.265625 72.90625 61.171875 64.09375 
Q 71.09375 55.28125 71.09375 36.53125 
Q 71.09375 17.671875 61.125 8.828125 
Q 51.171875 0 30.078125 0 
L 9.8125 0 
z
" id="DejaVuSans-68"/>
      <path d="M 34.28125 27.484375 
Q 23.390625 27.484375 19.1875 25 
Q 14.984375 22.515625 14.984375 16.5 
Q 14.984375 11.71875 18.140625 8.90625 
Q 21.296875 6.109375 26.703125 6.109375 
Q 34.1875 6.109375 38.703125 11.40625 
Q 43.21875 16.703125 43.21875 25.484375 
L 43.21875 27.484375 
z
M 52.203125 31.203125 
L 52.203125 0 
L 43.21875 0 
L 43.21875 8.296875 
Q 40.140625 3.328125 35.546875 0.953125 
Q 30.953125 -1.421875 24.3125 -1.421875 
Q 15.921875 -1.421875 10.953125 3.296875 
Q 6 8.015625 6 15.921875 
Q 6 25.140625 12.171875 29.828125 
Q 18.359375 34.515625 30.609375 34.515625 
L 43.21875 34.515625 
L 43.21875 35.40625 
Q 43.21875 41.609375 39.140625 45 
Q 35.0625 48.390625 27.6875 48.390625 
Q 23 48.390625 18.546875 47.265625 
Q 14.109375 46.140625 10.015625 43.890625 
L 10.015625 52.203125 
Q 14.9375 54.109375 19.578125 55.046875 
Q 24.21875 56 28.609375 56 
Q 40.484375 56 46.34375 49.84375 
Q 52.203125 43.703125 52.203125 31.203125 
z
" id="DejaVuSans-97"/>
      <path d="M 32.171875 -5.078125 
Q 28.375 -14.84375 24.75 -17.8125 
Q 21.140625 -20.796875 15.09375 -20.796875 
L 7.90625 -20.796875 
L 7.90625 -13.28125 
L 13.1875 -13.28125 
Q 16.890625 -13.28125 18.9375 -11.515625 
Q 21 -9.765625 23.484375 -3.21875 
L 25.09375 0.875 
L 2.984375 54.6875 
L 12.5 54.6875 
L 29.59375 11.921875 
L 46.6875 54.6875 
L 56.203125 54.6875 
z
" id="DejaVuSans-121"/>
      <path d="M 44.28125 53.078125 
L 44.28125 44.578125 
Q 40.484375 46.53125 36.375 47.5 
Q 32.28125 48.484375 27.875 48.484375 
Q 21.1875 48.484375 17.84375 46.4375 
Q 14.5 44.390625 14.5 40.28125 
Q 14.5 37.15625 16.890625 35.375 
Q 19.28125 33.59375 26.515625 31.984375 
L 29.59375 31.296875 
Q 39.15625 29.25 43.1875 25.515625 
Q 47.21875 21.78125 47.21875 15.09375 
Q 47.21875 7.46875 41.1875 3.015625 
Q 35.15625 -1.421875 24.609375 -1.421875 
Q 20.21875 -1.421875 15.453125 -0.5625 
Q 10.6875 0.296875 5.421875 2 
L 5.421875 11.28125 
Q 10.40625 8.6875 15.234375 7.390625 
Q 20.0625 6.109375 24.8125 6.109375 
Q 31.15625 6.109375 34.5625 8.28125 
Q 37.984375 10.453125 37.984375 14.40625 
Q 37.984375 18.0625 35.515625 20.015625 
Q 33.0625 21.96875 24.703125 23.78125 
L 21.578125 24.515625 
Q 13.234375 26.265625 9.515625 29.90625 
Q 5.8125 33.546875 5.8125 39.890625 
Q 5.8125 47.609375 11.28125 51.796875 
Q 16.75 56 26.8125 56 
Q 31.78125 56 36.171875 55.265625 
Q 40.578125 54.546875 44.28125 53.078125 
z
" id="DejaVuSans-115"/>
     </defs>
     <g style="fill:#555555;" transform="translate(339.1475 259.274074)scale(0.18 -0.18)">
      <use xlink:href="#DejaVuSans-68"/>
      <use x="77.001953" xlink:href="#DejaVuSans-97"/>
      <use x="138.28125" xlink:href="#DejaVuSans-121"/>
      <use x="197.460938" xlink:href="#DejaVuSans-115"/>
     </g>
    </g>
   </g>
   <g id="matplotlib.axis_2">
    <g id="ytick_1">
     <g id="line2d_53">
      <path clip-path="url(#p32b49be4a4)" d="M 54.708125 227.598539 
L 668.508125 227.598539 
" style="fill:none;stroke:#ffffff;stroke-linecap:square;stroke-width:0.8;"/>
     </g>
     <g id="line2d_54">
      <defs>
       <path d="M 0 0 
L -3.5 0 
" id="m23d8d1fbf5" style="stroke:#555555;stroke-width:0.8;"/>
      </defs>
      <g>
       <use style="fill:#555555;stroke:#555555;stroke-width:0.8;" x="54.708125" xlink:href="#m23d8d1fbf5" y="227.598539"/>
      </g>
     </g>
     <g id="text_2">
      <!-- 0 -->
      <defs>
       <path d="M 31.78125 66.40625 
Q 24.171875 66.40625 20.328125 58.90625 
Q 16.5 51.421875 16.5 36.375 
Q 16.5 21.390625 20.328125 13.890625 
Q 24.171875 6.390625 31.78125 6.390625 
Q 39.453125 6.390625 43.28125 13.890625 
Q 47.125 21.390625 47.125 36.375 
Q 47.125 51.421875 43.28125 58.90625 
Q 39.453125 66.40625 31.78125 66.40625 
z
M 31.78125 74.21875 
Q 44.046875 74.21875 50.515625 64.515625 
Q 56.984375 54.828125 56.984375 36.375 
Q 56.984375 17.96875 50.515625 8.265625 
Q 44.046875 -1.421875 31.78125 -1.421875 
Q 19.53125 -1.421875 13.0625 8.265625 
Q 6.59375 17.96875 6.59375 36.375 
Q 6.59375 54.828125 13.0625 64.515625 
Q 19.53125 74.21875 31.78125 74.21875 
z
" id="DejaVuSans-48"/>
      </defs>
      <g style="fill:#555555;" transform="translate(41.345625 231.397758)scale(0.1 -0.1)">
       <use xlink:href="#DejaVuSans-48"/>
      </g>
     </g>
    </g>
    <g id="ytick_2">
     <g id="line2d_55">
      <path clip-path="url(#p32b49be4a4)" d="M 54.708125 196.501443 
L 668.508125 196.501443 
" style="fill:none;stroke:#ffffff;stroke-linecap:square;stroke-width:0.8;"/>
     </g>
     <g id="line2d_56">
      <g>
       <use style="fill:#555555;stroke:#555555;stroke-width:0.8;" x="54.708125" xlink:href="#m23d8d1fbf5" y="196.501443"/>
      </g>
     </g>
     <g id="text_3">
      <!-- 20 -->
      <defs>
       <path d="M 19.1875 8.296875 
L 53.609375 8.296875 
L 53.609375 0 
L 7.328125 0 
L 7.328125 8.296875 
Q 12.9375 14.109375 22.625 23.890625 
Q 32.328125 33.6875 34.8125 36.53125 
Q 39.546875 41.84375 41.421875 45.53125 
Q 43.3125 49.21875 43.3125 52.78125 
Q 43.3125 58.59375 39.234375 62.25 
Q 35.15625 65.921875 28.609375 65.921875 
Q 23.96875 65.921875 18.8125 64.3125 
Q 13.671875 62.703125 7.8125 59.421875 
L 7.8125 69.390625 
Q 13.765625 71.78125 18.9375 73 
Q 24.125 74.21875 28.421875 74.21875 
Q 39.75 74.21875 46.484375 68.546875 
Q 53.21875 62.890625 53.21875 53.421875 
Q 53.21875 48.921875 51.53125 44.890625 
Q 49.859375 40.875 45.40625 35.40625 
Q 44.1875 33.984375 37.640625 27.21875 
Q 31.109375 20.453125 19.1875 8.296875 
z
" id="DejaVuSans-50"/>
      </defs>
      <g style="fill:#555555;" transform="translate(34.983125 200.300662)scale(0.1 -0.1)">
       <use xlink:href="#DejaVuSans-50"/>
       <use x="63.623047" xlink:href="#DejaVuSans-48"/>
      </g>
     </g>
    </g>
    <g id="ytick_3">
     <g id="line2d_57">
      <path clip-path="url(#p32b49be4a4)" d="M 54.708125 165.404347 
L 668.508125 165.404347 
" style="fill:none;stroke:#ffffff;stroke-linecap:square;stroke-width:0.8;"/>
     </g>
     <g id="line2d_58">
      <g>
       <use style="fill:#555555;stroke:#555555;stroke-width:0.8;" x="54.708125" xlink:href="#m23d8d1fbf5" y="165.404347"/>
      </g>
     </g>
     <g id="text_4">
      <!-- 40 -->
      <defs>
       <path d="M 37.796875 64.3125 
L 12.890625 25.390625 
L 37.796875 25.390625 
z
M 35.203125 72.90625 
L 47.609375 72.90625 
L 47.609375 25.390625 
L 58.015625 25.390625 
L 58.015625 17.1875 
L 47.609375 17.1875 
L 47.609375 0 
L 37.796875 0 
L 37.796875 17.1875 
L 4.890625 17.1875 
L 4.890625 26.703125 
z
" id="DejaVuSans-52"/>
      </defs>
      <g style="fill:#555555;" transform="translate(34.983125 169.203566)scale(0.1 -0.1)">
       <use xlink:href="#DejaVuSans-52"/>
       <use x="63.623047" xlink:href="#DejaVuSans-48"/>
      </g>
     </g>
    </g>
    <g id="ytick_4">
     <g id="line2d_59">
      <path clip-path="url(#p32b49be4a4)" d="M 54.708125 134.307251 
L 668.508125 134.307251 
" style="fill:none;stroke:#ffffff;stroke-linecap:square;stroke-width:0.8;"/>
     </g>
     <g id="line2d_60">
      <g>
       <use style="fill:#555555;stroke:#555555;stroke-width:0.8;" x="54.708125" xlink:href="#m23d8d1fbf5" y="134.307251"/>
      </g>
     </g>
     <g id="text_5">
      <!-- 60 -->
      <defs>
       <path d="M 33.015625 40.375 
Q 26.375 40.375 22.484375 35.828125 
Q 18.609375 31.296875 18.609375 23.390625 
Q 18.609375 15.53125 22.484375 10.953125 
Q 26.375 6.390625 33.015625 6.390625 
Q 39.65625 6.390625 43.53125 10.953125 
Q 47.40625 15.53125 47.40625 23.390625 
Q 47.40625 31.296875 43.53125 35.828125 
Q 39.65625 40.375 33.015625 40.375 
z
M 52.59375 71.296875 
L 52.59375 62.3125 
Q 48.875 64.0625 45.09375 64.984375 
Q 41.3125 65.921875 37.59375 65.921875 
Q 27.828125 65.921875 22.671875 59.328125 
Q 17.53125 52.734375 16.796875 39.40625 
Q 19.671875 43.65625 24.015625 45.921875 
Q 28.375 48.1875 33.59375 48.1875 
Q 44.578125 48.1875 50.953125 41.515625 
Q 57.328125 34.859375 57.328125 23.390625 
Q 57.328125 12.15625 50.6875 5.359375 
Q 44.046875 -1.421875 33.015625 -1.421875 
Q 20.359375 -1.421875 13.671875 8.265625 
Q 6.984375 17.96875 6.984375 36.375 
Q 6.984375 53.65625 15.1875 63.9375 
Q 23.390625 74.21875 37.203125 74.21875 
Q 40.921875 74.21875 44.703125 73.484375 
Q 48.484375 72.75 52.59375 71.296875 
z
" id="DejaVuSans-54"/>
      </defs>
      <g style="fill:#555555;" transform="translate(34.983125 138.106469)scale(0.1 -0.1)">
       <use xlink:href="#DejaVuSans-54"/>
       <use x="63.623047" xlink:href="#DejaVuSans-48"/>
      </g>
     </g>
    </g>
    <g id="ytick_5">
     <g id="line2d_61">
      <path clip-path="url(#p32b49be4a4)" d="M 54.708125 103.210154 
L 668.508125 103.210154 
" style="fill:none;stroke:#ffffff;stroke-linecap:square;stroke-width:0.8;"/>
     </g>
     <g id="line2d_62">
      <g>
       <use style="fill:#555555;stroke:#555555;stroke-width:0.8;" x="54.708125" xlink:href="#m23d8d1fbf5" y="103.210154"/>
      </g>
     </g>
     <g id="text_6">
      <!-- 80 -->
      <defs>
       <path d="M 31.78125 34.625 
Q 24.75 34.625 20.71875 30.859375 
Q 16.703125 27.09375 16.703125 20.515625 
Q 16.703125 13.921875 20.71875 10.15625 
Q 24.75 6.390625 31.78125 6.390625 
Q 38.8125 6.390625 42.859375 10.171875 
Q 46.921875 13.96875 46.921875 20.515625 
Q 46.921875 27.09375 42.890625 30.859375 
Q 38.875 34.625 31.78125 34.625 
z
M 21.921875 38.8125 
Q 15.578125 40.375 12.03125 44.71875 
Q 8.5 49.078125 8.5 55.328125 
Q 8.5 64.0625 14.71875 69.140625 
Q 20.953125 74.21875 31.78125 74.21875 
Q 42.671875 74.21875 48.875 69.140625 
Q 55.078125 64.0625 55.078125 55.328125 
Q 55.078125 49.078125 51.53125 44.71875 
Q 48 40.375 41.703125 38.8125 
Q 48.828125 37.15625 52.796875 32.3125 
Q 56.78125 27.484375 56.78125 20.515625 
Q 56.78125 9.90625 50.3125 4.234375 
Q 43.84375 -1.421875 31.78125 -1.421875 
Q 19.734375 -1.421875 13.25 4.234375 
Q 6.78125 9.90625 6.78125 20.515625 
Q 6.78125 27.484375 10.78125 32.3125 
Q 14.796875 37.15625 21.921875 38.8125 
z
M 18.3125 54.390625 
Q 18.3125 48.734375 21.84375 45.5625 
Q 25.390625 42.390625 31.78125 42.390625 
Q 38.140625 42.390625 41.71875 45.5625 
Q 45.3125 48.734375 45.3125 54.390625 
Q 45.3125 60.0625 41.71875 63.234375 
Q 38.140625 66.40625 31.78125 66.40625 
Q 25.390625 66.40625 21.84375 63.234375 
Q 18.3125 60.0625 18.3125 54.390625 
z
" id="DejaVuSans-56"/>
      </defs>
      <g style="fill:#555555;" transform="translate(34.983125 107.009373)scale(0.1 -0.1)">
       <use xlink:href="#DejaVuSans-56"/>
       <use x="63.623047" xlink:href="#DejaVuSans-48"/>
      </g>
     </g>
    </g>
    <g id="ytick_6">
     <g id="line2d_63">
      <path clip-path="url(#p32b49be4a4)" d="M 54.708125 72.113058 
L 668.508125 72.113058 
" style="fill:none;stroke:#ffffff;stroke-linecap:square;stroke-width:0.8;"/>
     </g>
     <g id="line2d_64">
      <g>
       <use style="fill:#555555;stroke:#555555;stroke-width:0.8;" x="54.708125" xlink:href="#m23d8d1fbf5" y="72.113058"/>
      </g>
     </g>
     <g id="text_7">
      <!-- 100 -->
      <defs>
       <path d="M 12.40625 8.296875 
L 28.515625 8.296875 
L 28.515625 63.921875 
L 10.984375 60.40625 
L 10.984375 69.390625 
L 28.421875 72.90625 
L 38.28125 72.90625 
L 38.28125 8.296875 
L 54.390625 8.296875 
L 54.390625 0 
L 12.40625 0 
z
" id="DejaVuSans-49"/>
      </defs>
      <g style="fill:#555555;" transform="translate(28.620625 75.912277)scale(0.1 -0.1)">
       <use xlink:href="#DejaVuSans-49"/>
       <use x="63.623047" xlink:href="#DejaVuSans-48"/>
       <use x="127.246094" xlink:href="#DejaVuSans-48"/>
      </g>
     </g>
    </g>
    <g id="text_8">
     <!-- Snow (inches) -->
     <defs>
      <path d="M 53.515625 70.515625 
L 53.515625 60.890625 
Q 47.90625 63.578125 42.921875 64.890625 
Q 37.9375 66.21875 33.296875 66.21875 
Q 25.25 66.21875 20.875 63.09375 
Q 16.5 59.96875 16.5 54.203125 
Q 16.5 49.359375 19.40625 46.890625 
Q 22.3125 44.4375 30.421875 42.921875 
L 36.375 41.703125 
Q 47.40625 39.59375 52.65625 34.296875 
Q 57.90625 29 57.90625 20.125 
Q 57.90625 9.515625 50.796875 4.046875 
Q 43.703125 -1.421875 29.984375 -1.421875 
Q 24.8125 -1.421875 18.96875 -0.25 
Q 13.140625 0.921875 6.890625 3.21875 
L 6.890625 13.375 
Q 12.890625 10.015625 18.65625 8.296875 
Q 24.421875 6.59375 29.984375 6.59375 
Q 38.421875 6.59375 43.015625 9.90625 
Q 47.609375 13.234375 47.609375 19.390625 
Q 47.609375 24.75 44.3125 27.78125 
Q 41.015625 30.8125 33.5 32.328125 
L 27.484375 33.5 
Q 16.453125 35.6875 11.515625 40.375 
Q 6.59375 45.0625 6.59375 53.421875 
Q 6.59375 63.09375 13.40625 68.65625 
Q 20.21875 74.21875 32.171875 74.21875 
Q 37.3125 74.21875 42.625 73.28125 
Q 47.953125 72.359375 53.515625 70.515625 
z
" id="DejaVuSans-83"/>
      <path d="M 54.890625 33.015625 
L 54.890625 0 
L 45.90625 0 
L 45.90625 32.71875 
Q 45.90625 40.484375 42.875 44.328125 
Q 39.84375 48.1875 33.796875 48.1875 
Q 26.515625 48.1875 22.3125 43.546875 
Q 18.109375 38.921875 18.109375 30.90625 
L 18.109375 0 
L 9.078125 0 
L 9.078125 54.6875 
L 18.109375 54.6875 
L 18.109375 46.1875 
Q 21.34375 51.125 25.703125 53.5625 
Q 30.078125 56 35.796875 56 
Q 45.21875 56 50.046875 50.171875 
Q 54.890625 44.34375 54.890625 33.015625 
z
" id="DejaVuSans-110"/>
      <path d="M 30.609375 48.390625 
Q 23.390625 48.390625 19.1875 42.75 
Q 14.984375 37.109375 14.984375 27.296875 
Q 14.984375 17.484375 19.15625 11.84375 
Q 23.34375 6.203125 30.609375 6.203125 
Q 37.796875 6.203125 41.984375 11.859375 
Q 46.1875 17.53125 46.1875 27.296875 
Q 46.1875 37.015625 41.984375 42.703125 
Q 37.796875 48.390625 30.609375 48.390625 
z
M 30.609375 56 
Q 42.328125 56 49.015625 48.375 
Q 55.71875 40.765625 55.71875 27.296875 
Q 55.71875 13.875 49.015625 6.21875 
Q 42.328125 -1.421875 30.609375 -1.421875 
Q 18.84375 -1.421875 12.171875 6.21875 
Q 5.515625 13.875 5.515625 27.296875 
Q 5.515625 40.765625 12.171875 48.375 
Q 18.84375 56 30.609375 56 
z
" id="DejaVuSans-111"/>
      <path d="M 4.203125 54.6875 
L 13.1875 54.6875 
L 24.421875 12.015625 
L 35.59375 54.6875 
L 46.1875 54.6875 
L 57.421875 12.015625 
L 68.609375 54.6875 
L 77.59375 54.6875 
L 63.28125 0 
L 52.6875 0 
L 40.921875 44.828125 
L 29.109375 0 
L 18.5 0 
z
" id="DejaVuSans-119"/>
      <path id="DejaVuSans-32"/>
      <path d="M 31 75.875 
Q 24.46875 64.65625 21.28125 53.65625 
Q 18.109375 42.671875 18.109375 31.390625 
Q 18.109375 20.125 21.3125 9.0625 
Q 24.515625 -2 31 -13.1875 
L 23.1875 -13.1875 
Q 15.875 -1.703125 12.234375 9.375 
Q 8.59375 20.453125 8.59375 31.390625 
Q 8.59375 42.28125 12.203125 53.3125 
Q 15.828125 64.359375 23.1875 75.875 
z
" id="DejaVuSans-40"/>
      <path d="M 9.421875 54.6875 
L 18.40625 54.6875 
L 18.40625 0 
L 9.421875 0 
z
M 9.421875 75.984375 
L 18.40625 75.984375 
L 18.40625 64.59375 
L 9.421875 64.59375 
z
" id="DejaVuSans-105"/>
      <path d="M 48.78125 52.59375 
L 48.78125 44.1875 
Q 44.96875 46.296875 41.140625 47.34375 
Q 37.3125 48.390625 33.40625 48.390625 
Q 24.65625 48.390625 19.8125 42.84375 
Q 14.984375 37.3125 14.984375 27.296875 
Q 14.984375 17.28125 19.8125 11.734375 
Q 24.65625 6.203125 33.40625 6.203125 
Q 37.3125 6.203125 41.140625 7.25 
Q 44.96875 8.296875 48.78125 10.40625 
L 48.78125 2.09375 
Q 45.015625 0.34375 40.984375 -0.53125 
Q 36.96875 -1.421875 32.421875 -1.421875 
Q 20.0625 -1.421875 12.78125 6.34375 
Q 5.515625 14.109375 5.515625 27.296875 
Q 5.515625 40.671875 12.859375 48.328125 
Q 20.21875 56 33.015625 56 
Q 37.15625 56 41.109375 55.140625 
Q 45.0625 54.296875 48.78125 52.59375 
z
" id="DejaVuSans-99"/>
      <path d="M 54.890625 33.015625 
L 54.890625 0 
L 45.90625 0 
L 45.90625 32.71875 
Q 45.90625 40.484375 42.875 44.328125 
Q 39.84375 48.1875 33.796875 48.1875 
Q 26.515625 48.1875 22.3125 43.546875 
Q 18.109375 38.921875 18.109375 30.90625 
L 18.109375 0 
L 9.078125 0 
L 9.078125 75.984375 
L 18.109375 75.984375 
L 18.109375 46.1875 
Q 21.34375 51.125 25.703125 53.5625 
Q 30.078125 56 35.796875 56 
Q 45.21875 56 50.046875 50.171875 
Q 54.890625 44.34375 54.890625 33.015625 
z
" id="DejaVuSans-104"/>
      <path d="M 56.203125 29.59375 
L 56.203125 25.203125 
L 14.890625 25.203125 
Q 15.484375 15.921875 20.484375 11.0625 
Q 25.484375 6.203125 34.421875 6.203125 
Q 39.59375 6.203125 44.453125 7.46875 
Q 49.3125 8.734375 54.109375 11.28125 
L 54.109375 2.78125 
Q 49.265625 0.734375 44.1875 -0.34375 
Q 39.109375 -1.421875 33.890625 -1.421875 
Q 20.796875 -1.421875 13.15625 6.1875 
Q 5.515625 13.8125 5.515625 26.8125 
Q 5.515625 40.234375 12.765625 48.109375 
Q 20.015625 56 32.328125 56 
Q 43.359375 56 49.78125 48.890625 
Q 56.203125 41.796875 56.203125 29.59375 
z
M 47.21875 32.234375 
Q 47.125 39.59375 43.09375 43.984375 
Q 39.0625 48.390625 32.421875 48.390625 
Q 24.90625 48.390625 20.390625 44.140625 
Q 15.875 39.890625 15.1875 32.171875 
z
" id="DejaVuSans-101"/>
      <path d="M 8.015625 75.875 
L 15.828125 75.875 
Q 23.140625 64.359375 26.78125 53.3125 
Q 30.421875 42.28125 30.421875 31.390625 
Q 30.421875 20.453125 26.78125 9.375 
Q 23.140625 -1.703125 15.828125 -13.1875 
L 8.015625 -13.1875 
Q 14.5 -2 17.703125 9.0625 
Q 20.90625 20.125 20.90625 31.390625 
Q 20.90625 42.671875 17.703125 53.65625 
Q 14.5 64.65625 8.015625 75.875 
z
" id="DejaVuSans-41"/>
     </defs>
     <g style="fill:#555555;" transform="translate(20.877188 204.865381)rotate(-90)scale(0.18 -0.18)">
      <use xlink:href="#DejaVuSans-83"/>
      <use x="63.476562" xlink:href="#DejaVuSans-110"/>
      <use x="126.855469" xlink:href="#DejaVuSans-111"/>
      <use x="188.037109" xlink:href="#DejaVuSans-119"/>
      <use x="269.824219" xlink:href="#DejaVuSans-32"/>
      <use x="301.611328" xlink:href="#DejaVuSans-40"/>
      <use x="340.625" xlink:href="#DejaVuSans-105"/>
      <use x="368.408203" xlink:href="#DejaVuSans-110"/>
      <use x="431.787109" xlink:href="#DejaVuSans-99"/>
      <use x="486.767578" xlink:href="#DejaVuSans-104"/>
      <use x="550.146484" xlink:href="#DejaVuSans-101"/>
      <use x="611.669922" xlink:href="#DejaVuSans-115"/>
      <use x="663.769531" xlink:href="#DejaVuSans-41"/>
     </g>
    </g>
   </g>
   <g id="line2d_65">
    <path clip-path="url(#p32b49be4a4)" d="M 54.708125 227.598539 
L 84.825715 227.598539 
L 85.001841 223.555917 
L 85.177967 223.400431 
L 85.354093 222.778489 
L 85.53022 221.690091 
L 85.882472 221.690091 
L 86.234725 193.391733 
L 87.995987 193.391733 
L 88.172114 192.925277 
L 88.524366 187.483285 
L 88.876619 187.483285 
L 89.052745 164.782405 
L 89.933376 164.782405 
L 90.109502 161.828181 
L 90.461755 161.828181 
L 90.637881 150.477741 
L 91.16626 150.477741 
L 91.518512 147.523516 
L 91.694639 133.840794 
L 92.399144 133.840794 
L 92.751396 117.670304 
L 93.632027 117.670304 
L 93.808154 116.892877 
L 95.921669 116.892877 
L 96.097795 114.871565 
L 96.626174 114.871565 
L 96.8023 113.316711 
L 96.978426 113.316711 
L 97.154553 105.07598 
L 97.506805 105.07598 
L 97.682931 104.765009 
L 100.853204 104.765009 
L 101.02933 104.298553 
L 101.381583 104.298553 
L 101.557709 103.987582 
L 102.614466 103.987582 
L 103.142845 101.6553 
L 118.818082 101.6553 
L 118.818082 101.6553 
" style="fill:none;stroke:#e24a33;stroke-linecap:square;stroke-width:1.5;"/>
   </g>
   <g id="line2d_66">
    <path clip-path="url(#p32b49be4a4)" d="M 118.994208 227.598539 
L 139.953233 227.598539 
L 140.481611 226.043684 
L 152.810449 226.043684 
L 152.986576 225.266257 
L 153.867207 225.266257 
L 154.043333 223.400431 
L 154.219459 223.08946 
L 154.395586 223.08946 
L 154.571712 222.623004 
L 154.747838 220.290722 
L 154.923964 215.781643 
L 155.628469 215.781643 
L 155.804596 215.470672 
L 161.616762 215.470672 
L 161.969015 213.44936 
L 162.145141 213.44936 
L 162.321267 213.293875 
L 163.378025 213.293875 
L 163.554151 213.13839 
L 183.280291 213.13839 
L 183.280291 213.13839 
" style="fill:none;stroke:#348abd;stroke-linecap:square;stroke-width:1.5;"/>
   </g>
   <g id="line2d_67">
    <path clip-path="url(#p32b49be4a4)" d="M 183.456418 227.598539 
L 206.000578 227.598539 
L 206.176705 227.443054 
L 206.352831 226.976597 
L 210.227609 226.976597 
L 210.403735 226.19917 
L 214.454639 226.19917 
L 214.630765 225.888199 
L 214.806891 225.888199 
L 214.983017 225.732713 
L 215.159144 225.732713 
L 215.33527 222.312033 
L 215.511396 221.690091 
L 218.329416 221.690091 
L 218.505543 216.714556 
L 219.210048 216.714556 
L 219.386174 216.092614 
L 219.914553 216.092614 
L 220.090679 215.937128 
L 220.266805 215.626157 
L 220.442931 215.626157 
L 220.619058 214.071302 
L 220.795184 213.915817 
L 221.499689 213.915817 
L 221.675815 212.982904 
L 221.851941 212.982904 
L 222.204194 210.961593 
L 222.38032 210.961593 
L 222.908699 172.245708 
L 223.78933 172.245708 
L 223.965456 172.090222 
L 224.141583 164.160463 
L 225.19834 164.160463 
L 225.374466 161.361724 
L 225.550593 161.050753 
L 227.135729 161.050753 
L 227.311855 157.008131 
L 227.487982 140.682155 
L 229.073118 140.682155 
L 229.249244 139.282786 
L 229.42537 129.487201 
L 229.601497 129.487201 
L 229.777623 129.020744 
L 247.566375 129.020744 
L 247.566375 129.020744 
" style="fill:none;stroke:#988ed5;stroke-linecap:square;stroke-width:1.5;"/>
   </g>
   <g id="line2d_68">
    <path clip-path="url(#p32b49be4a4)" d="M 247.742501 227.598539 
L 275.570449 227.598539 
L 275.746576 227.443054 
L 275.922702 227.443054 
L 276.274954 226.354655 
L 276.803333 226.354655 
L 276.979459 221.37912 
L 277.155586 219.824265 
L 277.331712 219.824265 
L 277.507838 209.873194 
L 278.916848 209.873194 
L 279.092974 209.406738 
L 280.149732 209.406738 
L 280.501984 185.92843 
L 281.558742 185.92843 
L 281.734868 185.617459 
L 282.967752 185.617459 
L 283.143878 182.50775 
L 283.320004 182.196779 
L 283.496131 182.196779 
L 283.672257 176.132845 
L 283.848383 175.666389 
L 284.200636 175.666389 
L 284.376762 175.510903 
L 285.785772 175.510903 
L 285.961898 173.023135 
L 286.138025 173.023135 
L 286.314151 156.386189 
L 286.84253 156.386189 
L 287.194782 155.764247 
L 287.547035 155.764247 
L 287.723161 150.788712 
L 287.899287 150.633226 
L 288.075413 145.035749 
L 288.25154 144.413807 
L 288.427666 144.413807 
L 288.603792 140.52667 
L 290.012802 140.52667 
L 290.188928 139.904728 
L 291.06956 139.904728 
L 291.245686 139.749242 
L 291.950191 139.749242 
L 292.126317 138.81633 
L 292.47857 138.81633 
L 292.654696 136.484047 
L 298.466862 136.484047 
L 298.642989 136.017591 
L 311.852458 136.017591 
L 311.852458 136.017591 
" style="fill:none;stroke:#777777;stroke-linecap:square;stroke-width:1.5;"/>
   </g>
   <g id="line2d_69">
    <path clip-path="url(#p32b49be4a4)" d="M 312.028584 227.598539 
L 338.09527 227.598539 
L 338.271396 227.132083 
L 338.447522 223.555917 
L 340.032659 223.555917 
L 340.208785 223.08946 
L 344.611941 223.08946 
L 344.788068 220.912664 
L 345.14032 220.912664 
L 345.316446 220.601693 
L 345.668699 220.601693 
L 345.844825 220.290722 
L 346.725456 220.290722 
L 346.901583 219.046838 
L 348.310593 219.046838 
L 348.486719 211.117078 
L 348.662845 211.117078 
L 348.838971 207.540912 
L 349.015098 173.178621 
L 349.191224 172.86765 
L 349.36735 172.86765 
L 349.543477 171.779252 
L 349.719603 169.75794 
L 349.895729 169.75794 
L 350.071855 144.569292 
L 350.424108 144.569292 
L 350.600234 143.325408 
L 350.77636 143.325408 
L 350.952487 141.926039 
L 351.128613 130.420114 
L 351.304739 107.408262 
L 351.833118 103.987582 
L 352.009244 103.987582 
L 352.18537 99.012046 
L 352.361497 78.798934 
L 352.537623 78.798934 
L 352.713749 77.866021 
L 352.889875 77.866021 
L 353.066002 74.134369 
L 353.242128 74.134369 
L 353.418254 72.424029 
L 353.59438 72.268544 
L 353.946633 72.268544 
L 354.122759 69.314319 
L 354.298885 69.003348 
L 354.651138 69.003348 
L 354.827264 66.049124 
L 355.00339 65.738153 
L 355.179517 63.250386 
L 357.116905 63.250386 
L 357.293032 58.741307 
L 357.997537 58.741307 
L 358.173663 57.963879 
L 358.349789 56.098054 
L 359.406547 56.098054 
L 359.582673 55.631597 
L 376.138541 55.631597 
L 376.138541 55.631597 
" style="fill:none;stroke:#fbc15e;stroke-linecap:square;stroke-width:1.5;"/>
   </g>
   <g id="line2d_70">
    <path clip-path="url(#p32b49be4a4)" d="M 376.314667 227.598539 
L 408.017393 227.598539 
L 408.19352 226.19917 
L 410.483161 226.19917 
L 410.659287 225.732713 
L 411.363792 225.732713 
L 411.892171 220.912664 
L 412.42055 220.912664 
L 412.596676 211.428049 
L 414.710191 211.428049 
L 414.886317 200.855036 
L 415.23857 200.855036 
L 415.414696 190.903966 
L 415.766949 190.592995 
L 415.943075 190.282024 
L 416.471454 190.282024 
L 416.64758 188.260713 
L 417.175959 188.260713 
L 417.352085 188.105227 
L 419.641726 188.105227 
L 419.817852 187.3278 
L 422.635872 187.3278 
L 422.811999 181.730322 
L 424.925514 181.730322 
L 425.10164 178.776098 
L 425.277766 171.468281 
L 440.600751 171.468281 
L 440.600751 171.468281 
" style="fill:none;stroke:#8eba42;stroke-linecap:square;stroke-width:1.5;"/>
   </g>
   <g id="line2d_71">
    <path clip-path="url(#p32b49be4a4)" d="M 440.776877 227.598539 
L 468.252573 227.598539 
L 468.428699 227.132083 
L 469.30933 227.132083 
L 469.485456 226.821112 
L 469.661583 225.732713 
L 470.366088 225.732713 
L 470.542214 219.046838 
L 472.479603 219.046838 
L 472.655729 218.424896 
L 473.888613 218.424896 
L 474.064739 216.714556 
L 474.240865 205.830572 
L 474.416992 205.519601 
L 478.291769 205.519601 
L 478.644022 203.342804 
L 479.524653 203.342804 
L 479.700779 201.476978 
L 479.876905 201.476978 
L 480.053032 184.529061 
L 480.229158 184.529061 
L 480.581411 177.221243 
L 480.757537 173.800563 
L 480.933663 173.800563 
L 481.109789 173.645077 
L 481.285916 171.15731 
L 483.751683 171.15731 
L 483.927809 171.001824 
L 484.984567 171.001824 
L 485.160693 166.959202 
L 485.336819 166.648231 
L 485.689072 166.648231 
L 485.865198 156.386189 
L 488.683218 156.386189 
L 488.859345 155.453276 
L 489.035471 153.58745 
L 504.886834 153.58745 
L 504.886834 153.58745 
" style="fill:none;stroke:#ffb5b8;stroke-linecap:square;stroke-width:1.5;"/>
   </g>
   <g id="line2d_72">
    <path clip-path="url(#p32b49be4a4)" d="M 505.06296 227.598539 
L 533.243161 227.598539 
L 533.419287 218.580381 
L 533.595413 218.113925 
L 535.532802 218.113925 
L 535.708928 217.958439 
L 536.061181 217.958439 
L 536.237307 213.44936 
L 536.941812 213.44936 
L 537.117938 213.293875 
L 537.822444 213.293875 
L 537.99857 192.458821 
L 539.759832 192.458821 
L 539.935959 191.992364 
L 540.112085 191.992364 
L 540.288211 189.349111 
L 542.2256 189.349111 
L 542.401726 189.193625 
L 542.577852 185.617459 
L 542.930105 185.617459 
L 543.106231 185.461974 
L 543.810736 185.461974 
L 543.986862 182.196779 
L 545.571999 182.196779 
L 545.748125 179.242555 
L 545.924251 173.489592 
L 546.45263 173.489592 
L 546.628756 172.712164 
L 548.390019 172.712164 
L 548.566145 171.779252 
L 548.742271 171.779252 
L 549.27065 161.828181 
L 549.799029 161.828181 
L 549.975155 139.282786 
L 550.327408 138.660844 
L 551.384165 138.660844 
L 551.560291 136.639533 
L 551.912544 136.639533 
L 552.08867 136.484047 
L 553.321554 136.484047 
L 553.49768 135.395649 
L 554.026059 135.395649 
L 554.202185 134.462736 
L 569.172917 134.462736 
L 569.172917 134.462736 
" style="fill:none;stroke:#e24a33;stroke-linecap:square;stroke-width:1.5;"/>
   </g>
   <g id="line2d_73">
    <path clip-path="url(#p32b49be4a4)" d="M 569.349043 227.598539 
L 593.302214 227.598539 
L 593.47834 227.443054 
L 599.11438 227.443054 
L 599.290507 227.287568 
L 604.750421 227.287568 
L 604.926547 226.510141 
L 605.102673 224.799801 
L 606.687809 224.799801 
L 606.863936 224.022373 
L 608.977451 224.022373 
L 609.153577 220.290722 
L 609.329703 220.135236 
L 610.034208 220.135236 
L 610.210334 214.537759 
L 610.386461 214.537759 
L 610.914839 211.272564 
L 611.619345 211.272564 
L 611.795471 209.406738 
L 611.971597 205.986057 
L 612.147723 205.986057 
L 612.32385 202.876348 
L 612.499976 201.787949 
L 612.676102 186.394887 
L 613.556733 186.394887 
L 613.73286 184.995517 
L 633.459 184.995517 
L 633.459 184.995517 
" style="fill:none;stroke:#348abd;stroke-linecap:square;stroke-width:1.5;"/>
   </g>
   <g id="line2d_74">
    <path clip-path="url(#p32b49be4a4)" d="M 633.635126 227.598539 
L 660.406317 227.598539 
L 660.75857 224.022373 
L 660.934696 218.424896 
L 661.286949 218.424896 
L 661.463075 218.113925 
L 662.16758 218.113925 
L 662.343706 213.760331 
L 667.099115 213.760331 
L 667.275241 213.604846 
L 668.508125 213.604846 
L 668.508125 213.604846 
" style="fill:none;stroke:#988ed5;stroke-linecap:square;stroke-width:1.5;"/>
   </g>
   <g id="patch_3">
    <path d="M 54.708125 236.196886 
L 54.708125 47.03325 
" style="fill:none;stroke:#ffffff;stroke-linecap:square;stroke-linejoin:miter;"/>
   </g>
   <g id="patch_4">
    <path d="M 668.508125 236.196886 
L 668.508125 47.03325 
" style="fill:none;stroke:#ffffff;stroke-linecap:square;stroke-linejoin:miter;"/>
   </g>
   <g id="patch_5">
    <path d="M 54.708125 236.196886 
L 668.508125 236.196886 
" style="fill:none;stroke:#ffffff;stroke-linecap:square;stroke-linejoin:miter;"/>
   </g>
   <g id="patch_6">
    <path d="M 54.708125 47.03325 
L 668.508125 47.03325 
" style="fill:none;stroke:#ffffff;stroke-linecap:square;stroke-linejoin:miter;"/>
   </g>
   <g id="text_9">
    <!-- Cumulative Snow per Winter Season at BOSTON, MA US -->
    <defs>
     <path d="M 64.40625 67.28125 
L 64.40625 56.890625 
Q 59.421875 61.53125 53.78125 63.8125 
Q 48.140625 66.109375 41.796875 66.109375 
Q 29.296875 66.109375 22.65625 58.46875 
Q 16.015625 50.828125 16.015625 36.375 
Q 16.015625 21.96875 22.65625 14.328125 
Q 29.296875 6.6875 41.796875 6.6875 
Q 48.140625 6.6875 53.78125 8.984375 
Q 59.421875 11.28125 64.40625 15.921875 
L 64.40625 5.609375 
Q 59.234375 2.09375 53.4375 0.328125 
Q 47.65625 -1.421875 41.21875 -1.421875 
Q 24.65625 -1.421875 15.125 8.703125 
Q 5.609375 18.84375 5.609375 36.375 
Q 5.609375 53.953125 15.125 64.078125 
Q 24.65625 74.21875 41.21875 74.21875 
Q 47.75 74.21875 53.53125 72.484375 
Q 59.328125 70.75 64.40625 67.28125 
z
" id="DejaVuSans-67"/>
     <path d="M 8.5 21.578125 
L 8.5 54.6875 
L 17.484375 54.6875 
L 17.484375 21.921875 
Q 17.484375 14.15625 20.5 10.265625 
Q 23.53125 6.390625 29.59375 6.390625 
Q 36.859375 6.390625 41.078125 11.03125 
Q 45.3125 15.671875 45.3125 23.6875 
L 45.3125 54.6875 
L 54.296875 54.6875 
L 54.296875 0 
L 45.3125 0 
L 45.3125 8.40625 
Q 42.046875 3.421875 37.71875 1 
Q 33.40625 -1.421875 27.6875 -1.421875 
Q 18.265625 -1.421875 13.375 4.4375 
Q 8.5 10.296875 8.5 21.578125 
z
M 31.109375 56 
z
" id="DejaVuSans-117"/>
     <path d="M 52 44.1875 
Q 55.375 50.25 60.0625 53.125 
Q 64.75 56 71.09375 56 
Q 79.640625 56 84.28125 50.015625 
Q 88.921875 44.046875 88.921875 33.015625 
L 88.921875 0 
L 79.890625 0 
L 79.890625 32.71875 
Q 79.890625 40.578125 77.09375 44.375 
Q 74.3125 48.1875 68.609375 48.1875 
Q 61.625 48.1875 57.5625 43.546875 
Q 53.515625 38.921875 53.515625 30.90625 
L 53.515625 0 
L 44.484375 0 
L 44.484375 32.71875 
Q 44.484375 40.625 41.703125 44.40625 
Q 38.921875 48.1875 33.109375 48.1875 
Q 26.21875 48.1875 22.15625 43.53125 
Q 18.109375 38.875 18.109375 30.90625 
L 18.109375 0 
L 9.078125 0 
L 9.078125 54.6875 
L 18.109375 54.6875 
L 18.109375 46.1875 
Q 21.1875 51.21875 25.484375 53.609375 
Q 29.78125 56 35.6875 56 
Q 41.65625 56 45.828125 52.96875 
Q 50 49.953125 52 44.1875 
z
" id="DejaVuSans-109"/>
     <path d="M 9.421875 75.984375 
L 18.40625 75.984375 
L 18.40625 0 
L 9.421875 0 
z
" id="DejaVuSans-108"/>
     <path d="M 18.3125 70.21875 
L 18.3125 54.6875 
L 36.8125 54.6875 
L 36.8125 47.703125 
L 18.3125 47.703125 
L 18.3125 18.015625 
Q 18.3125 11.328125 20.140625 9.421875 
Q 21.96875 7.515625 27.59375 7.515625 
L 36.8125 7.515625 
L 36.8125 0 
L 27.59375 0 
Q 17.1875 0 13.234375 3.875 
Q 9.28125 7.765625 9.28125 18.015625 
L 9.28125 47.703125 
L 2.6875 47.703125 
L 2.6875 54.6875 
L 9.28125 54.6875 
L 9.28125 70.21875 
z
" id="DejaVuSans-116"/>
     <path d="M 2.984375 54.6875 
L 12.5 54.6875 
L 29.59375 8.796875 
L 46.6875 54.6875 
L 56.203125 54.6875 
L 35.6875 0 
L 23.484375 0 
z
" id="DejaVuSans-118"/>
     <path d="M 18.109375 8.203125 
L 18.109375 -20.796875 
L 9.078125 -20.796875 
L 9.078125 54.6875 
L 18.109375 54.6875 
L 18.109375 46.390625 
Q 20.953125 51.265625 25.265625 53.625 
Q 29.59375 56 35.59375 56 
Q 45.5625 56 51.78125 48.09375 
Q 58.015625 40.1875 58.015625 27.296875 
Q 58.015625 14.40625 51.78125 6.484375 
Q 45.5625 -1.421875 35.59375 -1.421875 
Q 29.59375 -1.421875 25.265625 0.953125 
Q 20.953125 3.328125 18.109375 8.203125 
z
M 48.6875 27.296875 
Q 48.6875 37.203125 44.609375 42.84375 
Q 40.53125 48.484375 33.40625 48.484375 
Q 26.265625 48.484375 22.1875 42.84375 
Q 18.109375 37.203125 18.109375 27.296875 
Q 18.109375 17.390625 22.1875 11.75 
Q 26.265625 6.109375 33.40625 6.109375 
Q 40.53125 6.109375 44.609375 11.75 
Q 48.6875 17.390625 48.6875 27.296875 
z
" id="DejaVuSans-112"/>
     <path d="M 41.109375 46.296875 
Q 39.59375 47.171875 37.8125 47.578125 
Q 36.03125 48 33.890625 48 
Q 26.265625 48 22.1875 43.046875 
Q 18.109375 38.09375 18.109375 28.8125 
L 18.109375 0 
L 9.078125 0 
L 9.078125 54.6875 
L 18.109375 54.6875 
L 18.109375 46.1875 
Q 20.953125 51.171875 25.484375 53.578125 
Q 30.03125 56 36.53125 56 
Q 37.453125 56 38.578125 55.875 
Q 39.703125 55.765625 41.0625 55.515625 
z
" id="DejaVuSans-114"/>
     <path d="M 3.328125 72.90625 
L 13.28125 72.90625 
L 28.609375 11.28125 
L 43.890625 72.90625 
L 54.984375 72.90625 
L 70.3125 11.28125 
L 85.59375 72.90625 
L 95.609375 72.90625 
L 77.296875 0 
L 64.890625 0 
L 49.515625 63.28125 
L 33.984375 0 
L 21.578125 0 
z
" id="DejaVuSans-87"/>
     <path d="M 19.671875 34.8125 
L 19.671875 8.109375 
L 35.5 8.109375 
Q 43.453125 8.109375 47.28125 11.40625 
Q 51.125 14.703125 51.125 21.484375 
Q 51.125 28.328125 47.28125 31.5625 
Q 43.453125 34.8125 35.5 34.8125 
z
M 19.671875 64.796875 
L 19.671875 42.828125 
L 34.28125 42.828125 
Q 41.5 42.828125 45.03125 45.53125 
Q 48.578125 48.25 48.578125 53.8125 
Q 48.578125 59.328125 45.03125 62.0625 
Q 41.5 64.796875 34.28125 64.796875 
z
M 9.8125 72.90625 
L 35.015625 72.90625 
Q 46.296875 72.90625 52.390625 68.21875 
Q 58.5 63.53125 58.5 54.890625 
Q 58.5 48.1875 55.375 44.234375 
Q 52.25 40.28125 46.1875 39.3125 
Q 53.46875 37.75 57.5 32.78125 
Q 61.53125 27.828125 61.53125 20.40625 
Q 61.53125 10.640625 54.890625 5.3125 
Q 48.25 0 35.984375 0 
L 9.8125 0 
z
" id="DejaVuSans-66"/>
     <path d="M 39.40625 66.21875 
Q 28.65625 66.21875 22.328125 58.203125 
Q 16.015625 50.203125 16.015625 36.375 
Q 16.015625 22.609375 22.328125 14.59375 
Q 28.65625 6.59375 39.40625 6.59375 
Q 50.140625 6.59375 56.421875 14.59375 
Q 62.703125 22.609375 62.703125 36.375 
Q 62.703125 50.203125 56.421875 58.203125 
Q 50.140625 66.21875 39.40625 66.21875 
z
M 39.40625 74.21875 
Q 54.734375 74.21875 63.90625 63.9375 
Q 73.09375 53.65625 73.09375 36.375 
Q 73.09375 19.140625 63.90625 8.859375 
Q 54.734375 -1.421875 39.40625 -1.421875 
Q 24.03125 -1.421875 14.8125 8.828125 
Q 5.609375 19.09375 5.609375 36.375 
Q 5.609375 53.65625 14.8125 63.9375 
Q 24.03125 74.21875 39.40625 74.21875 
z
" id="DejaVuSans-79"/>
     <path d="M -0.296875 72.90625 
L 61.375 72.90625 
L 61.375 64.59375 
L 35.5 64.59375 
L 35.5 0 
L 25.59375 0 
L 25.59375 64.59375 
L -0.296875 64.59375 
z
" id="DejaVuSans-84"/>
     <path d="M 9.8125 72.90625 
L 23.09375 72.90625 
L 55.421875 11.921875 
L 55.421875 72.90625 
L 64.984375 72.90625 
L 64.984375 0 
L 51.703125 0 
L 19.390625 60.984375 
L 19.390625 0 
L 9.8125 0 
z
" id="DejaVuSans-78"/>
     <path d="M 11.71875 12.40625 
L 22.015625 12.40625 
L 22.015625 4 
L 14.015625 -11.625 
L 7.71875 -11.625 
L 11.71875 4 
z
" id="DejaVuSans-44"/>
     <path d="M 9.8125 72.90625 
L 24.515625 72.90625 
L 43.109375 23.296875 
L 61.8125 72.90625 
L 76.515625 72.90625 
L 76.515625 0 
L 66.890625 0 
L 66.890625 64.015625 
L 48.09375 14.015625 
L 38.1875 14.015625 
L 19.390625 64.015625 
L 19.390625 0 
L 9.8125 0 
z
" id="DejaVuSans-77"/>
     <path d="M 34.1875 63.1875 
L 20.796875 26.90625 
L 47.609375 26.90625 
z
M 28.609375 72.90625 
L 39.796875 72.90625 
L 67.578125 0 
L 57.328125 0 
L 50.6875 18.703125 
L 17.828125 18.703125 
L 11.1875 0 
L 0.78125 0 
z
" id="DejaVuSans-65"/>
     <path d="M 8.6875 72.90625 
L 18.609375 72.90625 
L 18.609375 28.609375 
Q 18.609375 16.890625 22.84375 11.734375 
Q 27.09375 6.59375 36.625 6.59375 
Q 46.09375 6.59375 50.34375 11.734375 
Q 54.59375 16.890625 54.59375 28.609375 
L 54.59375 72.90625 
L 64.5 72.90625 
L 64.5 27.390625 
Q 64.5 13.140625 57.4375 5.859375 
Q 50.390625 -1.421875 36.625 -1.421875 
Q 22.796875 -1.421875 15.734375 5.859375 
Q 8.6875 13.140625 8.6875 27.390625 
z
" id="DejaVuSans-85"/>
    </defs>
    <g transform="translate(109.177813 20.877187)scale(0.18 -0.18)">
     <use xlink:href="#DejaVuSans-67"/>
     <use x="69.824219" xlink:href="#DejaVuSans-117"/>
     <use x="133.203125" xlink:href="#DejaVuSans-109"/>
     <use x="230.615234" xlink:href="#DejaVuSans-117"/>
     <use x="293.994141" xlink:href="#DejaVuSans-108"/>
     <use x="321.777344" xlink:href="#DejaVuSans-97"/>
     <use x="383.056641" xlink:href="#DejaVuSans-116"/>
     <use x="422.265625" xlink:href="#DejaVuSans-105"/>
     <use x="450.048828" xlink:href="#DejaVuSans-118"/>
     <use x="509.228516" xlink:href="#DejaVuSans-101"/>
     <use x="570.751953" xlink:href="#DejaVuSans-32"/>
     <use x="602.539062" xlink:href="#DejaVuSans-83"/>
     <use x="666.015625" xlink:href="#DejaVuSans-110"/>
     <use x="729.394531" xlink:href="#DejaVuSans-111"/>
     <use x="790.576172" xlink:href="#DejaVuSans-119"/>
     <use x="872.363281" xlink:href="#DejaVuSans-32"/>
     <use x="904.150391" xlink:href="#DejaVuSans-112"/>
     <use x="967.626953" xlink:href="#DejaVuSans-101"/>
     <use x="1029.150391" xlink:href="#DejaVuSans-114"/>
     <use x="1070.263672" xlink:href="#DejaVuSans-32"/>
     <use x="1102.050781" xlink:href="#DejaVuSans-87"/>
     <use x="1200.896484" xlink:href="#DejaVuSans-105"/>
     <use x="1228.679688" xlink:href="#DejaVuSans-110"/>
     <use x="1292.058594" xlink:href="#DejaVuSans-116"/>
     <use x="1331.267578" xlink:href="#DejaVuSans-101"/>
     <use x="1392.791016" xlink:href="#DejaVuSans-114"/>
     <use x="1433.904297" xlink:href="#DejaVuSans-32"/>
     <use x="1465.691406" xlink:href="#DejaVuSans-83"/>
     <use x="1529.167969" xlink:href="#DejaVuSans-101"/>
     <use x="1590.691406" xlink:href="#DejaVuSans-97"/>
     <use x="1651.970703" xlink:href="#DejaVuSans-115"/>
     <use x="1704.070312" xlink:href="#DejaVuSans-111"/>
     <use x="1765.251953" xlink:href="#DejaVuSans-110"/>
     <use x="1828.630859" xlink:href="#DejaVuSans-32"/>
     <use x="1860.417969" xlink:href="#DejaVuSans-97"/>
     <use x="1921.697266" xlink:href="#DejaVuSans-116"/>
     <use x="1960.90625" xlink:href="#DejaVuSans-32"/>
     <use x="1992.693359" xlink:href="#DejaVuSans-66"/>
     <use x="2061.28125" xlink:href="#DejaVuSans-79"/>
     <use x="2139.992188" xlink:href="#DejaVuSans-83"/>
     <use x="2203.46875" xlink:href="#DejaVuSans-84"/>
     <use x="2264.552734" xlink:href="#DejaVuSans-79"/>
     <use x="2343.263672" xlink:href="#DejaVuSans-78"/>
     <use x="2418.068359" xlink:href="#DejaVuSans-44"/>
     <use x="2449.855469" xlink:href="#DejaVuSans-32"/>
     <use x="2481.642578" xlink:href="#DejaVuSans-77"/>
     <use x="2567.921875" xlink:href="#DejaVuSans-65"/>
     <use x="2636.330078" xlink:href="#DejaVuSans-32"/>
     <use x="2668.117188" xlink:href="#DejaVuSans-85"/>
     <use x="2741.310547" xlink:href="#DejaVuSans-83"/>
    </g>
    <!-- (USW00014739) -->
    <defs>
     <path d="M 8.203125 72.90625 
L 55.078125 72.90625 
L 55.078125 68.703125 
L 28.609375 0 
L 18.3125 0 
L 43.21875 64.59375 
L 8.203125 64.59375 
z
" id="DejaVuSans-55"/>
     <path d="M 40.578125 39.3125 
Q 47.65625 37.796875 51.625 33 
Q 55.609375 28.21875 55.609375 21.1875 
Q 55.609375 10.40625 48.1875 4.484375 
Q 40.765625 -1.421875 27.09375 -1.421875 
Q 22.515625 -1.421875 17.65625 -0.515625 
Q 12.796875 0.390625 7.625 2.203125 
L 7.625 11.71875 
Q 11.71875 9.328125 16.59375 8.109375 
Q 21.484375 6.890625 26.8125 6.890625 
Q 36.078125 6.890625 40.9375 10.546875 
Q 45.796875 14.203125 45.796875 21.1875 
Q 45.796875 27.640625 41.28125 31.265625 
Q 36.765625 34.90625 28.71875 34.90625 
L 20.21875 34.90625 
L 20.21875 43.015625 
L 29.109375 43.015625 
Q 36.375 43.015625 40.234375 45.921875 
Q 44.09375 48.828125 44.09375 54.296875 
Q 44.09375 59.90625 40.109375 62.90625 
Q 36.140625 65.921875 28.71875 65.921875 
Q 24.65625 65.921875 20.015625 65.03125 
Q 15.375 64.15625 9.8125 62.3125 
L 9.8125 71.09375 
Q 15.4375 72.65625 20.34375 73.4375 
Q 25.25 74.21875 29.59375 74.21875 
Q 40.828125 74.21875 47.359375 69.109375 
Q 53.90625 64.015625 53.90625 55.328125 
Q 53.90625 49.265625 50.4375 45.09375 
Q 46.96875 40.921875 40.578125 39.3125 
z
" id="DejaVuSans-51"/>
     <path d="M 10.984375 1.515625 
L 10.984375 10.5 
Q 14.703125 8.734375 18.5 7.8125 
Q 22.3125 6.890625 25.984375 6.890625 
Q 35.75 6.890625 40.890625 13.453125 
Q 46.046875 20.015625 46.78125 33.40625 
Q 43.953125 29.203125 39.59375 26.953125 
Q 35.25 24.703125 29.984375 24.703125 
Q 19.046875 24.703125 12.671875 31.3125 
Q 6.296875 37.9375 6.296875 49.421875 
Q 6.296875 60.640625 12.9375 67.421875 
Q 19.578125 74.21875 30.609375 74.21875 
Q 43.265625 74.21875 49.921875 64.515625 
Q 56.59375 54.828125 56.59375 36.375 
Q 56.59375 19.140625 48.40625 8.859375 
Q 40.234375 -1.421875 26.421875 -1.421875 
Q 22.703125 -1.421875 18.890625 -0.6875 
Q 15.09375 0.046875 10.984375 1.515625 
z
M 30.609375 32.421875 
Q 37.25 32.421875 41.125 36.953125 
Q 45.015625 41.5 45.015625 49.421875 
Q 45.015625 57.28125 41.125 61.84375 
Q 37.25 66.40625 30.609375 66.40625 
Q 23.96875 66.40625 20.09375 61.84375 
Q 16.21875 57.28125 16.21875 49.421875 
Q 16.21875 41.5 20.09375 36.953125 
Q 23.96875 32.421875 30.609375 32.421875 
z
" id="DejaVuSans-57"/>
    </defs>
    <g transform="translate(287.576094 41.03325)scale(0.18 -0.18)">
     <use xlink:href="#DejaVuSans-40"/>
     <use x="39.013672" xlink:href="#DejaVuSans-85"/>
     <use x="112.207031" xlink:href="#DejaVuSans-83"/>
     <use x="175.683594" xlink:href="#DejaVuSans-87"/>
     <use x="274.560547" xlink:href="#DejaVuSans-48"/>
     <use x="338.183594" xlink:href="#DejaVuSans-48"/>
     <use x="401.806641" xlink:href="#DejaVuSans-48"/>
     <use x="465.429688" xlink:href="#DejaVuSans-49"/>
     <use x="529.052734" xlink:href="#DejaVuSans-52"/>
     <use x="592.675781" xlink:href="#DejaVuSans-55"/>
     <use x="656.298828" xlink:href="#DejaVuSans-51"/>
     <use x="719.921875" xlink:href="#DejaVuSans-57"/>
     <use x="783.544922" xlink:href="#DejaVuSans-41"/>
    </g>
   </g>
   <g id="legend_1">
    <g id="patch_7">
     <path d="M 616.948125 170.85825 
L 662.908125 170.85825 
Q 664.508125 170.85825 664.508125 169.25825 
L 664.508125 52.63325 
Q 664.508125 51.03325 662.908125 51.03325 
L 616.948125 51.03325 
Q 615.348125 51.03325 615.348125 52.63325 
L 615.348125 169.25825 
Q 615.348125 170.85825 616.948125 170.85825 
z
" style="fill:#e5e5e5;opacity:0.8;stroke:#cccccc;stroke-linejoin:miter;stroke-width:0.5;"/>
    </g>
    <g id="line2d_75">
     <path d="M 618.548125 57.512 
L 634.548125 57.512 
" style="fill:none;stroke:#e24a33;stroke-linecap:square;stroke-width:1.5;"/>
    </g>
    <g id="line2d_76"/>
    <g id="text_10">
     <!-- 2010 -->
     <g transform="translate(640.948125 60.312)scale(0.08 -0.08)">
      <use xlink:href="#DejaVuSans-50"/>
      <use x="63.623047" xlink:href="#DejaVuSans-48"/>
      <use x="127.246094" xlink:href="#DejaVuSans-49"/>
      <use x="190.869141" xlink:href="#DejaVuSans-48"/>
     </g>
    </g>
    <g id="line2d_77">
     <path d="M 618.548125 69.2545 
L 634.548125 69.2545 
" style="fill:none;stroke:#348abd;stroke-linecap:square;stroke-width:1.5;"/>
    </g>
    <g id="line2d_78"/>
    <g id="text_11">
     <!-- 2011 -->
     <g transform="translate(640.948125 72.0545)scale(0.08 -0.08)">
      <use xlink:href="#DejaVuSans-50"/>
      <use x="63.623047" xlink:href="#DejaVuSans-48"/>
      <use x="127.246094" xlink:href="#DejaVuSans-49"/>
      <use x="190.869141" xlink:href="#DejaVuSans-49"/>
     </g>
    </g>
    <g id="line2d_79">
     <path d="M 618.548125 80.997 
L 634.548125 80.997 
" style="fill:none;stroke:#988ed5;stroke-linecap:square;stroke-width:1.5;"/>
    </g>
    <g id="line2d_80"/>
    <g id="text_12">
     <!-- 2012 -->
     <g transform="translate(640.948125 83.797)scale(0.08 -0.08)">
      <use xlink:href="#DejaVuSans-50"/>
      <use x="63.623047" xlink:href="#DejaVuSans-48"/>
      <use x="127.246094" xlink:href="#DejaVuSans-49"/>
      <use x="190.869141" xlink:href="#DejaVuSans-50"/>
     </g>
    </g>
    <g id="line2d_81">
     <path d="M 618.548125 92.7395 
L 634.548125 92.7395 
" style="fill:none;stroke:#777777;stroke-linecap:square;stroke-width:1.5;"/>
    </g>
    <g id="line2d_82"/>
    <g id="text_13">
     <!-- 2013 -->
     <g transform="translate(640.948125 95.5395)scale(0.08 -0.08)">
      <use xlink:href="#DejaVuSans-50"/>
      <use x="63.623047" xlink:href="#DejaVuSans-48"/>
      <use x="127.246094" xlink:href="#DejaVuSans-49"/>
      <use x="190.869141" xlink:href="#DejaVuSans-51"/>
     </g>
    </g>
    <g id="line2d_83">
     <path d="M 618.548125 104.482 
L 634.548125 104.482 
" style="fill:none;stroke:#fbc15e;stroke-linecap:square;stroke-width:1.5;"/>
    </g>
    <g id="line2d_84"/>
    <g id="text_14">
     <!-- 2014 -->
     <g transform="translate(640.948125 107.282)scale(0.08 -0.08)">
      <use xlink:href="#DejaVuSans-50"/>
      <use x="63.623047" xlink:href="#DejaVuSans-48"/>
      <use x="127.246094" xlink:href="#DejaVuSans-49"/>
      <use x="190.869141" xlink:href="#DejaVuSans-52"/>
     </g>
    </g>
    <g id="line2d_85">
     <path d="M 618.548125 116.2245 
L 634.548125 116.2245 
" style="fill:none;stroke:#8eba42;stroke-linecap:square;stroke-width:1.5;"/>
    </g>
    <g id="line2d_86"/>
    <g id="text_15">
     <!-- 2015 -->
     <defs>
      <path d="M 10.796875 72.90625 
L 49.515625 72.90625 
L 49.515625 64.59375 
L 19.828125 64.59375 
L 19.828125 46.734375 
Q 21.96875 47.46875 24.109375 47.828125 
Q 26.265625 48.1875 28.421875 48.1875 
Q 40.625 48.1875 47.75 41.5 
Q 54.890625 34.8125 54.890625 23.390625 
Q 54.890625 11.625 47.5625 5.09375 
Q 40.234375 -1.421875 26.90625 -1.421875 
Q 22.3125 -1.421875 17.546875 -0.640625 
Q 12.796875 0.140625 7.71875 1.703125 
L 7.71875 11.625 
Q 12.109375 9.234375 16.796875 8.0625 
Q 21.484375 6.890625 26.703125 6.890625 
Q 35.15625 6.890625 40.078125 11.328125 
Q 45.015625 15.765625 45.015625 23.390625 
Q 45.015625 31 40.078125 35.4375 
Q 35.15625 39.890625 26.703125 39.890625 
Q 22.75 39.890625 18.8125 39.015625 
Q 14.890625 38.140625 10.796875 36.28125 
z
" id="DejaVuSans-53"/>
     </defs>
     <g transform="translate(640.948125 119.0245)scale(0.08 -0.08)">
      <use xlink:href="#DejaVuSans-50"/>
      <use x="63.623047" xlink:href="#DejaVuSans-48"/>
      <use x="127.246094" xlink:href="#DejaVuSans-49"/>
      <use x="190.869141" xlink:href="#DejaVuSans-53"/>
     </g>
    </g>
    <g id="line2d_87">
     <path d="M 618.548125 127.967 
L 634.548125 127.967 
" style="fill:none;stroke:#ffb5b8;stroke-linecap:square;stroke-width:1.5;"/>
    </g>
    <g id="line2d_88"/>
    <g id="text_16">
     <!-- 2016 -->
     <g transform="translate(640.948125 130.767)scale(0.08 -0.08)">
      <use xlink:href="#DejaVuSans-50"/>
      <use x="63.623047" xlink:href="#DejaVuSans-48"/>
      <use x="127.246094" xlink:href="#DejaVuSans-49"/>
      <use x="190.869141" xlink:href="#DejaVuSans-54"/>
     </g>
    </g>
    <g id="line2d_89">
     <path d="M 618.548125 139.7095 
L 634.548125 139.7095 
" style="fill:none;stroke:#e24a33;stroke-linecap:square;stroke-width:1.5;"/>
    </g>
    <g id="line2d_90"/>
    <g id="text_17">
     <!-- 2017 -->
     <g transform="translate(640.948125 142.5095)scale(0.08 -0.08)">
      <use xlink:href="#DejaVuSans-50"/>
      <use x="63.623047" xlink:href="#DejaVuSans-48"/>
      <use x="127.246094" xlink:href="#DejaVuSans-49"/>
      <use x="190.869141" xlink:href="#DejaVuSans-55"/>
     </g>
    </g>
    <g id="line2d_91">
     <path d="M 618.548125 151.452 
L 634.548125 151.452 
" style="fill:none;stroke:#348abd;stroke-linecap:square;stroke-width:1.5;"/>
    </g>
    <g id="line2d_92"/>
    <g id="text_18">
     <!-- 2018 -->
     <g transform="translate(640.948125 154.252)scale(0.08 -0.08)">
      <use xlink:href="#DejaVuSans-50"/>
      <use x="63.623047" xlink:href="#DejaVuSans-48"/>
      <use x="127.246094" xlink:href="#DejaVuSans-49"/>
      <use x="190.869141" xlink:href="#DejaVuSans-56"/>
     </g>
    </g>
    <g id="line2d_93">
     <path d="M 618.548125 163.1945 
L 634.548125 163.1945 
" style="fill:none;stroke:#988ed5;stroke-linecap:square;stroke-width:1.5;"/>
    </g>
    <g id="line2d_94"/>
    <g id="text_19">
     <!-- 2019 -->
     <g transform="translate(640.948125 165.9945)scale(0.08 -0.08)">
      <use xlink:href="#DejaVuSans-50"/>
      <use x="63.623047" xlink:href="#DejaVuSans-48"/>
      <use x="127.246094" xlink:href="#DejaVuSans-49"/>
      <use x="190.869141" xlink:href="#DejaVuSans-57"/>
     </g>
    </g>
   </g>
  </g>
  <g id="axes_2">
   <g id="patch_8">
    <path d="M 54.708125 463.19325 
L 668.508125 463.19325 
L 668.508125 274.029614 
L 54.708125 274.029614 
z
" style="fill:#e5e5e5;"/>
   </g>
   <g id="matplotlib.axis_3">
    <g id="xtick_41">
     <g id="line2d_95">
      <path clip-path="url(#pdd8a23b00f)" d="M 54.708125 463.19325 
L 54.708125 274.029614 
" style="fill:none;stroke:#ffffff;stroke-linecap:square;stroke-width:0.8;"/>
     </g>
     <g id="line2d_96">
      <g>
       <use style="fill:#555555;stroke:#555555;stroke-width:0.8;" x="54.708125" xlink:href="#m0228b2ceb2" y="463.19325"/>
      </g>
     </g>
     <g id="text_20">
      <!-- Jul 1 -->
      <defs>
       <path d="M 9.8125 72.90625 
L 19.671875 72.90625 
L 19.671875 5.078125 
Q 19.671875 -8.109375 14.671875 -14.0625 
Q 9.671875 -20.015625 -1.421875 -20.015625 
L -5.171875 -20.015625 
L -5.171875 -11.71875 
L -2.09375 -11.71875 
Q 4.4375 -11.71875 7.125 -8.046875 
Q 9.8125 -4.390625 9.8125 5.078125 
z
" id="DejaVuSans-74"/>
      </defs>
      <g style="fill:#555555;" transform="translate(45.364085 493.095302)rotate(-70)scale(0.1 -0.1)">
       <use xlink:href="#DejaVuSans-74"/>
       <use x="29.492188" xlink:href="#DejaVuSans-117"/>
       <use x="92.871094" xlink:href="#DejaVuSans-108"/>
       <use x="120.654297" xlink:href="#DejaVuSans-32"/>
       <use x="152.441406" xlink:href="#DejaVuSans-49"/>
      </g>
     </g>
    </g>
    <g id="xtick_42">
     <g id="line2d_97">
      <path clip-path="url(#pdd8a23b00f)" d="M 138.790317 463.19325 
L 138.790317 274.029614 
" style="fill:none;stroke:#ffffff;stroke-linecap:square;stroke-width:0.8;"/>
     </g>
     <g id="line2d_98">
      <g>
       <use style="fill:#555555;stroke:#555555;stroke-width:0.8;" x="138.790317" xlink:href="#m0228b2ceb2" y="463.19325"/>
      </g>
     </g>
     <g id="text_21">
      <!-- Aug 20 -->
      <defs>
       <path d="M 45.40625 27.984375 
Q 45.40625 37.75 41.375 43.109375 
Q 37.359375 48.484375 30.078125 48.484375 
Q 22.859375 48.484375 18.828125 43.109375 
Q 14.796875 37.75 14.796875 27.984375 
Q 14.796875 18.265625 18.828125 12.890625 
Q 22.859375 7.515625 30.078125 7.515625 
Q 37.359375 7.515625 41.375 12.890625 
Q 45.40625 18.265625 45.40625 27.984375 
z
M 54.390625 6.78125 
Q 54.390625 -7.171875 48.1875 -13.984375 
Q 42 -20.796875 29.203125 -20.796875 
Q 24.46875 -20.796875 20.265625 -20.09375 
Q 16.0625 -19.390625 12.109375 -17.921875 
L 12.109375 -9.1875 
Q 16.0625 -11.328125 19.921875 -12.34375 
Q 23.78125 -13.375 27.78125 -13.375 
Q 36.625 -13.375 41.015625 -8.765625 
Q 45.40625 -4.15625 45.40625 5.171875 
L 45.40625 9.625 
Q 42.625 4.78125 38.28125 2.390625 
Q 33.9375 0 27.875 0 
Q 17.828125 0 11.671875 7.65625 
Q 5.515625 15.328125 5.515625 27.984375 
Q 5.515625 40.671875 11.671875 48.328125 
Q 17.828125 56 27.875 56 
Q 33.9375 56 38.28125 53.609375 
Q 42.625 51.21875 45.40625 46.390625 
L 45.40625 54.6875 
L 54.390625 54.6875 
z
" id="DejaVuSans-103"/>
      </defs>
      <g style="fill:#555555;" transform="translate(124.718383 506.085085)rotate(-70)scale(0.1 -0.1)">
       <use xlink:href="#DejaVuSans-65"/>
       <use x="68.408203" xlink:href="#DejaVuSans-117"/>
       <use x="131.787109" xlink:href="#DejaVuSans-103"/>
       <use x="195.263672" xlink:href="#DejaVuSans-32"/>
       <use x="227.050781" xlink:href="#DejaVuSans-50"/>
       <use x="290.673828" xlink:href="#DejaVuSans-48"/>
      </g>
     </g>
    </g>
    <g id="xtick_43">
     <g id="line2d_99">
      <path clip-path="url(#pdd8a23b00f)" d="M 222.872509 463.19325 
L 222.872509 274.029614 
" style="fill:none;stroke:#ffffff;stroke-linecap:square;stroke-width:0.8;"/>
     </g>
     <g id="line2d_100">
      <g>
       <use style="fill:#555555;stroke:#555555;stroke-width:0.8;" x="222.872509" xlink:href="#m0228b2ceb2" y="463.19325"/>
      </g>
     </g>
     <g id="text_22">
      <!-- Oct 9 -->
      <g style="fill:#555555;" transform="translate(211.741414 498.005196)rotate(-70)scale(0.1 -0.1)">
       <use xlink:href="#DejaVuSans-79"/>
       <use x="78.710938" xlink:href="#DejaVuSans-99"/>
       <use x="133.691406" xlink:href="#DejaVuSans-116"/>
       <use x="172.900391" xlink:href="#DejaVuSans-32"/>
       <use x="204.6875" xlink:href="#DejaVuSans-57"/>
      </g>
     </g>
    </g>
    <g id="xtick_44">
     <g id="line2d_101">
      <path clip-path="url(#pdd8a23b00f)" d="M 306.9547 463.19325 
L 306.9547 274.029614 
" style="fill:none;stroke:#ffffff;stroke-linecap:square;stroke-width:0.8;"/>
     </g>
     <g id="line2d_102">
      <g>
       <use style="fill:#555555;stroke:#555555;stroke-width:0.8;" x="306.9547" xlink:href="#m0228b2ceb2" y="463.19325"/>
      </g>
     </g>
     <g id="text_23">
      <!-- Nov 28 -->
      <g style="fill:#555555;" transform="translate(292.885439 506.077743)rotate(-70)scale(0.1 -0.1)">
       <use xlink:href="#DejaVuSans-78"/>
       <use x="74.804688" xlink:href="#DejaVuSans-111"/>
       <use x="135.986328" xlink:href="#DejaVuSans-118"/>
       <use x="195.166016" xlink:href="#DejaVuSans-32"/>
       <use x="226.953125" xlink:href="#DejaVuSans-50"/>
       <use x="290.576172" xlink:href="#DejaVuSans-56"/>
      </g>
     </g>
    </g>
    <g id="xtick_45">
     <g id="line2d_103">
      <path clip-path="url(#pdd8a23b00f)" d="M 391.036892 463.19325 
L 391.036892 274.029614 
" style="fill:none;stroke:#ffffff;stroke-linecap:square;stroke-width:0.8;"/>
     </g>
     <g id="line2d_104">
      <g>
       <use style="fill:#555555;stroke:#555555;stroke-width:0.8;" x="391.036892" xlink:href="#m0228b2ceb2" y="463.19325"/>
      </g>
     </g>
     <g id="text_24">
      <!-- Jan 17 -->
      <g style="fill:#555555;" transform="translate(378.370982 502.222067)rotate(-70)scale(0.1 -0.1)">
       <use xlink:href="#DejaVuSans-74"/>
       <use x="29.492188" xlink:href="#DejaVuSans-97"/>
       <use x="90.771484" xlink:href="#DejaVuSans-110"/>
       <use x="154.150391" xlink:href="#DejaVuSans-32"/>
       <use x="185.9375" xlink:href="#DejaVuSans-49"/>
       <use x="249.560547" xlink:href="#DejaVuSans-55"/>
      </g>
     </g>
    </g>
    <g id="xtick_46">
     <g id="line2d_105">
      <path clip-path="url(#pdd8a23b00f)" d="M 475.119084 463.19325 
L 475.119084 274.029614 
" style="fill:none;stroke:#ffffff;stroke-linecap:square;stroke-width:0.8;"/>
     </g>
     <g id="line2d_106">
      <g>
       <use style="fill:#555555;stroke:#555555;stroke-width:0.8;" x="475.119084" xlink:href="#m0228b2ceb2" y="463.19325"/>
      </g>
     </g>
     <g id="text_25">
      <!-- Mar 8 -->
      <g style="fill:#555555;" transform="translate(463.448773 499.48668)rotate(-70)scale(0.1 -0.1)">
       <use xlink:href="#DejaVuSans-77"/>
       <use x="86.279297" xlink:href="#DejaVuSans-97"/>
       <use x="147.558594" xlink:href="#DejaVuSans-114"/>
       <use x="188.671875" xlink:href="#DejaVuSans-32"/>
       <use x="220.458984" xlink:href="#DejaVuSans-56"/>
      </g>
     </g>
    </g>
    <g id="xtick_47">
     <g id="line2d_107">
      <path clip-path="url(#pdd8a23b00f)" d="M 559.201276 463.19325 
L 559.201276 274.029614 
" style="fill:none;stroke:#ffffff;stroke-linecap:square;stroke-width:0.8;"/>
     </g>
     <g id="line2d_108">
      <g>
       <use style="fill:#555555;stroke:#555555;stroke-width:0.8;" x="559.201276" xlink:href="#m0228b2ceb2" y="463.19325"/>
      </g>
     </g>
     <g id="text_26">
      <!-- Apr 27 -->
      <g style="fill:#555555;" transform="translate(545.890871 503.9928)rotate(-70)scale(0.1 -0.1)">
       <use xlink:href="#DejaVuSans-65"/>
       <use x="68.408203" xlink:href="#DejaVuSans-112"/>
       <use x="131.884766" xlink:href="#DejaVuSans-114"/>
       <use x="172.998047" xlink:href="#DejaVuSans-32"/>
       <use x="204.785156" xlink:href="#DejaVuSans-50"/>
       <use x="268.408203" xlink:href="#DejaVuSans-55"/>
      </g>
     </g>
    </g>
    <g id="xtick_48">
     <g id="line2d_109">
      <path clip-path="url(#pdd8a23b00f)" d="M 643.283467 463.19325 
L 643.283467 274.029614 
" style="fill:none;stroke:#ffffff;stroke-linecap:square;stroke-width:0.8;"/>
     </g>
     <g id="line2d_110">
      <g>
       <use style="fill:#555555;stroke:#555555;stroke-width:0.8;" x="643.283467" xlink:href="#m0228b2ceb2" y="463.19325"/>
      </g>
     </g>
     <g id="text_27">
      <!-- Jun 16 -->
      <g style="fill:#555555;" transform="translate(630.545947 502.418815)rotate(-70)scale(0.1 -0.1)">
       <use xlink:href="#DejaVuSans-74"/>
       <use x="29.492188" xlink:href="#DejaVuSans-117"/>
       <use x="92.871094" xlink:href="#DejaVuSans-110"/>
       <use x="156.25" xlink:href="#DejaVuSans-32"/>
       <use x="188.037109" xlink:href="#DejaVuSans-49"/>
       <use x="251.660156" xlink:href="#DejaVuSans-54"/>
      </g>
     </g>
    </g>
   </g>
   <g id="matplotlib.axis_4">
    <g id="ytick_7">
     <g id="line2d_111">
      <path clip-path="url(#pdd8a23b00f)" d="M 54.708125 454.594903 
L 668.508125 454.594903 
" style="fill:none;stroke:#ffffff;stroke-linecap:square;stroke-width:0.8;"/>
     </g>
     <g id="line2d_112">
      <g>
       <use style="fill:#555555;stroke:#555555;stroke-width:0.8;" x="54.708125" xlink:href="#m23d8d1fbf5" y="454.594903"/>
      </g>
     </g>
     <g id="text_28">
      <!-- 0 -->
      <g style="fill:#555555;" transform="translate(41.345625 458.394122)scale(0.1 -0.1)">
       <use xlink:href="#DejaVuSans-48"/>
      </g>
     </g>
    </g>
    <g id="ytick_8">
     <g id="line2d_113">
      <path clip-path="url(#pdd8a23b00f)" d="M 54.708125 423.497807 
L 668.508125 423.497807 
" style="fill:none;stroke:#ffffff;stroke-linecap:square;stroke-width:0.8;"/>
     </g>
     <g id="line2d_114">
      <g>
       <use style="fill:#555555;stroke:#555555;stroke-width:0.8;" x="54.708125" xlink:href="#m23d8d1fbf5" y="423.497807"/>
      </g>
     </g>
     <g id="text_29">
      <!-- 20 -->
      <g style="fill:#555555;" transform="translate(34.983125 427.297025)scale(0.1 -0.1)">
       <use xlink:href="#DejaVuSans-50"/>
       <use x="63.623047" xlink:href="#DejaVuSans-48"/>
      </g>
     </g>
    </g>
    <g id="ytick_9">
     <g id="line2d_115">
      <path clip-path="url(#pdd8a23b00f)" d="M 54.708125 392.40071 
L 668.508125 392.40071 
" style="fill:none;stroke:#ffffff;stroke-linecap:square;stroke-width:0.8;"/>
     </g>
     <g id="line2d_116">
      <g>
       <use style="fill:#555555;stroke:#555555;stroke-width:0.8;" x="54.708125" xlink:href="#m23d8d1fbf5" y="392.40071"/>
      </g>
     </g>
     <g id="text_30">
      <!-- 40 -->
      <g style="fill:#555555;" transform="translate(34.983125 396.199929)scale(0.1 -0.1)">
       <use xlink:href="#DejaVuSans-52"/>
       <use x="63.623047" xlink:href="#DejaVuSans-48"/>
      </g>
     </g>
    </g>
    <g id="ytick_10">
     <g id="line2d_117">
      <path clip-path="url(#pdd8a23b00f)" d="M 54.708125 361.303614 
L 668.508125 361.303614 
" style="fill:none;stroke:#ffffff;stroke-linecap:square;stroke-width:0.8;"/>
     </g>
     <g id="line2d_118">
      <g>
       <use style="fill:#555555;stroke:#555555;stroke-width:0.8;" x="54.708125" xlink:href="#m23d8d1fbf5" y="361.303614"/>
      </g>
     </g>
     <g id="text_31">
      <!-- 60 -->
      <g style="fill:#555555;" transform="translate(34.983125 365.102833)scale(0.1 -0.1)">
       <use xlink:href="#DejaVuSans-54"/>
       <use x="63.623047" xlink:href="#DejaVuSans-48"/>
      </g>
     </g>
    </g>
    <g id="ytick_11">
     <g id="line2d_119">
      <path clip-path="url(#pdd8a23b00f)" d="M 54.708125 330.206518 
L 668.508125 330.206518 
" style="fill:none;stroke:#ffffff;stroke-linecap:square;stroke-width:0.8;"/>
     </g>
     <g id="line2d_120">
      <g>
       <use style="fill:#555555;stroke:#555555;stroke-width:0.8;" x="54.708125" xlink:href="#m23d8d1fbf5" y="330.206518"/>
      </g>
     </g>
     <g id="text_32">
      <!-- 80 -->
      <g style="fill:#555555;" transform="translate(34.983125 334.005737)scale(0.1 -0.1)">
       <use xlink:href="#DejaVuSans-56"/>
       <use x="63.623047" xlink:href="#DejaVuSans-48"/>
      </g>
     </g>
    </g>
    <g id="ytick_12">
     <g id="line2d_121">
      <path clip-path="url(#pdd8a23b00f)" d="M 54.708125 299.109422 
L 668.508125 299.109422 
" style="fill:none;stroke:#ffffff;stroke-linecap:square;stroke-width:0.8;"/>
     </g>
     <g id="line2d_122">
      <g>
       <use style="fill:#555555;stroke:#555555;stroke-width:0.8;" x="54.708125" xlink:href="#m23d8d1fbf5" y="299.109422"/>
      </g>
     </g>
     <g id="text_33">
      <!-- 100 -->
      <g style="fill:#555555;" transform="translate(28.620625 302.90864)scale(0.1 -0.1)">
       <use xlink:href="#DejaVuSans-49"/>
       <use x="63.623047" xlink:href="#DejaVuSans-48"/>
       <use x="127.246094" xlink:href="#DejaVuSans-48"/>
      </g>
     </g>
    </g>
   </g>
   <g id="line2d_123">
    <path clip-path="url(#pdd8a23b00f)" d="M 54.708125 454.594903 
L 342.269221 454.594903 
L 343.950865 450.55228 
L 345.632509 450.396795 
L 347.314152 449.774853 
L 348.995796 448.686455 
L 352.359084 448.686455 
L 354.040728 433.293392 
L 355.722372 420.388097 
L 372.53881 420.388097 
L 374.220454 419.921641 
L 375.902098 416.967416 
L 377.583741 414.479649 
L 380.947029 414.479649 
L 382.628673 391.778769 
L 391.036892 391.778769 
L 392.718536 388.824544 
L 396.081824 388.824544 
L 397.763467 377.474104 
L 402.808399 377.474104 
L 404.490043 376.23022 
L 406.171687 374.51988 
L 407.85333 360.837158 
L 414.579906 360.837158 
L 416.26155 350.264145 
L 417.943193 344.666668 
L 426.351413 344.666668 
L 428.033057 343.88924 
L 448.212783 343.88924 
L 449.894426 341.867929 
L 454.939358 341.867929 
L 456.621002 340.313074 
L 458.302646 340.313074 
L 459.984289 332.072344 
L 463.347577 332.072344 
L 465.029221 331.761373 
L 495.29881 331.761373 
L 496.980454 331.294916 
L 500.343741 331.294916 
L 502.025385 330.983945 
L 512.115248 330.983945 
L 513.796892 330.051032 
L 515.478536 328.651663 
L 666.826481 328.651663 
L 666.826481 328.651663 
" style="fill:none;stroke:#e24a33;stroke-linecap:square;stroke-width:1.5;"/>
   </g>
   <g id="line2d_124">
    <path clip-path="url(#pdd8a23b00f)" d="M 54.708125 454.594903 
L 254.823741 454.594903 
L 256.505385 453.972961 
L 258.187029 453.040048 
L 377.583741 453.040048 
L 379.265385 452.262621 
L 387.673604 452.262621 
L 389.355248 450.396795 
L 391.036892 450.085824 
L 392.718536 450.085824 
L 394.40018 449.619367 
L 396.081824 447.287085 
L 397.763467 442.778006 
L 404.490043 442.778006 
L 406.171687 442.467035 
L 461.665933 442.467035 
L 463.347577 441.067666 
L 465.029221 440.445724 
L 466.710865 440.445724 
L 468.392509 440.290239 
L 478.482372 440.290239 
L 480.164015 440.134753 
L 668.508125 440.134753 
L 668.508125 440.134753 
" style="fill:none;stroke:#348abd;stroke-linecap:square;stroke-width:1.5;"/>
   </g>
   <g id="line2d_125">
    <path clip-path="url(#pdd8a23b00f)" d="M 54.708125 454.594903 
L 269.958536 454.594903 
L 271.64018 454.439417 
L 273.321824 453.972961 
L 310.317988 453.972961 
L 311.999632 453.195534 
L 350.67744 453.195534 
L 352.359084 452.884563 
L 354.040728 452.884563 
L 355.722372 452.729077 
L 357.404015 452.729077 
L 359.085659 449.308397 
L 360.767303 448.686455 
L 387.673604 448.686455 
L 389.355248 443.710919 
L 396.081824 443.710919 
L 397.763467 443.088977 
L 402.808399 443.088977 
L 404.490043 442.933492 
L 406.171687 442.622521 
L 407.85333 442.622521 
L 409.534974 441.067666 
L 411.216618 440.912181 
L 417.943193 440.912181 
L 419.624837 439.979268 
L 421.306481 439.979268 
L 422.988125 439.046355 
L 424.669769 437.957956 
L 426.351413 437.957956 
L 428.033057 422.253923 
L 429.7147 399.242072 
L 439.804563 399.242072 
L 441.486207 399.086586 
L 443.167851 391.156827 
L 453.257714 391.156827 
L 454.939358 388.358088 
L 456.621002 388.047117 
L 471.755796 388.047117 
L 473.43744 384.004494 
L 475.119084 367.678519 
L 490.253878 367.678519 
L 491.935522 366.27915 
L 493.617166 356.483564 
L 495.29881 356.483564 
L 496.980454 356.017108 
L 666.826481 356.017108 
L 666.826481 356.017108 
" style="fill:none;stroke:#988ed5;stroke-linecap:square;stroke-width:1.5;"/>
   </g>
   <g id="line2d_126">
    <path clip-path="url(#pdd8a23b00f)" d="M 54.708125 454.594903 
L 320.407851 454.594903 
L 322.089495 454.439417 
L 323.771139 454.439417 
L 325.452783 453.817475 
L 327.134426 453.351019 
L 332.179358 453.351019 
L 333.861002 448.375484 
L 335.542646 446.820629 
L 337.224289 446.820629 
L 338.905933 436.869558 
L 352.359084 436.869558 
L 354.040728 436.403102 
L 364.130591 436.403102 
L 365.812235 419.921641 
L 367.493878 412.924794 
L 377.583741 412.924794 
L 379.265385 412.613823 
L 391.036892 412.613823 
L 392.718536 409.504113 
L 394.40018 409.193142 
L 396.081824 409.193142 
L 397.763467 403.129209 
L 399.445111 402.662752 
L 402.808399 402.662752 
L 404.490043 402.507267 
L 417.943193 402.507267 
L 419.624837 400.019499 
L 421.306481 400.019499 
L 422.988125 383.382553 
L 428.033057 383.382553 
L 429.7147 382.916096 
L 431.396344 382.760611 
L 434.759632 382.760611 
L 436.441276 377.785075 
L 438.12292 377.62959 
L 439.804563 372.032112 
L 441.486207 371.41017 
L 443.167851 371.41017 
L 444.849495 367.523033 
L 458.302646 367.523033 
L 459.984289 366.901092 
L 468.392509 366.901092 
L 470.074152 366.745606 
L 476.800728 366.745606 
L 478.482372 365.812693 
L 481.845659 365.812693 
L 483.527303 363.480411 
L 539.02155 363.480411 
L 540.703193 363.013954 
L 666.826481 363.013954 
L 666.826481 363.013954 
" style="fill:none;stroke:#777777;stroke-linecap:square;stroke-width:1.5;"/>
   </g>
   <g id="line2d_127">
    <path clip-path="url(#pdd8a23b00f)" d="M 54.708125 454.594903 
L 303.591413 454.594903 
L 305.273057 454.128446 
L 306.9547 450.55228 
L 322.089495 450.55228 
L 323.771139 450.085824 
L 365.812235 450.085824 
L 367.493878 447.909027 
L 370.857166 447.909027 
L 372.53881 447.598056 
L 375.902098 447.598056 
L 377.583741 447.287085 
L 385.991961 447.287085 
L 387.673604 446.043201 
L 401.126755 446.043201 
L 402.808399 438.113442 
L 404.490043 438.113442 
L 406.171687 434.537276 
L 407.85333 400.174984 
L 409.534974 399.864014 
L 411.216618 399.864014 
L 412.898262 398.775615 
L 414.579906 396.754304 
L 416.26155 396.754304 
L 417.943193 371.565656 
L 421.306481 371.565656 
L 422.988125 370.321772 
L 424.669769 370.321772 
L 426.351413 368.922403 
L 428.033057 357.416477 
L 429.7147 334.404626 
L 431.396344 333.316228 
L 433.077988 332.5388 
L 434.759632 330.983945 
L 436.441276 330.983945 
L 438.12292 326.00841 
L 439.804563 305.795297 
L 441.486207 305.795297 
L 443.167851 304.862385 
L 444.849495 304.862385 
L 446.531139 301.130733 
L 448.212783 301.130733 
L 449.894426 299.420393 
L 451.57607 299.264907 
L 454.939358 299.264907 
L 456.621002 296.310683 
L 458.302646 295.999712 
L 461.665933 295.999712 
L 463.347577 293.045488 
L 465.029221 292.734517 
L 466.710865 290.246749 
L 485.208947 290.246749 
L 486.890591 285.73767 
L 493.617166 285.73767 
L 495.29881 284.960243 
L 496.980454 283.094417 
L 507.070317 283.094417 
L 508.751961 282.627961 
L 666.826481 282.627961 
L 666.826481 282.627961 
" style="fill:none;stroke:#fbc15e;stroke-linecap:square;stroke-width:1.5;"/>
   </g>
   <g id="line2d_128">
    <path clip-path="url(#pdd8a23b00f)" d="M 54.708125 454.594903 
L 357.404015 454.594903 
L 359.085659 453.195534 
L 380.947029 453.195534 
L 382.628673 452.729077 
L 389.355248 452.729077 
L 391.036892 450.707766 
L 392.718536 447.909027 
L 399.445111 447.909027 
L 401.126755 438.424413 
L 421.306481 438.424413 
L 422.988125 427.8514 
L 426.351413 427.8514 
L 428.033057 417.900329 
L 431.396344 417.589358 
L 433.077988 417.278387 
L 438.12292 417.278387 
L 439.804563 415.257076 
L 444.849495 415.257076 
L 446.531139 415.101591 
L 468.392509 415.101591 
L 470.074152 414.324163 
L 496.980454 414.324163 
L 498.662098 408.726686 
L 518.841824 408.726686 
L 520.523467 405.772462 
L 522.205111 398.464644 
L 668.508125 398.464644 
L 668.508125 398.464644 
" style="fill:none;stroke:#8eba42;stroke-linecap:square;stroke-width:1.5;"/>
   </g>
   <g id="line2d_129">
    <path clip-path="url(#pdd8a23b00f)" d="M 54.708125 454.594903 
L 317.044563 454.594903 
L 318.726207 454.128446 
L 327.134426 454.128446 
L 328.81607 453.817475 
L 330.497714 452.729077 
L 337.224289 452.729077 
L 338.905933 446.043201 
L 357.404015 446.043201 
L 359.085659 445.42126 
L 370.857166 445.42126 
L 372.53881 443.710919 
L 374.220454 432.826936 
L 375.902098 432.515965 
L 412.898262 432.515965 
L 414.579906 431.583052 
L 416.26155 430.339168 
L 424.669769 430.339168 
L 426.351413 428.473342 
L 428.033057 428.473342 
L 429.7147 411.525425 
L 431.396344 411.525425 
L 433.077988 406.549889 
L 434.759632 404.217607 
L 436.441276 400.796926 
L 438.12292 400.796926 
L 439.804563 400.641441 
L 441.486207 398.153673 
L 465.029221 398.153673 
L 466.710865 397.998188 
L 476.800728 397.998188 
L 478.482372 393.955565 
L 480.164015 393.644594 
L 483.527303 393.644594 
L 485.208947 383.382553 
L 512.115248 383.382553 
L 513.796892 382.44964 
L 515.478536 380.583814 
L 666.826481 380.583814 
L 666.826481 380.583814 
" style="fill:none;stroke:#ffb5b8;stroke-linecap:square;stroke-width:1.5;"/>
   </g>
   <g id="line2d_130">
    <path clip-path="url(#pdd8a23b00f)" d="M 54.708125 454.594903 
L 323.771139 454.594903 
L 325.452783 445.576745 
L 327.134426 445.110289 
L 345.632509 445.110289 
L 347.314152 444.954803 
L 350.67744 444.954803 
L 352.359084 440.445724 
L 359.085659 440.445724 
L 360.767303 440.290239 
L 367.493878 440.290239 
L 369.175522 419.455184 
L 385.991961 419.455184 
L 387.673604 418.988728 
L 389.355248 418.988728 
L 391.036892 416.345475 
L 409.534974 416.345475 
L 411.216618 416.189989 
L 412.898262 412.613823 
L 416.26155 412.613823 
L 417.943193 412.458338 
L 424.669769 412.458338 
L 426.351413 409.193142 
L 441.486207 409.193142 
L 443.167851 406.238918 
L 444.849495 400.485955 
L 449.894426 400.485955 
L 451.57607 399.708528 
L 468.392509 399.708528 
L 470.074152 398.775615 
L 471.755796 398.775615 
L 473.43744 394.888478 
L 475.119084 388.824544 
L 481.845659 388.824544 
L 483.527303 366.27915 
L 485.208947 365.812693 
L 486.890591 365.657208 
L 496.980454 365.657208 
L 498.662098 363.635896 
L 502.025385 363.635896 
L 503.707029 363.480411 
L 515.478536 363.480411 
L 517.16018 362.392013 
L 522.205111 362.392013 
L 523.886755 361.4591 
L 666.826481 361.4591 
L 666.826481 361.4591 
" style="fill:none;stroke:#e24a33;stroke-linecap:square;stroke-width:1.5;"/>
   </g>
   <g id="line2d_131">
    <path clip-path="url(#pdd8a23b00f)" d="M 54.708125 454.594903 
L 283.411687 454.594903 
L 285.09333 454.439417 
L 338.905933 454.439417 
L 340.587577 454.283932 
L 392.718536 454.283932 
L 394.40018 453.506505 
L 396.081824 451.796164 
L 411.216618 451.796164 
L 412.898262 451.018737 
L 433.077988 451.018737 
L 434.759632 447.287085 
L 436.441276 447.1316 
L 443.167851 447.1316 
L 444.849495 441.534122 
L 446.531139 441.534122 
L 448.212783 440.290239 
L 449.894426 438.268927 
L 458.302646 438.268927 
L 459.984289 436.403102 
L 461.665933 432.982421 
L 463.347577 432.982421 
L 465.029221 429.872711 
L 466.710865 428.784313 
L 468.392509 413.39125 
L 476.800728 413.39125 
L 478.482372 411.991881 
L 666.826481 411.991881 
L 666.826481 411.991881 
" style="fill:none;stroke:#348abd;stroke-linecap:square;stroke-width:1.5;"/>
   </g>
   <g id="line2d_132">
    <path clip-path="url(#pdd8a23b00f)" d="M 54.708125 454.594903 
L 310.317988 454.594903 
L 313.681276 451.018737 
L 315.36292 445.42126 
L 318.726207 445.42126 
L 320.407851 445.110289 
L 327.134426 445.110289 
L 328.81607 440.756695 
L 374.220454 440.756695 
L 375.902098 440.60121 
L 387.673604 440.60121 
L 387.673604 440.60121 
" style="fill:none;stroke:#988ed5;stroke-linecap:square;stroke-width:1.5;"/>
   </g>
   <g id="patch_9">
    <path d="M 54.708125 463.19325 
L 54.708125 274.029614 
" style="fill:none;stroke:#ffffff;stroke-linecap:square;stroke-linejoin:miter;"/>
   </g>
   <g id="patch_10">
    <path d="M 668.508125 463.19325 
L 668.508125 274.029614 
" style="fill:none;stroke:#ffffff;stroke-linecap:square;stroke-linejoin:miter;"/>
   </g>
   <g id="patch_11">
    <path d="M 54.708125 463.19325 
L 668.508125 463.19325 
" style="fill:none;stroke:#ffffff;stroke-linecap:square;stroke-linejoin:miter;"/>
   </g>
   <g id="patch_12">
    <path d="M 54.708125 274.029614 
L 668.508125 274.029614 
" style="fill:none;stroke:#ffffff;stroke-linecap:square;stroke-linejoin:miter;"/>
   </g>
   <g id="legend_2">
    <g id="patch_13">
     <path d="M 60.308125 411.810864 
L 134.4175 411.810864 
Q 136.0175 411.810864 136.0175 410.210864 
L 136.0175 279.629614 
Q 136.0175 278.029614 134.4175 278.029614 
L 60.308125 278.029614 
Q 58.708125 278.029614 58.708125 279.629614 
L 58.708125 410.210864 
Q 58.708125 411.810864 60.308125 411.810864 
z
" style="fill:#e5e5e5;opacity:0.8;stroke:#cccccc;stroke-linejoin:miter;stroke-width:0.5;"/>
    </g>
    <g id="text_34">
     <!-- WINTER_YEAR -->
     <defs>
      <path d="M 9.8125 72.90625 
L 19.671875 72.90625 
L 19.671875 0 
L 9.8125 0 
z
" id="DejaVuSans-73"/>
      <path d="M 9.8125 72.90625 
L 55.90625 72.90625 
L 55.90625 64.59375 
L 19.671875 64.59375 
L 19.671875 43.015625 
L 54.390625 43.015625 
L 54.390625 34.71875 
L 19.671875 34.71875 
L 19.671875 8.296875 
L 56.78125 8.296875 
L 56.78125 0 
L 9.8125 0 
z
" id="DejaVuSans-69"/>
      <path d="M 44.390625 34.1875 
Q 47.5625 33.109375 50.5625 29.59375 
Q 53.5625 26.078125 56.59375 19.921875 
L 66.609375 0 
L 56 0 
L 46.6875 18.703125 
Q 43.0625 26.03125 39.671875 28.421875 
Q 36.28125 30.8125 30.421875 30.8125 
L 19.671875 30.8125 
L 19.671875 0 
L 9.8125 0 
L 9.8125 72.90625 
L 32.078125 72.90625 
Q 44.578125 72.90625 50.734375 67.671875 
Q 56.890625 62.453125 56.890625 51.90625 
Q 56.890625 45.015625 53.6875 40.46875 
Q 50.484375 35.9375 44.390625 34.1875 
z
M 19.671875 64.796875 
L 19.671875 38.921875 
L 32.078125 38.921875 
Q 39.203125 38.921875 42.84375 42.21875 
Q 46.484375 45.515625 46.484375 51.90625 
Q 46.484375 58.296875 42.84375 61.546875 
Q 39.203125 64.796875 32.078125 64.796875 
z
" id="DejaVuSans-82"/>
      <path d="M 50.984375 -16.609375 
L 50.984375 -23.578125 
L -0.984375 -23.578125 
L -0.984375 -16.609375 
z
" id="DejaVuSans-95"/>
      <path d="M -0.203125 72.90625 
L 10.40625 72.90625 
L 30.609375 42.921875 
L 50.6875 72.90625 
L 61.28125 72.90625 
L 35.5 34.71875 
L 35.5 0 
L 25.59375 0 
L 25.59375 34.71875 
z
" id="DejaVuSans-89"/>
     </defs>
     <g transform="translate(61.908125 288.828051)scale(0.1 -0.1)">
      <use xlink:href="#DejaVuSans-87"/>
      <use x="98.876953" xlink:href="#DejaVuSans-73"/>
      <use x="128.369141" xlink:href="#DejaVuSans-78"/>
      <use x="203.173828" xlink:href="#DejaVuSans-84"/>
      <use x="264.257812" xlink:href="#DejaVuSans-69"/>
      <use x="327.441406" xlink:href="#DejaVuSans-82"/>
      <use x="396.923828" xlink:href="#DejaVuSans-95"/>
      <use x="446.923828" xlink:href="#DejaVuSans-89"/>
      <use x="508.007812" xlink:href="#DejaVuSans-69"/>
      <use x="571.191406" xlink:href="#DejaVuSans-65"/>
      <use x="639.599609" xlink:href="#DejaVuSans-82"/>
     </g>
    </g>
    <g id="line2d_133">
     <path d="M 75.982813 298.464614 
L 91.982813 298.464614 
" style="fill:none;stroke:#e24a33;stroke-linecap:square;stroke-width:1.5;"/>
    </g>
    <g id="line2d_134"/>
    <g id="text_35">
     <!-- 2010 -->
     <g transform="translate(98.382812 301.264614)scale(0.08 -0.08)">
      <use xlink:href="#DejaVuSans-50"/>
      <use x="63.623047" xlink:href="#DejaVuSans-48"/>
      <use x="127.246094" xlink:href="#DejaVuSans-49"/>
      <use x="190.869141" xlink:href="#DejaVuSans-48"/>
     </g>
    </g>
    <g id="line2d_135">
     <path d="M 75.982813 310.207114 
L 91.982813 310.207114 
" style="fill:none;stroke:#348abd;stroke-linecap:square;stroke-width:1.5;"/>
    </g>
    <g id="line2d_136"/>
    <g id="text_36">
     <!-- 2011 -->
     <g transform="translate(98.382812 313.007114)scale(0.08 -0.08)">
      <use xlink:href="#DejaVuSans-50"/>
      <use x="63.623047" xlink:href="#DejaVuSans-48"/>
      <use x="127.246094" xlink:href="#DejaVuSans-49"/>
      <use x="190.869141" xlink:href="#DejaVuSans-49"/>
     </g>
    </g>
    <g id="line2d_137">
     <path d="M 75.982813 321.949614 
L 91.982813 321.949614 
" style="fill:none;stroke:#988ed5;stroke-linecap:square;stroke-width:1.5;"/>
    </g>
    <g id="line2d_138"/>
    <g id="text_37">
     <!-- 2012 -->
     <g transform="translate(98.382812 324.749614)scale(0.08 -0.08)">
      <use xlink:href="#DejaVuSans-50"/>
      <use x="63.623047" xlink:href="#DejaVuSans-48"/>
      <use x="127.246094" xlink:href="#DejaVuSans-49"/>
      <use x="190.869141" xlink:href="#DejaVuSans-50"/>
     </g>
    </g>
    <g id="line2d_139">
     <path d="M 75.982813 333.692114 
L 91.982813 333.692114 
" style="fill:none;stroke:#777777;stroke-linecap:square;stroke-width:1.5;"/>
    </g>
    <g id="line2d_140"/>
    <g id="text_38">
     <!-- 2013 -->
     <g transform="translate(98.382812 336.492114)scale(0.08 -0.08)">
      <use xlink:href="#DejaVuSans-50"/>
      <use x="63.623047" xlink:href="#DejaVuSans-48"/>
      <use x="127.246094" xlink:href="#DejaVuSans-49"/>
      <use x="190.869141" xlink:href="#DejaVuSans-51"/>
     </g>
    </g>
    <g id="line2d_141">
     <path d="M 75.982813 345.434614 
L 91.982813 345.434614 
" style="fill:none;stroke:#fbc15e;stroke-linecap:square;stroke-width:1.5;"/>
    </g>
    <g id="line2d_142"/>
    <g id="text_39">
     <!-- 2014 -->
     <g transform="translate(98.382812 348.234614)scale(0.08 -0.08)">
      <use xlink:href="#DejaVuSans-50"/>
      <use x="63.623047" xlink:href="#DejaVuSans-48"/>
      <use x="127.246094" xlink:href="#DejaVuSans-49"/>
      <use x="190.869141" xlink:href="#DejaVuSans-52"/>
     </g>
    </g>
    <g id="line2d_143">
     <path d="M 75.982813 357.177114 
L 91.982813 357.177114 
" style="fill:none;stroke:#8eba42;stroke-linecap:square;stroke-width:1.5;"/>
    </g>
    <g id="line2d_144"/>
    <g id="text_40">
     <!-- 2015 -->
     <g transform="translate(98.382812 359.977114)scale(0.08 -0.08)">
      <use xlink:href="#DejaVuSans-50"/>
      <use x="63.623047" xlink:href="#DejaVuSans-48"/>
      <use x="127.246094" xlink:href="#DejaVuSans-49"/>
      <use x="190.869141" xlink:href="#DejaVuSans-53"/>
     </g>
    </g>
    <g id="line2d_145">
     <path d="M 75.982813 368.919614 
L 91.982813 368.919614 
" style="fill:none;stroke:#ffb5b8;stroke-linecap:square;stroke-width:1.5;"/>
    </g>
    <g id="line2d_146"/>
    <g id="text_41">
     <!-- 2016 -->
     <g transform="translate(98.382812 371.719614)scale(0.08 -0.08)">
      <use xlink:href="#DejaVuSans-50"/>
      <use x="63.623047" xlink:href="#DejaVuSans-48"/>
      <use x="127.246094" xlink:href="#DejaVuSans-49"/>
      <use x="190.869141" xlink:href="#DejaVuSans-54"/>
     </g>
    </g>
    <g id="line2d_147">
     <path d="M 75.982813 380.662114 
L 91.982813 380.662114 
" style="fill:none;stroke:#e24a33;stroke-linecap:square;stroke-width:1.5;"/>
    </g>
    <g id="line2d_148"/>
    <g id="text_42">
     <!-- 2017 -->
     <g transform="translate(98.382812 383.462114)scale(0.08 -0.08)">
      <use xlink:href="#DejaVuSans-50"/>
      <use x="63.623047" xlink:href="#DejaVuSans-48"/>
      <use x="127.246094" xlink:href="#DejaVuSans-49"/>
      <use x="190.869141" xlink:href="#DejaVuSans-55"/>
     </g>
    </g>
    <g id="line2d_149">
     <path d="M 75.982813 392.404614 
L 91.982813 392.404614 
" style="fill:none;stroke:#348abd;stroke-linecap:square;stroke-width:1.5;"/>
    </g>
    <g id="line2d_150"/>
    <g id="text_43">
     <!-- 2018 -->
     <g transform="translate(98.382812 395.204614)scale(0.08 -0.08)">
      <use xlink:href="#DejaVuSans-50"/>
      <use x="63.623047" xlink:href="#DejaVuSans-48"/>
      <use x="127.246094" xlink:href="#DejaVuSans-49"/>
      <use x="190.869141" xlink:href="#DejaVuSans-56"/>
     </g>
    </g>
    <g id="line2d_151">
     <path d="M 75.982813 404.147114 
L 91.982813 404.147114 
" style="fill:none;stroke:#988ed5;stroke-linecap:square;stroke-width:1.5;"/>
    </g>
    <g id="line2d_152"/>
    <g id="text_44">
     <!-- 2019 -->
     <g transform="translate(98.382812 406.947114)scale(0.08 -0.08)">
      <use xlink:href="#DejaVuSans-50"/>
      <use x="63.623047" xlink:href="#DejaVuSans-48"/>
      <use x="127.246094" xlink:href="#DejaVuSans-49"/>
      <use x="190.869141" xlink:href="#DejaVuSans-57"/>
     </g>
    </g>
   </g>
  </g>
 </g>
 <defs>
  <clipPath id="p32b49be4a4">
   <rect height="189.163636" width="613.8" x="54.708125" y="47.03325"/>
  </clipPath>
  <clipPath id="pdd8a23b00f">
   <rect height="189.163636" width="613.8" x="54.708125" y="274.029614"/>
  </clipPath>
 </defs>
</svg>
