<?xml version="1.0" encoding="utf-8" standalone="no"?>
<!DOCTYPE svg PUBLIC "-//W3C//DTD SVG 1.1//EN"
  "http://www.w3.org/Graphics/SVG/1.1/DTD/svg11.dtd">
<!-- Created with matplotlib (https://matplotlib.org/) -->
<svg height="498.39938pt" version="1.1" viewBox="0 0 681.515 498.39938" width="681.515pt" xmlns="http://www.w3.org/2000/svg" xmlns:xlink="http://www.w3.org/1999/xlink">
 <defs>
  <style type="text/css">
*{stroke-linecap:butt;stroke-linejoin:round;}
  </style>
 </defs>
 <g id="figure_1">
  <g id="patch_1">
   <path d="M 0 498.39938 
L 681.515 498.39938 
L 681.515 0 
L 0 0 
z
" style="fill:#ffffff;"/>
  </g>
  <g id="axes_1">
   <g id="patch_2">
    <path d="M 60.515 220.599886 
L 674.315 220.599886 
L 674.315 31.43625 
L 60.515 31.43625 
z
" style="fill:#e5e5e5;"/>
   </g>
   <g id="matplotlib.axis_1">
    <g id="xtick_1">
     <g id="line2d_1">
      <path clip-path="url(#p93a9a1d6f7)" d="M 60.515 220.599886 
L 60.515 31.43625 
" style="fill:none;stroke:#ffffff;stroke-linecap:square;stroke-width:0.8;"/>
     </g>
     <g id="line2d_2">
      <defs>
       <path d="M 0 0 
L 0 3.5 
" id="m576e2254dc" style="stroke:#555555;stroke-width:0.8;"/>
      </defs>
      <g>
       <use style="fill:#555555;stroke:#555555;stroke-width:0.8;" x="60.515" xlink:href="#m576e2254dc" y="220.599886"/>
      </g>
     </g>
    </g>
    <g id="xtick_2">
     <g id="line2d_3">
      <path clip-path="url(#p93a9a1d6f7)" d="M 92.922231 220.599886 
L 92.922231 31.43625 
" style="fill:none;stroke:#ffffff;stroke-linecap:square;stroke-width:0.8;"/>
     </g>
     <g id="line2d_4">
      <g>
       <use style="fill:#555555;stroke:#555555;stroke-width:0.8;" x="92.922231" xlink:href="#m576e2254dc" y="220.599886"/>
      </g>
     </g>
    </g>
    <g id="xtick_3">
     <g id="line2d_5">
      <path clip-path="url(#p93a9a1d6f7)" d="M 157.208314 220.599886 
L 157.208314 31.43625 
" style="fill:none;stroke:#ffffff;stroke-linecap:square;stroke-width:0.8;"/>
     </g>
     <g id="line2d_6">
      <g>
       <use style="fill:#555555;stroke:#555555;stroke-width:0.8;" x="157.208314" xlink:href="#m576e2254dc" y="220.599886"/>
      </g>
     </g>
    </g>
    <g id="xtick_4">
     <g id="line2d_7">
      <path clip-path="url(#p93a9a1d6f7)" d="M 221.670524 220.599886 
L 221.670524 31.43625 
" style="fill:none;stroke:#ffffff;stroke-linecap:square;stroke-width:0.8;"/>
     </g>
     <g id="line2d_8">
      <g>
       <use style="fill:#555555;stroke:#555555;stroke-width:0.8;" x="221.670524" xlink:href="#m576e2254dc" y="220.599886"/>
      </g>
     </g>
    </g>
    <g id="xtick_5">
     <g id="line2d_9">
      <path clip-path="url(#p93a9a1d6f7)" d="M 285.956607 220.599886 
L 285.956607 31.43625 
" style="fill:none;stroke:#ffffff;stroke-linecap:square;stroke-width:0.8;"/>
     </g>
     <g id="line2d_10">
      <g>
       <use style="fill:#555555;stroke:#555555;stroke-width:0.8;" x="285.956607" xlink:href="#m576e2254dc" y="220.599886"/>
      </g>
     </g>
    </g>
    <g id="xtick_6">
     <g id="line2d_11">
      <path clip-path="url(#p93a9a1d6f7)" d="M 350.24269 220.599886 
L 350.24269 31.43625 
" style="fill:none;stroke:#ffffff;stroke-linecap:square;stroke-width:0.8;"/>
     </g>
     <g id="line2d_12">
      <g>
       <use style="fill:#555555;stroke:#555555;stroke-width:0.8;" x="350.24269" xlink:href="#m576e2254dc" y="220.599886"/>
      </g>
     </g>
    </g>
    <g id="xtick_7">
     <g id="line2d_13">
      <path clip-path="url(#p93a9a1d6f7)" d="M 414.528773 220.599886 
L 414.528773 31.43625 
" style="fill:none;stroke:#ffffff;stroke-linecap:square;stroke-width:0.8;"/>
     </g>
     <g id="line2d_14">
      <g>
       <use style="fill:#555555;stroke:#555555;stroke-width:0.8;" x="414.528773" xlink:href="#m576e2254dc" y="220.599886"/>
      </g>
     </g>
    </g>
    <g id="xtick_8">
     <g id="line2d_15">
      <path clip-path="url(#p93a9a1d6f7)" d="M 478.990983 220.599886 
L 478.990983 31.43625 
" style="fill:none;stroke:#ffffff;stroke-linecap:square;stroke-width:0.8;"/>
     </g>
     <g id="line2d_16">
      <g>
       <use style="fill:#555555;stroke:#555555;stroke-width:0.8;" x="478.990983" xlink:href="#m576e2254dc" y="220.599886"/>
      </g>
     </g>
    </g>
    <g id="xtick_9">
     <g id="line2d_17">
      <path clip-path="url(#p93a9a1d6f7)" d="M 543.277066 220.599886 
L 543.277066 31.43625 
" style="fill:none;stroke:#ffffff;stroke-linecap:square;stroke-width:0.8;"/>
     </g>
     <g id="line2d_18">
      <g>
       <use style="fill:#555555;stroke:#555555;stroke-width:0.8;" x="543.277066" xlink:href="#m576e2254dc" y="220.599886"/>
      </g>
     </g>
    </g>
    <g id="xtick_10">
     <g id="line2d_19">
      <path clip-path="url(#p93a9a1d6f7)" d="M 607.563149 220.599886 
L 607.563149 31.43625 
" style="fill:none;stroke:#ffffff;stroke-linecap:square;stroke-width:0.8;"/>
     </g>
     <g id="line2d_20">
      <g>
       <use style="fill:#555555;stroke:#555555;stroke-width:0.8;" x="607.563149" xlink:href="#m576e2254dc" y="220.599886"/>
      </g>
     </g>
    </g>
    <g id="xtick_11">
     <g id="line2d_21">
      <path clip-path="url(#p93a9a1d6f7)" d="M 671.849232 220.599886 
L 671.849232 31.43625 
" style="fill:none;stroke:#ffffff;stroke-linecap:square;stroke-width:0.8;"/>
     </g>
     <g id="line2d_22">
      <g>
       <use style="fill:#555555;stroke:#555555;stroke-width:0.8;" x="671.849232" xlink:href="#m576e2254dc" y="220.599886"/>
      </g>
     </g>
    </g>
    <g id="xtick_12">
     <g id="line2d_23">
      <path clip-path="url(#p93a9a1d6f7)" d="M 674.315 220.599886 
L 674.315 31.43625 
" style="fill:none;stroke:#ffffff;stroke-linecap:square;stroke-width:0.8;"/>
     </g>
     <g id="line2d_24">
      <g>
       <use style="fill:#555555;stroke:#555555;stroke-width:0.8;" x="674.315" xlink:href="#m576e2254dc" y="220.599886"/>
      </g>
     </g>
    </g>
    <g id="xtick_13">
     <g id="line2d_25">
      <defs>
       <path d="M 0 0 
L 0 2 
" id="maef0b0332d" style="stroke:#555555;stroke-width:0.6;"/>
      </defs>
      <g>
       <use style="fill:#555555;stroke:#555555;stroke-width:0.6;" x="76.718615" xlink:href="#maef0b0332d" y="220.599886"/>
      </g>
     </g>
    </g>
    <g id="xtick_14">
     <g id="line2d_26">
      <g>
       <use style="fill:#555555;stroke:#555555;stroke-width:0.6;" x="108.773594" xlink:href="#maef0b0332d" y="220.599886"/>
      </g>
     </g>
    </g>
    <g id="xtick_15">
     <g id="line2d_27">
      <g>
       <use style="fill:#555555;stroke:#555555;stroke-width:0.6;" x="124.801083" xlink:href="#maef0b0332d" y="220.599886"/>
      </g>
     </g>
    </g>
    <g id="xtick_16">
     <g id="line2d_28">
      <g>
       <use style="fill:#555555;stroke:#555555;stroke-width:0.6;" x="141.004699" xlink:href="#maef0b0332d" y="220.599886"/>
      </g>
     </g>
    </g>
    <g id="xtick_17">
     <g id="line2d_29">
      <g>
       <use style="fill:#555555;stroke:#555555;stroke-width:0.6;" x="173.235803" xlink:href="#maef0b0332d" y="220.599886"/>
      </g>
     </g>
    </g>
    <g id="xtick_18">
     <g id="line2d_30">
      <g>
       <use style="fill:#555555;stroke:#555555;stroke-width:0.6;" x="189.263293" xlink:href="#maef0b0332d" y="220.599886"/>
      </g>
     </g>
    </g>
    <g id="xtick_19">
     <g id="line2d_31">
      <g>
       <use style="fill:#555555;stroke:#555555;stroke-width:0.6;" x="205.466908" xlink:href="#maef0b0332d" y="220.599886"/>
      </g>
     </g>
    </g>
    <g id="xtick_20">
     <g id="line2d_32">
      <g>
       <use style="fill:#555555;stroke:#555555;stroke-width:0.6;" x="237.521887" xlink:href="#maef0b0332d" y="220.599886"/>
      </g>
     </g>
    </g>
    <g id="xtick_21">
     <g id="line2d_33">
      <g>
       <use style="fill:#555555;stroke:#555555;stroke-width:0.6;" x="253.549376" xlink:href="#maef0b0332d" y="220.599886"/>
      </g>
     </g>
    </g>
    <g id="xtick_22">
     <g id="line2d_34">
      <g>
       <use style="fill:#555555;stroke:#555555;stroke-width:0.6;" x="269.752991" xlink:href="#maef0b0332d" y="220.599886"/>
      </g>
     </g>
    </g>
    <g id="xtick_23">
     <g id="line2d_35">
      <g>
       <use style="fill:#555555;stroke:#555555;stroke-width:0.6;" x="301.80797" xlink:href="#maef0b0332d" y="220.599886"/>
      </g>
     </g>
    </g>
    <g id="xtick_24">
     <g id="line2d_36">
      <g>
       <use style="fill:#555555;stroke:#555555;stroke-width:0.6;" x="317.835459" xlink:href="#maef0b0332d" y="220.599886"/>
      </g>
     </g>
    </g>
    <g id="xtick_25">
     <g id="line2d_37">
      <g>
       <use style="fill:#555555;stroke:#555555;stroke-width:0.6;" x="334.039075" xlink:href="#maef0b0332d" y="220.599886"/>
      </g>
     </g>
    </g>
    <g id="xtick_26">
     <g id="line2d_38">
      <g>
       <use style="fill:#555555;stroke:#555555;stroke-width:0.6;" x="366.094053" xlink:href="#maef0b0332d" y="220.599886"/>
      </g>
     </g>
    </g>
    <g id="xtick_27">
     <g id="line2d_39">
      <g>
       <use style="fill:#555555;stroke:#555555;stroke-width:0.6;" x="382.121542" xlink:href="#maef0b0332d" y="220.599886"/>
      </g>
     </g>
    </g>
    <g id="xtick_28">
     <g id="line2d_40">
      <g>
       <use style="fill:#555555;stroke:#555555;stroke-width:0.6;" x="398.325158" xlink:href="#maef0b0332d" y="220.599886"/>
      </g>
     </g>
    </g>
    <g id="xtick_29">
     <g id="line2d_41">
      <g>
       <use style="fill:#555555;stroke:#555555;stroke-width:0.6;" x="430.556263" xlink:href="#maef0b0332d" y="220.599886"/>
      </g>
     </g>
    </g>
    <g id="xtick_30">
     <g id="line2d_42">
      <g>
       <use style="fill:#555555;stroke:#555555;stroke-width:0.6;" x="446.583752" xlink:href="#maef0b0332d" y="220.599886"/>
      </g>
     </g>
    </g>
    <g id="xtick_31">
     <g id="line2d_43">
      <g>
       <use style="fill:#555555;stroke:#555555;stroke-width:0.6;" x="462.787367" xlink:href="#maef0b0332d" y="220.599886"/>
      </g>
     </g>
    </g>
    <g id="xtick_32">
     <g id="line2d_44">
      <g>
       <use style="fill:#555555;stroke:#555555;stroke-width:0.6;" x="494.842346" xlink:href="#maef0b0332d" y="220.599886"/>
      </g>
     </g>
    </g>
    <g id="xtick_33">
     <g id="line2d_45">
      <g>
       <use style="fill:#555555;stroke:#555555;stroke-width:0.6;" x="510.869835" xlink:href="#maef0b0332d" y="220.599886"/>
      </g>
     </g>
    </g>
    <g id="xtick_34">
     <g id="line2d_46">
      <g>
       <use style="fill:#555555;stroke:#555555;stroke-width:0.6;" x="527.073451" xlink:href="#maef0b0332d" y="220.599886"/>
      </g>
     </g>
    </g>
    <g id="xtick_35">
     <g id="line2d_47">
      <g>
       <use style="fill:#555555;stroke:#555555;stroke-width:0.6;" x="559.128429" xlink:href="#maef0b0332d" y="220.599886"/>
      </g>
     </g>
    </g>
    <g id="xtick_36">
     <g id="line2d_48">
      <g>
       <use style="fill:#555555;stroke:#555555;stroke-width:0.6;" x="575.155918" xlink:href="#maef0b0332d" y="220.599886"/>
      </g>
     </g>
    </g>
    <g id="xtick_37">
     <g id="line2d_49">
      <g>
       <use style="fill:#555555;stroke:#555555;stroke-width:0.6;" x="591.359534" xlink:href="#maef0b0332d" y="220.599886"/>
      </g>
     </g>
    </g>
    <g id="xtick_38">
     <g id="line2d_50">
      <g>
       <use style="fill:#555555;stroke:#555555;stroke-width:0.6;" x="623.414512" xlink:href="#maef0b0332d" y="220.599886"/>
      </g>
     </g>
    </g>
    <g id="xtick_39">
     <g id="line2d_51">
      <g>
       <use style="fill:#555555;stroke:#555555;stroke-width:0.6;" x="639.442001" xlink:href="#maef0b0332d" y="220.599886"/>
      </g>
     </g>
    </g>
    <g id="xtick_40">
     <g id="line2d_52">
      <g>
       <use style="fill:#555555;stroke:#555555;stroke-width:0.6;" x="655.645617" xlink:href="#maef0b0332d" y="220.599886"/>
      </g>
     </g>
    </g>
    <g id="text_1">
     <!-- Days -->
     <defs>
      <path d="M 19.671875 64.796875 
L 19.671875 8.109375 
L 31.59375 8.109375 
Q 46.6875 8.109375 53.6875 14.9375 
Q 60.6875 21.78125 60.6875 36.53125 
Q 60.6875 51.171875 53.6875 57.984375 
Q 46.6875 64.796875 31.59375 64.796875 
z
M 9.8125 72.90625 
L 30.078125 72.90625 
Q 51.265625 72.90625 61.171875 64.09375 
Q 71.09375 55.28125 71.09375 36.53125 
Q 71.09375 17.671875 61.125 8.828125 
Q 51.171875 0 30.078125 0 
L 9.8125 0 
z
" id="DejaVuSans-68"/>
      <path d="M 34.28125 27.484375 
Q 23.390625 27.484375 19.1875 25 
Q 14.984375 22.515625 14.984375 16.5 
Q 14.984375 11.71875 18.140625 8.90625 
Q 21.296875 6.109375 26.703125 6.109375 
Q 34.1875 6.109375 38.703125 11.40625 
Q 43.21875 16.703125 43.21875 25.484375 
L 43.21875 27.484375 
z
M 52.203125 31.203125 
L 52.203125 0 
L 43.21875 0 
L 43.21875 8.296875 
Q 40.140625 3.328125 35.546875 0.953125 
Q 30.953125 -1.421875 24.3125 -1.421875 
Q 15.921875 -1.421875 10.953125 3.296875 
Q 6 8.015625 6 15.921875 
Q 6 25.140625 12.171875 29.828125 
Q 18.359375 34.515625 30.609375 34.515625 
L 43.21875 34.515625 
L 43.21875 35.40625 
Q 43.21875 41.609375 39.140625 45 
Q 35.0625 48.390625 27.6875 48.390625 
Q 23 48.390625 18.546875 47.265625 
Q 14.109375 46.140625 10.015625 43.890625 
L 10.015625 52.203125 
Q 14.9375 54.109375 19.578125 55.046875 
Q 24.21875 56 28.609375 56 
Q 40.484375 56 46.34375 49.84375 
Q 52.203125 43.703125 52.203125 31.203125 
z
" id="DejaVuSans-97"/>
      <path d="M 32.171875 -5.078125 
Q 28.375 -14.84375 24.75 -17.8125 
Q 21.140625 -20.796875 15.09375 -20.796875 
L 7.90625 -20.796875 
L 7.90625 -13.28125 
L 13.1875 -13.28125 
Q 16.890625 -13.28125 18.9375 -11.515625 
Q 21 -9.765625 23.484375 -3.21875 
L 25.09375 0.875 
L 2.984375 54.6875 
L 12.5 54.6875 
L 29.59375 11.921875 
L 46.6875 54.6875 
L 56.203125 54.6875 
z
" id="DejaVuSans-121"/>
      <path d="M 44.28125 53.078125 
L 44.28125 44.578125 
Q 40.484375 46.53125 36.375 47.5 
Q 32.28125 48.484375 27.875 48.484375 
Q 21.1875 48.484375 17.84375 46.4375 
Q 14.5 44.390625 14.5 40.28125 
Q 14.5 37.15625 16.890625 35.375 
Q 19.28125 33.59375 26.515625 31.984375 
L 29.59375 31.296875 
Q 39.15625 29.25 43.1875 25.515625 
Q 47.21875 21.78125 47.21875 15.09375 
Q 47.21875 7.46875 41.1875 3.015625 
Q 35.15625 -1.421875 24.609375 -1.421875 
Q 20.21875 -1.421875 15.453125 -0.5625 
Q 10.6875 0.296875 5.421875 2 
L 5.421875 11.28125 
Q 10.40625 8.6875 15.234375 7.390625 
Q 20.0625 6.109375 24.8125 6.109375 
Q 31.15625 6.109375 34.5625 8.28125 
Q 37.984375 10.453125 37.984375 14.40625 
Q 37.984375 18.0625 35.515625 20.015625 
Q 33.0625 21.96875 24.703125 23.78125 
L 21.578125 24.515625 
Q 13.234375 26.265625 9.515625 29.90625 
Q 5.8125 33.546875 5.8125 39.890625 
Q 5.8125 47.609375 11.28125 51.796875 
Q 16.75 56 26.8125 56 
Q 31.78125 56 36.171875 55.265625 
Q 40.578125 54.546875 44.28125 53.078125 
z
" id="DejaVuSans-115"/>
     </defs>
     <g style="fill:#555555;" transform="translate(337.4675 248.236136)scale(0.24 -0.24)">
      <use xlink:href="#DejaVuSans-68"/>
      <use x="77.001953" xlink:href="#DejaVuSans-97"/>
      <use x="138.28125" xlink:href="#DejaVuSans-121"/>
      <use x="197.460938" xlink:href="#DejaVuSans-115"/>
     </g>
    </g>
   </g>
   <g id="matplotlib.axis_2">
    <g id="ytick_1">
     <g id="line2d_53">
      <path clip-path="url(#p93a9a1d6f7)" d="M 60.515 212.001539 
L 674.315 212.001539 
" style="fill:none;stroke:#ffffff;stroke-linecap:square;stroke-width:0.8;"/>
     </g>
     <g id="line2d_54">
      <defs>
       <path d="M 0 0 
L -3.5 0 
" id="m21b71e1ad1" style="stroke:#555555;stroke-width:0.8;"/>
      </defs>
      <g>
       <use style="fill:#555555;stroke:#555555;stroke-width:0.8;" x="60.515" xlink:href="#m21b71e1ad1" y="212.001539"/>
      </g>
     </g>
     <g id="text_2">
      <!-- 0 -->
      <defs>
       <path d="M 31.78125 66.40625 
Q 24.171875 66.40625 20.328125 58.90625 
Q 16.5 51.421875 16.5 36.375 
Q 16.5 21.390625 20.328125 13.890625 
Q 24.171875 6.390625 31.78125 6.390625 
Q 39.453125 6.390625 43.28125 13.890625 
Q 47.125 21.390625 47.125 36.375 
Q 47.125 51.421875 43.28125 58.90625 
Q 39.453125 66.40625 31.78125 66.40625 
z
M 31.78125 74.21875 
Q 44.046875 74.21875 50.515625 64.515625 
Q 56.984375 54.828125 56.984375 36.375 
Q 56.984375 17.96875 50.515625 8.265625 
Q 44.046875 -1.421875 31.78125 -1.421875 
Q 19.53125 -1.421875 13.0625 8.265625 
Q 6.59375 17.96875 6.59375 36.375 
Q 6.59375 54.828125 13.0625 64.515625 
Q 19.53125 74.21875 31.78125 74.21875 
z
" id="DejaVuSans-48"/>
      </defs>
      <g style="fill:#555555;" transform="translate(47.1525 215.800758)scale(0.1 -0.1)">
       <use xlink:href="#DejaVuSans-48"/>
      </g>
     </g>
    </g>
    <g id="ytick_2">
     <g id="line2d_55">
      <path clip-path="url(#p93a9a1d6f7)" d="M 60.515 180.904443 
L 674.315 180.904443 
" style="fill:none;stroke:#ffffff;stroke-linecap:square;stroke-width:0.8;"/>
     </g>
     <g id="line2d_56">
      <g>
       <use style="fill:#555555;stroke:#555555;stroke-width:0.8;" x="60.515" xlink:href="#m21b71e1ad1" y="180.904443"/>
      </g>
     </g>
     <g id="text_3">
      <!-- 20 -->
      <defs>
       <path d="M 19.1875 8.296875 
L 53.609375 8.296875 
L 53.609375 0 
L 7.328125 0 
L 7.328125 8.296875 
Q 12.9375 14.109375 22.625 23.890625 
Q 32.328125 33.6875 34.8125 36.53125 
Q 39.546875 41.84375 41.421875 45.53125 
Q 43.3125 49.21875 43.3125 52.78125 
Q 43.3125 58.59375 39.234375 62.25 
Q 35.15625 65.921875 28.609375 65.921875 
Q 23.96875 65.921875 18.8125 64.3125 
Q 13.671875 62.703125 7.8125 59.421875 
L 7.8125 69.390625 
Q 13.765625 71.78125 18.9375 73 
Q 24.125 74.21875 28.421875 74.21875 
Q 39.75 74.21875 46.484375 68.546875 
Q 53.21875 62.890625 53.21875 53.421875 
Q 53.21875 48.921875 51.53125 44.890625 
Q 49.859375 40.875 45.40625 35.40625 
Q 44.1875 33.984375 37.640625 27.21875 
Q 31.109375 20.453125 19.1875 8.296875 
z
" id="DejaVuSans-50"/>
      </defs>
      <g style="fill:#555555;" transform="translate(40.79 184.703662)scale(0.1 -0.1)">
       <use xlink:href="#DejaVuSans-50"/>
       <use x="63.623047" xlink:href="#DejaVuSans-48"/>
      </g>
     </g>
    </g>
    <g id="ytick_3">
     <g id="line2d_57">
      <path clip-path="url(#p93a9a1d6f7)" d="M 60.515 149.807347 
L 674.315 149.807347 
" style="fill:none;stroke:#ffffff;stroke-linecap:square;stroke-width:0.8;"/>
     </g>
     <g id="line2d_58">
      <g>
       <use style="fill:#555555;stroke:#555555;stroke-width:0.8;" x="60.515" xlink:href="#m21b71e1ad1" y="149.807347"/>
      </g>
     </g>
     <g id="text_4">
      <!-- 40 -->
      <defs>
       <path d="M 37.796875 64.3125 
L 12.890625 25.390625 
L 37.796875 25.390625 
z
M 35.203125 72.90625 
L 47.609375 72.90625 
L 47.609375 25.390625 
L 58.015625 25.390625 
L 58.015625 17.1875 
L 47.609375 17.1875 
L 47.609375 0 
L 37.796875 0 
L 37.796875 17.1875 
L 4.890625 17.1875 
L 4.890625 26.703125 
z
" id="DejaVuSans-52"/>
      </defs>
      <g style="fill:#555555;" transform="translate(40.79 153.606566)scale(0.1 -0.1)">
       <use xlink:href="#DejaVuSans-52"/>
       <use x="63.623047" xlink:href="#DejaVuSans-48"/>
      </g>
     </g>
    </g>
    <g id="ytick_4">
     <g id="line2d_59">
      <path clip-path="url(#p93a9a1d6f7)" d="M 60.515 118.710251 
L 674.315 118.710251 
" style="fill:none;stroke:#ffffff;stroke-linecap:square;stroke-width:0.8;"/>
     </g>
     <g id="line2d_60">
      <g>
       <use style="fill:#555555;stroke:#555555;stroke-width:0.8;" x="60.515" xlink:href="#m21b71e1ad1" y="118.710251"/>
      </g>
     </g>
     <g id="text_5">
      <!-- 60 -->
      <defs>
       <path d="M 33.015625 40.375 
Q 26.375 40.375 22.484375 35.828125 
Q 18.609375 31.296875 18.609375 23.390625 
Q 18.609375 15.53125 22.484375 10.953125 
Q 26.375 6.390625 33.015625 6.390625 
Q 39.65625 6.390625 43.53125 10.953125 
Q 47.40625 15.53125 47.40625 23.390625 
Q 47.40625 31.296875 43.53125 35.828125 
Q 39.65625 40.375 33.015625 40.375 
z
M 52.59375 71.296875 
L 52.59375 62.3125 
Q 48.875 64.0625 45.09375 64.984375 
Q 41.3125 65.921875 37.59375 65.921875 
Q 27.828125 65.921875 22.671875 59.328125 
Q 17.53125 52.734375 16.796875 39.40625 
Q 19.671875 43.65625 24.015625 45.921875 
Q 28.375 48.1875 33.59375 48.1875 
Q 44.578125 48.1875 50.953125 41.515625 
Q 57.328125 34.859375 57.328125 23.390625 
Q 57.328125 12.15625 50.6875 5.359375 
Q 44.046875 -1.421875 33.015625 -1.421875 
Q 20.359375 -1.421875 13.671875 8.265625 
Q 6.984375 17.96875 6.984375 36.375 
Q 6.984375 53.65625 15.1875 63.9375 
Q 23.390625 74.21875 37.203125 74.21875 
Q 40.921875 74.21875 44.703125 73.484375 
Q 48.484375 72.75 52.59375 71.296875 
z
" id="DejaVuSans-54"/>
      </defs>
      <g style="fill:#555555;" transform="translate(40.79 122.509469)scale(0.1 -0.1)">
       <use xlink:href="#DejaVuSans-54"/>
       <use x="63.623047" xlink:href="#DejaVuSans-48"/>
      </g>
     </g>
    </g>
    <g id="ytick_5">
     <g id="line2d_61">
      <path clip-path="url(#p93a9a1d6f7)" d="M 60.515 87.613154 
L 674.315 87.613154 
" style="fill:none;stroke:#ffffff;stroke-linecap:square;stroke-width:0.8;"/>
     </g>
     <g id="line2d_62">
      <g>
       <use style="fill:#555555;stroke:#555555;stroke-width:0.8;" x="60.515" xlink:href="#m21b71e1ad1" y="87.613154"/>
      </g>
     </g>
     <g id="text_6">
      <!-- 80 -->
      <defs>
       <path d="M 31.78125 34.625 
Q 24.75 34.625 20.71875 30.859375 
Q 16.703125 27.09375 16.703125 20.515625 
Q 16.703125 13.921875 20.71875 10.15625 
Q 24.75 6.390625 31.78125 6.390625 
Q 38.8125 6.390625 42.859375 10.171875 
Q 46.921875 13.96875 46.921875 20.515625 
Q 46.921875 27.09375 42.890625 30.859375 
Q 38.875 34.625 31.78125 34.625 
z
M 21.921875 38.8125 
Q 15.578125 40.375 12.03125 44.71875 
Q 8.5 49.078125 8.5 55.328125 
Q 8.5 64.0625 14.71875 69.140625 
Q 20.953125 74.21875 31.78125 74.21875 
Q 42.671875 74.21875 48.875 69.140625 
Q 55.078125 64.0625 55.078125 55.328125 
Q 55.078125 49.078125 51.53125 44.71875 
Q 48 40.375 41.703125 38.8125 
Q 48.828125 37.15625 52.796875 32.3125 
Q 56.78125 27.484375 56.78125 20.515625 
Q 56.78125 9.90625 50.3125 4.234375 
Q 43.84375 -1.421875 31.78125 -1.421875 
Q 19.734375 -1.421875 13.25 4.234375 
Q 6.78125 9.90625 6.78125 20.515625 
Q 6.78125 27.484375 10.78125 32.3125 
Q 14.796875 37.15625 21.921875 38.8125 
z
M 18.3125 54.390625 
Q 18.3125 48.734375 21.84375 45.5625 
Q 25.390625 42.390625 31.78125 42.390625 
Q 38.140625 42.390625 41.71875 45.5625 
Q 45.3125 48.734375 45.3125 54.390625 
Q 45.3125 60.0625 41.71875 63.234375 
Q 38.140625 66.40625 31.78125 66.40625 
Q 25.390625 66.40625 21.84375 63.234375 
Q 18.3125 60.0625 18.3125 54.390625 
z
" id="DejaVuSans-56"/>
      </defs>
      <g style="fill:#555555;" transform="translate(40.79 91.412373)scale(0.1 -0.1)">
       <use xlink:href="#DejaVuSans-56"/>
       <use x="63.623047" xlink:href="#DejaVuSans-48"/>
      </g>
     </g>
    </g>
    <g id="ytick_6">
     <g id="line2d_63">
      <path clip-path="url(#p93a9a1d6f7)" d="M 60.515 56.516058 
L 674.315 56.516058 
" style="fill:none;stroke:#ffffff;stroke-linecap:square;stroke-width:0.8;"/>
     </g>
     <g id="line2d_64">
      <g>
       <use style="fill:#555555;stroke:#555555;stroke-width:0.8;" x="60.515" xlink:href="#m21b71e1ad1" y="56.516058"/>
      </g>
     </g>
     <g id="text_7">
      <!-- 100 -->
      <defs>
       <path d="M 12.40625 8.296875 
L 28.515625 8.296875 
L 28.515625 63.921875 
L 10.984375 60.40625 
L 10.984375 69.390625 
L 28.421875 72.90625 
L 38.28125 72.90625 
L 38.28125 8.296875 
L 54.390625 8.296875 
L 54.390625 0 
L 12.40625 0 
z
" id="DejaVuSans-49"/>
      </defs>
      <g style="fill:#555555;" transform="translate(34.4275 60.315277)scale(0.1 -0.1)">
       <use xlink:href="#DejaVuSans-49"/>
       <use x="63.623047" xlink:href="#DejaVuSans-48"/>
       <use x="127.246094" xlink:href="#DejaVuSans-48"/>
      </g>
     </g>
    </g>
    <g id="text_8">
     <!-- Snow (inches) -->
     <defs>
      <path d="M 53.515625 70.515625 
L 53.515625 60.890625 
Q 47.90625 63.578125 42.921875 64.890625 
Q 37.9375 66.21875 33.296875 66.21875 
Q 25.25 66.21875 20.875 63.09375 
Q 16.5 59.96875 16.5 54.203125 
Q 16.5 49.359375 19.40625 46.890625 
Q 22.3125 44.4375 30.421875 42.921875 
L 36.375 41.703125 
Q 47.40625 39.59375 52.65625 34.296875 
Q 57.90625 29 57.90625 20.125 
Q 57.90625 9.515625 50.796875 4.046875 
Q 43.703125 -1.421875 29.984375 -1.421875 
Q 24.8125 -1.421875 18.96875 -0.25 
Q 13.140625 0.921875 6.890625 3.21875 
L 6.890625 13.375 
Q 12.890625 10.015625 18.65625 8.296875 
Q 24.421875 6.59375 29.984375 6.59375 
Q 38.421875 6.59375 43.015625 9.90625 
Q 47.609375 13.234375 47.609375 19.390625 
Q 47.609375 24.75 44.3125 27.78125 
Q 41.015625 30.8125 33.5 32.328125 
L 27.484375 33.5 
Q 16.453125 35.6875 11.515625 40.375 
Q 6.59375 45.0625 6.59375 53.421875 
Q 6.59375 63.09375 13.40625 68.65625 
Q 20.21875 74.21875 32.171875 74.21875 
Q 37.3125 74.21875 42.625 73.28125 
Q 47.953125 72.359375 53.515625 70.515625 
z
" id="DejaVuSans-83"/>
      <path d="M 54.890625 33.015625 
L 54.890625 0 
L 45.90625 0 
L 45.90625 32.71875 
Q 45.90625 40.484375 42.875 44.328125 
Q 39.84375 48.1875 33.796875 48.1875 
Q 26.515625 48.1875 22.3125 43.546875 
Q 18.109375 38.921875 18.109375 30.90625 
L 18.109375 0 
L 9.078125 0 
L 9.078125 54.6875 
L 18.109375 54.6875 
L 18.109375 46.1875 
Q 21.34375 51.125 25.703125 53.5625 
Q 30.078125 56 35.796875 56 
Q 45.21875 56 50.046875 50.171875 
Q 54.890625 44.34375 54.890625 33.015625 
z
" id="DejaVuSans-110"/>
      <path d="M 30.609375 48.390625 
Q 23.390625 48.390625 19.1875 42.75 
Q 14.984375 37.109375 14.984375 27.296875 
Q 14.984375 17.484375 19.15625 11.84375 
Q 23.34375 6.203125 30.609375 6.203125 
Q 37.796875 6.203125 41.984375 11.859375 
Q 46.1875 17.53125 46.1875 27.296875 
Q 46.1875 37.015625 41.984375 42.703125 
Q 37.796875 48.390625 30.609375 48.390625 
z
M 30.609375 56 
Q 42.328125 56 49.015625 48.375 
Q 55.71875 40.765625 55.71875 27.296875 
Q 55.71875 13.875 49.015625 6.21875 
Q 42.328125 -1.421875 30.609375 -1.421875 
Q 18.84375 -1.421875 12.171875 6.21875 
Q 5.515625 13.875 5.515625 27.296875 
Q 5.515625 40.765625 12.171875 48.375 
Q 18.84375 56 30.609375 56 
z
" id="DejaVuSans-111"/>
      <path d="M 4.203125 54.6875 
L 13.1875 54.6875 
L 24.421875 12.015625 
L 35.59375 54.6875 
L 46.1875 54.6875 
L 57.421875 12.015625 
L 68.609375 54.6875 
L 77.59375 54.6875 
L 63.28125 0 
L 52.6875 0 
L 40.921875 44.828125 
L 29.109375 0 
L 18.5 0 
z
" id="DejaVuSans-119"/>
      <path id="DejaVuSans-32"/>
      <path d="M 31 75.875 
Q 24.46875 64.65625 21.28125 53.65625 
Q 18.109375 42.671875 18.109375 31.390625 
Q 18.109375 20.125 21.3125 9.0625 
Q 24.515625 -2 31 -13.1875 
L 23.1875 -13.1875 
Q 15.875 -1.703125 12.234375 9.375 
Q 8.59375 20.453125 8.59375 31.390625 
Q 8.59375 42.28125 12.203125 53.3125 
Q 15.828125 64.359375 23.1875 75.875 
z
" id="DejaVuSans-40"/>
      <path d="M 9.421875 54.6875 
L 18.40625 54.6875 
L 18.40625 0 
L 9.421875 0 
z
M 9.421875 75.984375 
L 18.40625 75.984375 
L 18.40625 64.59375 
L 9.421875 64.59375 
z
" id="DejaVuSans-105"/>
      <path d="M 48.78125 52.59375 
L 48.78125 44.1875 
Q 44.96875 46.296875 41.140625 47.34375 
Q 37.3125 48.390625 33.40625 48.390625 
Q 24.65625 48.390625 19.8125 42.84375 
Q 14.984375 37.3125 14.984375 27.296875 
Q 14.984375 17.28125 19.8125 11.734375 
Q 24.65625 6.203125 33.40625 6.203125 
Q 37.3125 6.203125 41.140625 7.25 
Q 44.96875 8.296875 48.78125 10.40625 
L 48.78125 2.09375 
Q 45.015625 0.34375 40.984375 -0.53125 
Q 36.96875 -1.421875 32.421875 -1.421875 
Q 20.0625 -1.421875 12.78125 6.34375 
Q 5.515625 14.109375 5.515625 27.296875 
Q 5.515625 40.671875 12.859375 48.328125 
Q 20.21875 56 33.015625 56 
Q 37.15625 56 41.109375 55.140625 
Q 45.0625 54.296875 48.78125 52.59375 
z
" id="DejaVuSans-99"/>
      <path d="M 54.890625 33.015625 
L 54.890625 0 
L 45.90625 0 
L 45.90625 32.71875 
Q 45.90625 40.484375 42.875 44.328125 
Q 39.84375 48.1875 33.796875 48.1875 
Q 26.515625 48.1875 22.3125 43.546875 
Q 18.109375 38.921875 18.109375 30.90625 
L 18.109375 0 
L 9.078125 0 
L 9.078125 75.984375 
L 18.109375 75.984375 
L 18.109375 46.1875 
Q 21.34375 51.125 25.703125 53.5625 
Q 30.078125 56 35.796875 56 
Q 45.21875 56 50.046875 50.171875 
Q 54.890625 44.34375 54.890625 33.015625 
z
" id="DejaVuSans-104"/>
      <path d="M 56.203125 29.59375 
L 56.203125 25.203125 
L 14.890625 25.203125 
Q 15.484375 15.921875 20.484375 11.0625 
Q 25.484375 6.203125 34.421875 6.203125 
Q 39.59375 6.203125 44.453125 7.46875 
Q 49.3125 8.734375 54.109375 11.28125 
L 54.109375 2.78125 
Q 49.265625 0.734375 44.1875 -0.34375 
Q 39.109375 -1.421875 33.890625 -1.421875 
Q 20.796875 -1.421875 13.15625 6.1875 
Q 5.515625 13.8125 5.515625 26.8125 
Q 5.515625 40.234375 12.765625 48.109375 
Q 20.015625 56 32.328125 56 
Q 43.359375 56 49.78125 48.890625 
Q 56.203125 41.796875 56.203125 29.59375 
z
M 47.21875 32.234375 
Q 47.125 39.59375 43.09375 43.984375 
Q 39.0625 48.390625 32.421875 48.390625 
Q 24.90625 48.390625 20.390625 44.140625 
Q 15.875 39.890625 15.1875 32.171875 
z
" id="DejaVuSans-101"/>
      <path d="M 8.015625 75.875 
L 15.828125 75.875 
Q 23.140625 64.359375 26.78125 53.3125 
Q 30.421875 42.28125 30.421875 31.390625 
Q 30.421875 20.453125 26.78125 9.375 
Q 23.140625 -1.703125 15.828125 -13.1875 
L 8.015625 -13.1875 
Q 14.5 -2 17.703125 9.0625 
Q 20.90625 20.125 20.90625 31.390625 
Q 20.90625 42.671875 17.703125 53.65625 
Q 14.5 64.65625 8.015625 75.875 
z
" id="DejaVuSans-41"/>
     </defs>
     <g style="fill:#555555;" transform="translate(25.43625 210.351818)rotate(-90)scale(0.24 -0.24)">
      <use xlink:href="#DejaVuSans-83"/>
      <use x="63.476562" xlink:href="#DejaVuSans-110"/>
      <use x="126.855469" xlink:href="#DejaVuSans-111"/>
      <use x="188.037109" xlink:href="#DejaVuSans-119"/>
      <use x="269.824219" xlink:href="#DejaVuSans-32"/>
      <use x="301.611328" xlink:href="#DejaVuSans-40"/>
      <use x="340.625" xlink:href="#DejaVuSans-105"/>
      <use x="368.408203" xlink:href="#DejaVuSans-110"/>
      <use x="431.787109" xlink:href="#DejaVuSans-99"/>
      <use x="486.767578" xlink:href="#DejaVuSans-104"/>
      <use x="550.146484" xlink:href="#DejaVuSans-101"/>
      <use x="611.669922" xlink:href="#DejaVuSans-115"/>
      <use x="663.769531" xlink:href="#DejaVuSans-41"/>
     </g>
    </g>
   </g>
   <g id="line2d_65">
    <path clip-path="url(#p93a9a1d6f7)" d="M 60.515 212.001539 
L 90.63259 212.001539 
L 90.808716 207.958917 
L 90.984842 207.803431 
L 91.160968 207.181489 
L 91.337095 206.093091 
L 91.689347 206.093091 
L 92.0416 177.794733 
L 93.802862 177.794733 
L 93.978989 177.328277 
L 94.331241 171.886285 
L 94.683494 171.886285 
L 94.85962 149.185405 
L 95.740251 149.185405 
L 95.916377 146.231181 
L 96.26863 146.231181 
L 96.444756 134.880741 
L 96.973135 134.880741 
L 97.325387 131.926516 
L 97.501514 118.243794 
L 98.206019 118.243794 
L 98.558271 102.073304 
L 99.438902 102.073304 
L 99.615029 101.295877 
L 101.728544 101.295877 
L 101.90467 99.274565 
L 102.433049 99.274565 
L 102.609175 97.719711 
L 102.785301 97.719711 
L 102.961428 89.47898 
L 103.31368 89.47898 
L 103.489806 89.168009 
L 106.660079 89.168009 
L 106.836205 88.701553 
L 107.188458 88.701553 
L 107.364584 88.390582 
L 108.421341 88.390582 
L 108.94972 86.0583 
L 124.624957 86.0583 
L 124.624957 86.0583 
" style="fill:none;stroke:#e24a33;stroke-linecap:square;stroke-width:1.5;"/>
   </g>
   <g id="line2d_66">
    <path clip-path="url(#p93a9a1d6f7)" d="M 124.801083 212.001539 
L 145.760108 212.001539 
L 146.288486 210.446684 
L 158.617324 210.446684 
L 158.793451 209.669257 
L 159.674082 209.669257 
L 159.850208 207.803431 
L 160.026334 207.49246 
L 160.202461 207.49246 
L 160.378587 207.026004 
L 160.554713 204.693722 
L 160.730839 200.184643 
L 161.435344 200.184643 
L 161.611471 199.873672 
L 167.423637 199.873672 
L 167.77589 197.85236 
L 167.952016 197.85236 
L 168.128142 197.696875 
L 169.1849 197.696875 
L 169.361026 197.54139 
L 189.087166 197.54139 
L 189.087166 197.54139 
" style="fill:none;stroke:#348abd;stroke-linecap:square;stroke-width:1.5;"/>
   </g>
   <g id="line2d_67">
    <path clip-path="url(#p93a9a1d6f7)" d="M 189.263293 212.001539 
L 211.807453 212.001539 
L 211.98358 211.846054 
L 212.159706 211.379597 
L 216.034484 211.379597 
L 216.21061 210.60217 
L 220.261514 210.60217 
L 220.43764 210.291199 
L 220.613766 210.291199 
L 220.789892 210.135713 
L 220.966019 210.135713 
L 221.142145 206.715033 
L 221.318271 206.093091 
L 224.136291 206.093091 
L 224.312418 201.117556 
L 225.016923 201.117556 
L 225.193049 200.495614 
L 225.721428 200.495614 
L 225.897554 200.340128 
L 226.07368 200.029157 
L 226.249806 200.029157 
L 226.425933 198.474302 
L 226.602059 198.318817 
L 227.306564 198.318817 
L 227.48269 197.385904 
L 227.658816 197.385904 
L 228.011069 195.364593 
L 228.187195 195.364593 
L 228.715574 156.648708 
L 229.596205 156.648708 
L 229.772331 156.493222 
L 229.948458 148.563463 
L 231.005215 148.563463 
L 231.181341 145.764724 
L 231.357468 145.453753 
L 232.942604 145.453753 
L 233.11873 141.411131 
L 233.294857 125.085155 
L 234.879993 125.085155 
L 235.056119 123.685786 
L 235.232245 113.890201 
L 235.408372 113.890201 
L 235.584498 113.423744 
L 253.37325 113.423744 
L 253.37325 113.423744 
" style="fill:none;stroke:#988ed5;stroke-linecap:square;stroke-width:1.5;"/>
   </g>
   <g id="line2d_68">
    <path clip-path="url(#p93a9a1d6f7)" d="M 253.549376 212.001539 
L 281.377324 212.001539 
L 281.553451 211.846054 
L 281.729577 211.846054 
L 282.081829 210.757655 
L 282.610208 210.757655 
L 282.786334 205.78212 
L 282.962461 204.227265 
L 283.138587 204.227265 
L 283.314713 194.276194 
L 284.723723 194.276194 
L 284.899849 193.809738 
L 285.956607 193.809738 
L 286.308859 170.33143 
L 287.365617 170.33143 
L 287.541743 170.020459 
L 288.774627 170.020459 
L 288.950753 166.91075 
L 289.126879 166.599779 
L 289.303006 166.599779 
L 289.479132 160.535845 
L 289.655258 160.069389 
L 290.007511 160.069389 
L 290.183637 159.913903 
L 291.592647 159.913903 
L 291.768773 157.426135 
L 291.9449 157.426135 
L 292.121026 140.789189 
L 292.649405 140.789189 
L 293.001657 140.167247 
L 293.35391 140.167247 
L 293.530036 135.191712 
L 293.706162 135.036226 
L 293.882288 129.438749 
L 294.058415 128.816807 
L 294.234541 128.816807 
L 294.410667 124.92967 
L 295.819677 124.92967 
L 295.995803 124.307728 
L 296.876435 124.307728 
L 297.052561 124.152242 
L 297.757066 124.152242 
L 297.933192 123.21933 
L 298.285445 123.21933 
L 298.461571 120.887047 
L 304.273737 120.887047 
L 304.449864 120.420591 
L 317.659333 120.420591 
L 317.659333 120.420591 
" style="fill:none;stroke:#777777;stroke-linecap:square;stroke-width:1.5;"/>
   </g>
   <g id="line2d_69">
    <path clip-path="url(#p93a9a1d6f7)" d="M 317.835459 212.001539 
L 343.902145 212.001539 
L 344.078271 211.535083 
L 344.254397 207.958917 
L 345.839534 207.958917 
L 346.01566 207.49246 
L 350.418816 207.49246 
L 350.594943 205.315664 
L 350.947195 205.315664 
L 351.123321 205.004693 
L 351.475574 205.004693 
L 351.6517 204.693722 
L 352.532331 204.693722 
L 352.708458 203.449838 
L 354.117468 203.449838 
L 354.293594 195.520078 
L 354.46972 195.520078 
L 354.645846 191.943912 
L 354.821973 157.581621 
L 354.998099 157.27065 
L 355.174225 157.27065 
L 355.350352 156.182252 
L 355.526478 154.16094 
L 355.702604 154.16094 
L 355.87873 128.972292 
L 356.230983 128.972292 
L 356.407109 127.728408 
L 356.583235 127.728408 
L 356.759362 126.329039 
L 356.935488 114.823114 
L 357.111614 91.811262 
L 357.639993 88.390582 
L 357.816119 88.390582 
L 357.992245 83.415046 
L 358.168372 63.201934 
L 358.344498 63.201934 
L 358.520624 62.269021 
L 358.69675 62.269021 
L 358.872877 58.537369 
L 359.049003 58.537369 
L 359.225129 56.827029 
L 359.401255 56.671544 
L 359.753508 56.671544 
L 359.929634 53.717319 
L 360.10576 53.406348 
L 360.458013 53.406348 
L 360.634139 50.452124 
L 360.810265 50.141153 
L 360.986392 47.653386 
L 362.92378 47.653386 
L 363.099907 43.144307 
L 363.804412 43.144307 
L 363.980538 42.366879 
L 364.156664 40.501054 
L 365.213422 40.501054 
L 365.389548 40.034597 
L 381.945416 40.034597 
L 381.945416 40.034597 
" style="fill:none;stroke:#fbc15e;stroke-linecap:square;stroke-width:1.5;"/>
   </g>
   <g id="line2d_70">
    <path clip-path="url(#p93a9a1d6f7)" d="M 382.121542 212.001539 
L 413.824268 212.001539 
L 414.000395 210.60217 
L 416.290036 210.60217 
L 416.466162 210.135713 
L 417.170667 210.135713 
L 417.699046 205.315664 
L 418.227425 205.315664 
L 418.403551 195.831049 
L 420.517066 195.831049 
L 420.693192 185.258036 
L 421.045445 185.258036 
L 421.221571 175.306966 
L 421.573824 174.995995 
L 421.74995 174.685024 
L 422.278329 174.685024 
L 422.454455 172.663713 
L 422.982834 172.663713 
L 423.15896 172.508227 
L 425.448601 172.508227 
L 425.624727 171.7308 
L 428.442747 171.7308 
L 428.618874 166.133322 
L 430.732389 166.133322 
L 430.908515 163.179098 
L 431.084641 155.871281 
L 446.407626 155.871281 
L 446.407626 155.871281 
" style="fill:none;stroke:#8eba42;stroke-linecap:square;stroke-width:1.5;"/>
   </g>
   <g id="line2d_71">
    <path clip-path="url(#p93a9a1d6f7)" d="M 446.583752 212.001539 
L 474.059448 212.001539 
L 474.235574 211.535083 
L 475.116205 211.535083 
L 475.292331 211.224112 
L 475.468458 210.135713 
L 476.172963 210.135713 
L 476.349089 203.449838 
L 478.286478 203.449838 
L 478.462604 202.827896 
L 479.695488 202.827896 
L 479.871614 201.117556 
L 480.04774 190.233572 
L 480.223867 189.922601 
L 484.098644 189.922601 
L 484.450897 187.745804 
L 485.331528 187.745804 
L 485.507654 185.879978 
L 485.68378 185.879978 
L 485.859907 168.932061 
L 486.036033 168.932061 
L 486.388286 161.624243 
L 486.564412 158.203563 
L 486.740538 158.203563 
L 486.916664 158.048077 
L 487.092791 155.56031 
L 489.558558 155.56031 
L 489.734684 155.404824 
L 490.791442 155.404824 
L 490.967568 151.362202 
L 491.143694 151.051231 
L 491.495947 151.051231 
L 491.672073 140.789189 
L 494.490093 140.789189 
L 494.66622 139.856276 
L 494.842346 137.99045 
L 510.693709 137.99045 
L 510.693709 137.99045 
" style="fill:none;stroke:#ffb5b8;stroke-linecap:square;stroke-width:1.5;"/>
   </g>
   <g id="line2d_72">
    <path clip-path="url(#p93a9a1d6f7)" d="M 510.869835 212.001539 
L 539.050036 212.001539 
L 539.226162 202.983381 
L 539.402288 202.516925 
L 541.339677 202.516925 
L 541.515803 202.361439 
L 541.868056 202.361439 
L 542.044182 197.85236 
L 542.748687 197.85236 
L 542.924813 197.696875 
L 543.629319 197.696875 
L 543.805445 176.861821 
L 545.566707 176.861821 
L 545.742834 176.395364 
L 545.91896 176.395364 
L 546.095086 173.752111 
L 548.032475 173.752111 
L 548.208601 173.596625 
L 548.384727 170.020459 
L 548.73698 170.020459 
L 548.913106 169.864974 
L 549.617611 169.864974 
L 549.793737 166.599779 
L 551.378874 166.599779 
L 551.555 163.645555 
L 551.731126 157.892592 
L 552.259505 157.892592 
L 552.435631 157.115164 
L 554.196894 157.115164 
L 554.37302 156.182252 
L 554.549146 156.182252 
L 555.077525 146.231181 
L 555.605904 146.231181 
L 555.78203 123.685786 
L 556.134283 123.063844 
L 557.19104 123.063844 
L 557.367166 121.042533 
L 557.719419 121.042533 
L 557.895545 120.887047 
L 559.128429 120.887047 
L 559.304555 119.798649 
L 559.832934 119.798649 
L 560.00906 118.865736 
L 574.979792 118.865736 
L 574.979792 118.865736 
" style="fill:none;stroke:#e24a33;stroke-linecap:square;stroke-width:1.5;"/>
   </g>
   <g id="line2d_73">
    <path clip-path="url(#p93a9a1d6f7)" d="M 575.155918 212.001539 
L 599.109089 212.001539 
L 599.285215 211.846054 
L 604.921255 211.846054 
L 605.097382 211.690568 
L 610.557296 211.690568 
L 610.733422 210.913141 
L 610.909548 209.202801 
L 612.494684 209.202801 
L 612.670811 208.425373 
L 614.784326 208.425373 
L 614.960452 204.693722 
L 615.136578 204.538236 
L 615.841083 204.538236 
L 616.017209 198.940759 
L 616.193336 198.940759 
L 616.721714 195.675564 
L 617.42622 195.675564 
L 617.602346 193.809738 
L 617.778472 190.389057 
L 617.954598 190.389057 
L 618.130725 187.279348 
L 618.306851 186.190949 
L 618.482977 170.797887 
L 619.363608 170.797887 
L 619.539735 169.398517 
L 639.265875 169.398517 
L 639.265875 169.398517 
" style="fill:none;stroke:#348abd;stroke-linecap:square;stroke-width:1.5;"/>
   </g>
   <g id="line2d_74">
    <path clip-path="url(#p93a9a1d6f7)" d="M 639.442001 212.001539 
L 666.213192 212.001539 
L 666.565445 208.425373 
L 666.741571 202.827896 
L 667.093824 202.827896 
L 667.26995 202.516925 
L 667.974455 202.516925 
L 668.150581 198.163331 
L 672.90599 198.163331 
L 673.082116 198.007846 
L 674.315 198.007846 
L 674.315 198.007846 
" style="fill:none;stroke:#988ed5;stroke-linecap:square;stroke-width:1.5;"/>
   </g>
   <g id="patch_3">
    <path d="M 60.515 220.599886 
L 60.515 31.43625 
" style="fill:none;stroke:#ffffff;stroke-linecap:square;stroke-linejoin:miter;"/>
   </g>
   <g id="patch_4">
    <path d="M 674.315 220.599886 
L 674.315 31.43625 
" style="fill:none;stroke:#ffffff;stroke-linecap:square;stroke-linejoin:miter;"/>
   </g>
   <g id="patch_5">
    <path d="M 60.515 220.599886 
L 674.315 220.599886 
" style="fill:none;stroke:#ffffff;stroke-linecap:square;stroke-linejoin:miter;"/>
   </g>
   <g id="patch_6">
    <path d="M 60.515 31.43625 
L 674.315 31.43625 
" style="fill:none;stroke:#ffffff;stroke-linecap:square;stroke-linejoin:miter;"/>
   </g>
   <g id="text_9">
    <!-- Cumulative Snow per Winter Season (July-June) -->
    <defs>
     <path d="M 64.40625 67.28125 
L 64.40625 56.890625 
Q 59.421875 61.53125 53.78125 63.8125 
Q 48.140625 66.109375 41.796875 66.109375 
Q 29.296875 66.109375 22.65625 58.46875 
Q 16.015625 50.828125 16.015625 36.375 
Q 16.015625 21.96875 22.65625 14.328125 
Q 29.296875 6.6875 41.796875 6.6875 
Q 48.140625 6.6875 53.78125 8.984375 
Q 59.421875 11.28125 64.40625 15.921875 
L 64.40625 5.609375 
Q 59.234375 2.09375 53.4375 0.328125 
Q 47.65625 -1.421875 41.21875 -1.421875 
Q 24.65625 -1.421875 15.125 8.703125 
Q 5.609375 18.84375 5.609375 36.375 
Q 5.609375 53.953125 15.125 64.078125 
Q 24.65625 74.21875 41.21875 74.21875 
Q 47.75 74.21875 53.53125 72.484375 
Q 59.328125 70.75 64.40625 67.28125 
z
" id="DejaVuSans-67"/>
     <path d="M 8.5 21.578125 
L 8.5 54.6875 
L 17.484375 54.6875 
L 17.484375 21.921875 
Q 17.484375 14.15625 20.5 10.265625 
Q 23.53125 6.390625 29.59375 6.390625 
Q 36.859375 6.390625 41.078125 11.03125 
Q 45.3125 15.671875 45.3125 23.6875 
L 45.3125 54.6875 
L 54.296875 54.6875 
L 54.296875 0 
L 45.3125 0 
L 45.3125 8.40625 
Q 42.046875 3.421875 37.71875 1 
Q 33.40625 -1.421875 27.6875 -1.421875 
Q 18.265625 -1.421875 13.375 4.4375 
Q 8.5 10.296875 8.5 21.578125 
z
M 31.109375 56 
z
" id="DejaVuSans-117"/>
     <path d="M 52 44.1875 
Q 55.375 50.25 60.0625 53.125 
Q 64.75 56 71.09375 56 
Q 79.640625 56 84.28125 50.015625 
Q 88.921875 44.046875 88.921875 33.015625 
L 88.921875 0 
L 79.890625 0 
L 79.890625 32.71875 
Q 79.890625 40.578125 77.09375 44.375 
Q 74.3125 48.1875 68.609375 48.1875 
Q 61.625 48.1875 57.5625 43.546875 
Q 53.515625 38.921875 53.515625 30.90625 
L 53.515625 0 
L 44.484375 0 
L 44.484375 32.71875 
Q 44.484375 40.625 41.703125 44.40625 
Q 38.921875 48.1875 33.109375 48.1875 
Q 26.21875 48.1875 22.15625 43.53125 
Q 18.109375 38.875 18.109375 30.90625 
L 18.109375 0 
L 9.078125 0 
L 9.078125 54.6875 
L 18.109375 54.6875 
L 18.109375 46.1875 
Q 21.1875 51.21875 25.484375 53.609375 
Q 29.78125 56 35.6875 56 
Q 41.65625 56 45.828125 52.96875 
Q 50 49.953125 52 44.1875 
z
" id="DejaVuSans-109"/>
     <path d="M 9.421875 75.984375 
L 18.40625 75.984375 
L 18.40625 0 
L 9.421875 0 
z
" id="DejaVuSans-108"/>
     <path d="M 18.3125 70.21875 
L 18.3125 54.6875 
L 36.8125 54.6875 
L 36.8125 47.703125 
L 18.3125 47.703125 
L 18.3125 18.015625 
Q 18.3125 11.328125 20.140625 9.421875 
Q 21.96875 7.515625 27.59375 7.515625 
L 36.8125 7.515625 
L 36.8125 0 
L 27.59375 0 
Q 17.1875 0 13.234375 3.875 
Q 9.28125 7.765625 9.28125 18.015625 
L 9.28125 47.703125 
L 2.6875 47.703125 
L 2.6875 54.6875 
L 9.28125 54.6875 
L 9.28125 70.21875 
z
" id="DejaVuSans-116"/>
     <path d="M 2.984375 54.6875 
L 12.5 54.6875 
L 29.59375 8.796875 
L 46.6875 54.6875 
L 56.203125 54.6875 
L 35.6875 0 
L 23.484375 0 
z
" id="DejaVuSans-118"/>
     <path d="M 18.109375 8.203125 
L 18.109375 -20.796875 
L 9.078125 -20.796875 
L 9.078125 54.6875 
L 18.109375 54.6875 
L 18.109375 46.390625 
Q 20.953125 51.265625 25.265625 53.625 
Q 29.59375 56 35.59375 56 
Q 45.5625 56 51.78125 48.09375 
Q 58.015625 40.1875 58.015625 27.296875 
Q 58.015625 14.40625 51.78125 6.484375 
Q 45.5625 -1.421875 35.59375 -1.421875 
Q 29.59375 -1.421875 25.265625 0.953125 
Q 20.953125 3.328125 18.109375 8.203125 
z
M 48.6875 27.296875 
Q 48.6875 37.203125 44.609375 42.84375 
Q 40.53125 48.484375 33.40625 48.484375 
Q 26.265625 48.484375 22.1875 42.84375 
Q 18.109375 37.203125 18.109375 27.296875 
Q 18.109375 17.390625 22.1875 11.75 
Q 26.265625 6.109375 33.40625 6.109375 
Q 40.53125 6.109375 44.609375 11.75 
Q 48.6875 17.390625 48.6875 27.296875 
z
" id="DejaVuSans-112"/>
     <path d="M 41.109375 46.296875 
Q 39.59375 47.171875 37.8125 47.578125 
Q 36.03125 48 33.890625 48 
Q 26.265625 48 22.1875 43.046875 
Q 18.109375 38.09375 18.109375 28.8125 
L 18.109375 0 
L 9.078125 0 
L 9.078125 54.6875 
L 18.109375 54.6875 
L 18.109375 46.1875 
Q 20.953125 51.171875 25.484375 53.578125 
Q 30.03125 56 36.53125 56 
Q 37.453125 56 38.578125 55.875 
Q 39.703125 55.765625 41.0625 55.515625 
z
" id="DejaVuSans-114"/>
     <path d="M 3.328125 72.90625 
L 13.28125 72.90625 
L 28.609375 11.28125 
L 43.890625 72.90625 
L 54.984375 72.90625 
L 70.3125 11.28125 
L 85.59375 72.90625 
L 95.609375 72.90625 
L 77.296875 0 
L 64.890625 0 
L 49.515625 63.28125 
L 33.984375 0 
L 21.578125 0 
z
" id="DejaVuSans-87"/>
     <path d="M 9.8125 72.90625 
L 19.671875 72.90625 
L 19.671875 5.078125 
Q 19.671875 -8.109375 14.671875 -14.0625 
Q 9.671875 -20.015625 -1.421875 -20.015625 
L -5.171875 -20.015625 
L -5.171875 -11.71875 
L -2.09375 -11.71875 
Q 4.4375 -11.71875 7.125 -8.046875 
Q 9.8125 -4.390625 9.8125 5.078125 
z
" id="DejaVuSans-74"/>
     <path d="M 4.890625 31.390625 
L 31.203125 31.390625 
L 31.203125 23.390625 
L 4.890625 23.390625 
z
" id="DejaVuSans-45"/>
    </defs>
    <g transform="translate(82.750625 25.43625)scale(0.24 -0.24)">
     <use xlink:href="#DejaVuSans-67"/>
     <use x="69.824219" xlink:href="#DejaVuSans-117"/>
     <use x="133.203125" xlink:href="#DejaVuSans-109"/>
     <use x="230.615234" xlink:href="#DejaVuSans-117"/>
     <use x="293.994141" xlink:href="#DejaVuSans-108"/>
     <use x="321.777344" xlink:href="#DejaVuSans-97"/>
     <use x="383.056641" xlink:href="#DejaVuSans-116"/>
     <use x="422.265625" xlink:href="#DejaVuSans-105"/>
     <use x="450.048828" xlink:href="#DejaVuSans-118"/>
     <use x="509.228516" xlink:href="#DejaVuSans-101"/>
     <use x="570.751953" xlink:href="#DejaVuSans-32"/>
     <use x="602.539062" xlink:href="#DejaVuSans-83"/>
     <use x="666.015625" xlink:href="#DejaVuSans-110"/>
     <use x="729.394531" xlink:href="#DejaVuSans-111"/>
     <use x="790.576172" xlink:href="#DejaVuSans-119"/>
     <use x="872.363281" xlink:href="#DejaVuSans-32"/>
     <use x="904.150391" xlink:href="#DejaVuSans-112"/>
     <use x="967.626953" xlink:href="#DejaVuSans-101"/>
     <use x="1029.150391" xlink:href="#DejaVuSans-114"/>
     <use x="1070.263672" xlink:href="#DejaVuSans-32"/>
     <use x="1102.050781" xlink:href="#DejaVuSans-87"/>
     <use x="1200.896484" xlink:href="#DejaVuSans-105"/>
     <use x="1228.679688" xlink:href="#DejaVuSans-110"/>
     <use x="1292.058594" xlink:href="#DejaVuSans-116"/>
     <use x="1331.267578" xlink:href="#DejaVuSans-101"/>
     <use x="1392.791016" xlink:href="#DejaVuSans-114"/>
     <use x="1433.904297" xlink:href="#DejaVuSans-32"/>
     <use x="1465.691406" xlink:href="#DejaVuSans-83"/>
     <use x="1529.167969" xlink:href="#DejaVuSans-101"/>
     <use x="1590.691406" xlink:href="#DejaVuSans-97"/>
     <use x="1651.970703" xlink:href="#DejaVuSans-115"/>
     <use x="1704.070312" xlink:href="#DejaVuSans-111"/>
     <use x="1765.251953" xlink:href="#DejaVuSans-110"/>
     <use x="1828.630859" xlink:href="#DejaVuSans-32"/>
     <use x="1860.417969" xlink:href="#DejaVuSans-40"/>
     <use x="1899.431641" xlink:href="#DejaVuSans-74"/>
     <use x="1928.923828" xlink:href="#DejaVuSans-117"/>
     <use x="1992.302734" xlink:href="#DejaVuSans-108"/>
     <use x="2020.085938" xlink:href="#DejaVuSans-121"/>
     <use x="2079.25" xlink:href="#DejaVuSans-45"/>
     <use x="2115.412109" xlink:href="#DejaVuSans-74"/>
     <use x="2144.904297" xlink:href="#DejaVuSans-117"/>
     <use x="2208.283203" xlink:href="#DejaVuSans-110"/>
     <use x="2271.662109" xlink:href="#DejaVuSans-101"/>
     <use x="2333.185547" xlink:href="#DejaVuSans-41"/>
    </g>
   </g>
   <g id="legend_1">
    <g id="patch_7">
     <path d="M 622.755 155.26125 
L 668.715 155.26125 
Q 670.315 155.26125 670.315 153.66125 
L 670.315 37.03625 
Q 670.315 35.43625 668.715 35.43625 
L 622.755 35.43625 
Q 621.155 35.43625 621.155 37.03625 
L 621.155 153.66125 
Q 621.155 155.26125 622.755 155.26125 
z
" style="fill:#e5e5e5;opacity:0.8;stroke:#cccccc;stroke-linejoin:miter;stroke-width:0.5;"/>
    </g>
    <g id="line2d_75">
     <path d="M 624.355 41.915 
L 640.355 41.915 
" style="fill:none;stroke:#e24a33;stroke-linecap:square;stroke-width:1.5;"/>
    </g>
    <g id="line2d_76"/>
    <g id="text_10">
     <!-- 2010 -->
     <g transform="translate(646.755 44.715)scale(0.08 -0.08)">
      <use xlink:href="#DejaVuSans-50"/>
      <use x="63.623047" xlink:href="#DejaVuSans-48"/>
      <use x="127.246094" xlink:href="#DejaVuSans-49"/>
      <use x="190.869141" xlink:href="#DejaVuSans-48"/>
     </g>
    </g>
    <g id="line2d_77">
     <path d="M 624.355 53.6575 
L 640.355 53.6575 
" style="fill:none;stroke:#348abd;stroke-linecap:square;stroke-width:1.5;"/>
    </g>
    <g id="line2d_78"/>
    <g id="text_11">
     <!-- 2011 -->
     <g transform="translate(646.755 56.4575)scale(0.08 -0.08)">
      <use xlink:href="#DejaVuSans-50"/>
      <use x="63.623047" xlink:href="#DejaVuSans-48"/>
      <use x="127.246094" xlink:href="#DejaVuSans-49"/>
      <use x="190.869141" xlink:href="#DejaVuSans-49"/>
     </g>
    </g>
    <g id="line2d_79">
     <path d="M 624.355 65.4 
L 640.355 65.4 
" style="fill:none;stroke:#988ed5;stroke-linecap:square;stroke-width:1.5;"/>
    </g>
    <g id="line2d_80"/>
    <g id="text_12">
     <!-- 2012 -->
     <g transform="translate(646.755 68.2)scale(0.08 -0.08)">
      <use xlink:href="#DejaVuSans-50"/>
      <use x="63.623047" xlink:href="#DejaVuSans-48"/>
      <use x="127.246094" xlink:href="#DejaVuSans-49"/>
      <use x="190.869141" xlink:href="#DejaVuSans-50"/>
     </g>
    </g>
    <g id="line2d_81">
     <path d="M 624.355 77.1425 
L 640.355 77.1425 
" style="fill:none;stroke:#777777;stroke-linecap:square;stroke-width:1.5;"/>
    </g>
    <g id="line2d_82"/>
    <g id="text_13">
     <!-- 2013 -->
     <defs>
      <path d="M 40.578125 39.3125 
Q 47.65625 37.796875 51.625 33 
Q 55.609375 28.21875 55.609375 21.1875 
Q 55.609375 10.40625 48.1875 4.484375 
Q 40.765625 -1.421875 27.09375 -1.421875 
Q 22.515625 -1.421875 17.65625 -0.515625 
Q 12.796875 0.390625 7.625 2.203125 
L 7.625 11.71875 
Q 11.71875 9.328125 16.59375 8.109375 
Q 21.484375 6.890625 26.8125 6.890625 
Q 36.078125 6.890625 40.9375 10.546875 
Q 45.796875 14.203125 45.796875 21.1875 
Q 45.796875 27.640625 41.28125 31.265625 
Q 36.765625 34.90625 28.71875 34.90625 
L 20.21875 34.90625 
L 20.21875 43.015625 
L 29.109375 43.015625 
Q 36.375 43.015625 40.234375 45.921875 
Q 44.09375 48.828125 44.09375 54.296875 
Q 44.09375 59.90625 40.109375 62.90625 
Q 36.140625 65.921875 28.71875 65.921875 
Q 24.65625 65.921875 20.015625 65.03125 
Q 15.375 64.15625 9.8125 62.3125 
L 9.8125 71.09375 
Q 15.4375 72.65625 20.34375 73.4375 
Q 25.25 74.21875 29.59375 74.21875 
Q 40.828125 74.21875 47.359375 69.109375 
Q 53.90625 64.015625 53.90625 55.328125 
Q 53.90625 49.265625 50.4375 45.09375 
Q 46.96875 40.921875 40.578125 39.3125 
z
" id="DejaVuSans-51"/>
     </defs>
     <g transform="translate(646.755 79.9425)scale(0.08 -0.08)">
      <use xlink:href="#DejaVuSans-50"/>
      <use x="63.623047" xlink:href="#DejaVuSans-48"/>
      <use x="127.246094" xlink:href="#DejaVuSans-49"/>
      <use x="190.869141" xlink:href="#DejaVuSans-51"/>
     </g>
    </g>
    <g id="line2d_83">
     <path d="M 624.355 88.885 
L 640.355 88.885 
" style="fill:none;stroke:#fbc15e;stroke-linecap:square;stroke-width:1.5;"/>
    </g>
    <g id="line2d_84"/>
    <g id="text_14">
     <!-- 2014 -->
     <g transform="translate(646.755 91.685)scale(0.08 -0.08)">
      <use xlink:href="#DejaVuSans-50"/>
      <use x="63.623047" xlink:href="#DejaVuSans-48"/>
      <use x="127.246094" xlink:href="#DejaVuSans-49"/>
      <use x="190.869141" xlink:href="#DejaVuSans-52"/>
     </g>
    </g>
    <g id="line2d_85">
     <path d="M 624.355 100.6275 
L 640.355 100.6275 
" style="fill:none;stroke:#8eba42;stroke-linecap:square;stroke-width:1.5;"/>
    </g>
    <g id="line2d_86"/>
    <g id="text_15">
     <!-- 2015 -->
     <defs>
      <path d="M 10.796875 72.90625 
L 49.515625 72.90625 
L 49.515625 64.59375 
L 19.828125 64.59375 
L 19.828125 46.734375 
Q 21.96875 47.46875 24.109375 47.828125 
Q 26.265625 48.1875 28.421875 48.1875 
Q 40.625 48.1875 47.75 41.5 
Q 54.890625 34.8125 54.890625 23.390625 
Q 54.890625 11.625 47.5625 5.09375 
Q 40.234375 -1.421875 26.90625 -1.421875 
Q 22.3125 -1.421875 17.546875 -0.640625 
Q 12.796875 0.140625 7.71875 1.703125 
L 7.71875 11.625 
Q 12.109375 9.234375 16.796875 8.0625 
Q 21.484375 6.890625 26.703125 6.890625 
Q 35.15625 6.890625 40.078125 11.328125 
Q 45.015625 15.765625 45.015625 23.390625 
Q 45.015625 31 40.078125 35.4375 
Q 35.15625 39.890625 26.703125 39.890625 
Q 22.75 39.890625 18.8125 39.015625 
Q 14.890625 38.140625 10.796875 36.28125 
z
" id="DejaVuSans-53"/>
     </defs>
     <g transform="translate(646.755 103.4275)scale(0.08 -0.08)">
      <use xlink:href="#DejaVuSans-50"/>
      <use x="63.623047" xlink:href="#DejaVuSans-48"/>
      <use x="127.246094" xlink:href="#DejaVuSans-49"/>
      <use x="190.869141" xlink:href="#DejaVuSans-53"/>
     </g>
    </g>
    <g id="line2d_87">
     <path d="M 624.355 112.37 
L 640.355 112.37 
" style="fill:none;stroke:#ffb5b8;stroke-linecap:square;stroke-width:1.5;"/>
    </g>
    <g id="line2d_88"/>
    <g id="text_16">
     <!-- 2016 -->
     <g transform="translate(646.755 115.17)scale(0.08 -0.08)">
      <use xlink:href="#DejaVuSans-50"/>
      <use x="63.623047" xlink:href="#DejaVuSans-48"/>
      <use x="127.246094" xlink:href="#DejaVuSans-49"/>
      <use x="190.869141" xlink:href="#DejaVuSans-54"/>
     </g>
    </g>
    <g id="line2d_89">
     <path d="M 624.355 124.1125 
L 640.355 124.1125 
" style="fill:none;stroke:#e24a33;stroke-linecap:square;stroke-width:1.5;"/>
    </g>
    <g id="line2d_90"/>
    <g id="text_17">
     <!-- 2017 -->
     <defs>
      <path d="M 8.203125 72.90625 
L 55.078125 72.90625 
L 55.078125 68.703125 
L 28.609375 0 
L 18.3125 0 
L 43.21875 64.59375 
L 8.203125 64.59375 
z
" id="DejaVuSans-55"/>
     </defs>
     <g transform="translate(646.755 126.9125)scale(0.08 -0.08)">
      <use xlink:href="#DejaVuSans-50"/>
      <use x="63.623047" xlink:href="#DejaVuSans-48"/>
      <use x="127.246094" xlink:href="#DejaVuSans-49"/>
      <use x="190.869141" xlink:href="#DejaVuSans-55"/>
     </g>
    </g>
    <g id="line2d_91">
     <path d="M 624.355 135.855 
L 640.355 135.855 
" style="fill:none;stroke:#348abd;stroke-linecap:square;stroke-width:1.5;"/>
    </g>
    <g id="line2d_92"/>
    <g id="text_18">
     <!-- 2018 -->
     <g transform="translate(646.755 138.655)scale(0.08 -0.08)">
      <use xlink:href="#DejaVuSans-50"/>
      <use x="63.623047" xlink:href="#DejaVuSans-48"/>
      <use x="127.246094" xlink:href="#DejaVuSans-49"/>
      <use x="190.869141" xlink:href="#DejaVuSans-56"/>
     </g>
    </g>
    <g id="line2d_93">
     <path d="M 624.355 147.5975 
L 640.355 147.5975 
" style="fill:none;stroke:#988ed5;stroke-linecap:square;stroke-width:1.5;"/>
    </g>
    <g id="line2d_94"/>
    <g id="text_19">
     <!-- 2019 -->
     <defs>
      <path d="M 10.984375 1.515625 
L 10.984375 10.5 
Q 14.703125 8.734375 18.5 7.8125 
Q 22.3125 6.890625 25.984375 6.890625 
Q 35.75 6.890625 40.890625 13.453125 
Q 46.046875 20.015625 46.78125 33.40625 
Q 43.953125 29.203125 39.59375 26.953125 
Q 35.25 24.703125 29.984375 24.703125 
Q 19.046875 24.703125 12.671875 31.3125 
Q 6.296875 37.9375 6.296875 49.421875 
Q 6.296875 60.640625 12.9375 67.421875 
Q 19.578125 74.21875 30.609375 74.21875 
Q 43.265625 74.21875 49.921875 64.515625 
Q 56.59375 54.828125 56.59375 36.375 
Q 56.59375 19.140625 48.40625 8.859375 
Q 40.234375 -1.421875 26.421875 -1.421875 
Q 22.703125 -1.421875 18.890625 -0.6875 
Q 15.09375 0.046875 10.984375 1.515625 
z
M 30.609375 32.421875 
Q 37.25 32.421875 41.125 36.953125 
Q 45.015625 41.5 45.015625 49.421875 
Q 45.015625 57.28125 41.125 61.84375 
Q 37.25 66.40625 30.609375 66.40625 
Q 23.96875 66.40625 20.09375 61.84375 
Q 16.21875 57.28125 16.21875 49.421875 
Q 16.21875 41.5 20.09375 36.953125 
Q 23.96875 32.421875 30.609375 32.421875 
z
" id="DejaVuSans-57"/>
     </defs>
     <g transform="translate(646.755 150.3975)scale(0.08 -0.08)">
      <use xlink:href="#DejaVuSans-50"/>
      <use x="63.623047" xlink:href="#DejaVuSans-48"/>
      <use x="127.246094" xlink:href="#DejaVuSans-49"/>
      <use x="190.869141" xlink:href="#DejaVuSans-57"/>
     </g>
    </g>
   </g>
  </g>
  <g id="axes_2">
   <g id="patch_8">
    <path d="M 60.515 447.59625 
L 674.315 447.59625 
L 674.315 258.432614 
L 60.515 258.432614 
z
" style="fill:#e5e5e5;"/>
   </g>
   <g id="matplotlib.axis_3">
    <g id="xtick_41">
     <g id="line2d_95">
      <path clip-path="url(#p09a27f7f5d)" d="M 60.515 447.59625 
L 60.515 258.432614 
" style="fill:none;stroke:#ffffff;stroke-linecap:square;stroke-width:0.8;"/>
     </g>
     <g id="line2d_96">
      <g>
       <use style="fill:#555555;stroke:#555555;stroke-width:0.8;" x="60.515" xlink:href="#m576e2254dc" y="447.59625"/>
      </g>
     </g>
     <g id="text_20">
      <!-- Jul 1 -->
      <g style="fill:#555555;" transform="translate(51.17096 477.498302)rotate(-70)scale(0.1 -0.1)">
       <use xlink:href="#DejaVuSans-74"/>
       <use x="29.492188" xlink:href="#DejaVuSans-117"/>
       <use x="92.871094" xlink:href="#DejaVuSans-108"/>
       <use x="120.654297" xlink:href="#DejaVuSans-32"/>
       <use x="152.441406" xlink:href="#DejaVuSans-49"/>
      </g>
     </g>
    </g>
    <g id="xtick_42">
     <g id="line2d_97">
      <path clip-path="url(#p09a27f7f5d)" d="M 144.597192 447.59625 
L 144.597192 258.432614 
" style="fill:none;stroke:#ffffff;stroke-linecap:square;stroke-width:0.8;"/>
     </g>
     <g id="line2d_98">
      <g>
       <use style="fill:#555555;stroke:#555555;stroke-width:0.8;" x="144.597192" xlink:href="#m576e2254dc" y="447.59625"/>
      </g>
     </g>
     <g id="text_21">
      <!-- Aug 20 -->
      <defs>
       <path d="M 34.1875 63.1875 
L 20.796875 26.90625 
L 47.609375 26.90625 
z
M 28.609375 72.90625 
L 39.796875 72.90625 
L 67.578125 0 
L 57.328125 0 
L 50.6875 18.703125 
L 17.828125 18.703125 
L 11.1875 0 
L 0.78125 0 
z
" id="DejaVuSans-65"/>
       <path d="M 45.40625 27.984375 
Q 45.40625 37.75 41.375 43.109375 
Q 37.359375 48.484375 30.078125 48.484375 
Q 22.859375 48.484375 18.828125 43.109375 
Q 14.796875 37.75 14.796875 27.984375 
Q 14.796875 18.265625 18.828125 12.890625 
Q 22.859375 7.515625 30.078125 7.515625 
Q 37.359375 7.515625 41.375 12.890625 
Q 45.40625 18.265625 45.40625 27.984375 
z
M 54.390625 6.78125 
Q 54.390625 -7.171875 48.1875 -13.984375 
Q 42 -20.796875 29.203125 -20.796875 
Q 24.46875 -20.796875 20.265625 -20.09375 
Q 16.0625 -19.390625 12.109375 -17.921875 
L 12.109375 -9.1875 
Q 16.0625 -11.328125 19.921875 -12.34375 
Q 23.78125 -13.375 27.78125 -13.375 
Q 36.625 -13.375 41.015625 -8.765625 
Q 45.40625 -4.15625 45.40625 5.171875 
L 45.40625 9.625 
Q 42.625 4.78125 38.28125 2.390625 
Q 33.9375 0 27.875 0 
Q 17.828125 0 11.671875 7.65625 
Q 5.515625 15.328125 5.515625 27.984375 
Q 5.515625 40.671875 11.671875 48.328125 
Q 17.828125 56 27.875 56 
Q 33.9375 56 38.28125 53.609375 
Q 42.625 51.21875 45.40625 46.390625 
L 45.40625 54.6875 
L 54.390625 54.6875 
z
" id="DejaVuSans-103"/>
      </defs>
      <g style="fill:#555555;" transform="translate(130.525258 490.488085)rotate(-70)scale(0.1 -0.1)">
       <use xlink:href="#DejaVuSans-65"/>
       <use x="68.408203" xlink:href="#DejaVuSans-117"/>
       <use x="131.787109" xlink:href="#DejaVuSans-103"/>
       <use x="195.263672" xlink:href="#DejaVuSans-32"/>
       <use x="227.050781" xlink:href="#DejaVuSans-50"/>
       <use x="290.673828" xlink:href="#DejaVuSans-48"/>
      </g>
     </g>
    </g>
    <g id="xtick_43">
     <g id="line2d_99">
      <path clip-path="url(#p09a27f7f5d)" d="M 228.679384 447.59625 
L 228.679384 258.432614 
" style="fill:none;stroke:#ffffff;stroke-linecap:square;stroke-width:0.8;"/>
     </g>
     <g id="line2d_100">
      <g>
       <use style="fill:#555555;stroke:#555555;stroke-width:0.8;" x="228.679384" xlink:href="#m576e2254dc" y="447.59625"/>
      </g>
     </g>
     <g id="text_22">
      <!-- Oct 9 -->
      <defs>
       <path d="M 39.40625 66.21875 
Q 28.65625 66.21875 22.328125 58.203125 
Q 16.015625 50.203125 16.015625 36.375 
Q 16.015625 22.609375 22.328125 14.59375 
Q 28.65625 6.59375 39.40625 6.59375 
Q 50.140625 6.59375 56.421875 14.59375 
Q 62.703125 22.609375 62.703125 36.375 
Q 62.703125 50.203125 56.421875 58.203125 
Q 50.140625 66.21875 39.40625 66.21875 
z
M 39.40625 74.21875 
Q 54.734375 74.21875 63.90625 63.9375 
Q 73.09375 53.65625 73.09375 36.375 
Q 73.09375 19.140625 63.90625 8.859375 
Q 54.734375 -1.421875 39.40625 -1.421875 
Q 24.03125 -1.421875 14.8125 8.828125 
Q 5.609375 19.09375 5.609375 36.375 
Q 5.609375 53.65625 14.8125 63.9375 
Q 24.03125 74.21875 39.40625 74.21875 
z
" id="DejaVuSans-79"/>
      </defs>
      <g style="fill:#555555;" transform="translate(217.548289 482.408196)rotate(-70)scale(0.1 -0.1)">
       <use xlink:href="#DejaVuSans-79"/>
       <use x="78.710938" xlink:href="#DejaVuSans-99"/>
       <use x="133.691406" xlink:href="#DejaVuSans-116"/>
       <use x="172.900391" xlink:href="#DejaVuSans-32"/>
       <use x="204.6875" xlink:href="#DejaVuSans-57"/>
      </g>
     </g>
    </g>
    <g id="xtick_44">
     <g id="line2d_101">
      <path clip-path="url(#p09a27f7f5d)" d="M 312.761575 447.59625 
L 312.761575 258.432614 
" style="fill:none;stroke:#ffffff;stroke-linecap:square;stroke-width:0.8;"/>
     </g>
     <g id="line2d_102">
      <g>
       <use style="fill:#555555;stroke:#555555;stroke-width:0.8;" x="312.761575" xlink:href="#m576e2254dc" y="447.59625"/>
      </g>
     </g>
     <g id="text_23">
      <!-- Nov 28 -->
      <defs>
       <path d="M 9.8125 72.90625 
L 23.09375 72.90625 
L 55.421875 11.921875 
L 55.421875 72.90625 
L 64.984375 72.90625 
L 64.984375 0 
L 51.703125 0 
L 19.390625 60.984375 
L 19.390625 0 
L 9.8125 0 
z
" id="DejaVuSans-78"/>
      </defs>
      <g style="fill:#555555;" transform="translate(298.692314 490.480743)rotate(-70)scale(0.1 -0.1)">
       <use xlink:href="#DejaVuSans-78"/>
       <use x="74.804688" xlink:href="#DejaVuSans-111"/>
       <use x="135.986328" xlink:href="#DejaVuSans-118"/>
       <use x="195.166016" xlink:href="#DejaVuSans-32"/>
       <use x="226.953125" xlink:href="#DejaVuSans-50"/>
       <use x="290.576172" xlink:href="#DejaVuSans-56"/>
      </g>
     </g>
    </g>
    <g id="xtick_45">
     <g id="line2d_103">
      <path clip-path="url(#p09a27f7f5d)" d="M 396.843767 447.59625 
L 396.843767 258.432614 
" style="fill:none;stroke:#ffffff;stroke-linecap:square;stroke-width:0.8;"/>
     </g>
     <g id="line2d_104">
      <g>
       <use style="fill:#555555;stroke:#555555;stroke-width:0.8;" x="396.843767" xlink:href="#m576e2254dc" y="447.59625"/>
      </g>
     </g>
     <g id="text_24">
      <!-- Jan 17 -->
      <g style="fill:#555555;" transform="translate(384.177857 486.625067)rotate(-70)scale(0.1 -0.1)">
       <use xlink:href="#DejaVuSans-74"/>
       <use x="29.492188" xlink:href="#DejaVuSans-97"/>
       <use x="90.771484" xlink:href="#DejaVuSans-110"/>
       <use x="154.150391" xlink:href="#DejaVuSans-32"/>
       <use x="185.9375" xlink:href="#DejaVuSans-49"/>
       <use x="249.560547" xlink:href="#DejaVuSans-55"/>
      </g>
     </g>
    </g>
    <g id="xtick_46">
     <g id="line2d_105">
      <path clip-path="url(#p09a27f7f5d)" d="M 480.925959 447.59625 
L 480.925959 258.432614 
" style="fill:none;stroke:#ffffff;stroke-linecap:square;stroke-width:0.8;"/>
     </g>
     <g id="line2d_106">
      <g>
       <use style="fill:#555555;stroke:#555555;stroke-width:0.8;" x="480.925959" xlink:href="#m576e2254dc" y="447.59625"/>
      </g>
     </g>
     <g id="text_25">
      <!-- Mar 8 -->
      <defs>
       <path d="M 9.8125 72.90625 
L 24.515625 72.90625 
L 43.109375 23.296875 
L 61.8125 72.90625 
L 76.515625 72.90625 
L 76.515625 0 
L 66.890625 0 
L 66.890625 64.015625 
L 48.09375 14.015625 
L 38.1875 14.015625 
L 19.390625 64.015625 
L 19.390625 0 
L 9.8125 0 
z
" id="DejaVuSans-77"/>
      </defs>
      <g style="fill:#555555;" transform="translate(469.255648 483.88968)rotate(-70)scale(0.1 -0.1)">
       <use xlink:href="#DejaVuSans-77"/>
       <use x="86.279297" xlink:href="#DejaVuSans-97"/>
       <use x="147.558594" xlink:href="#DejaVuSans-114"/>
       <use x="188.671875" xlink:href="#DejaVuSans-32"/>
       <use x="220.458984" xlink:href="#DejaVuSans-56"/>
      </g>
     </g>
    </g>
    <g id="xtick_47">
     <g id="line2d_107">
      <path clip-path="url(#p09a27f7f5d)" d="M 565.008151 447.59625 
L 565.008151 258.432614 
" style="fill:none;stroke:#ffffff;stroke-linecap:square;stroke-width:0.8;"/>
     </g>
     <g id="line2d_108">
      <g>
       <use style="fill:#555555;stroke:#555555;stroke-width:0.8;" x="565.008151" xlink:href="#m576e2254dc" y="447.59625"/>
      </g>
     </g>
     <g id="text_26">
      <!-- Apr 27 -->
      <g style="fill:#555555;" transform="translate(551.697746 488.3958)rotate(-70)scale(0.1 -0.1)">
       <use xlink:href="#DejaVuSans-65"/>
       <use x="68.408203" xlink:href="#DejaVuSans-112"/>
       <use x="131.884766" xlink:href="#DejaVuSans-114"/>
       <use x="172.998047" xlink:href="#DejaVuSans-32"/>
       <use x="204.785156" xlink:href="#DejaVuSans-50"/>
       <use x="268.408203" xlink:href="#DejaVuSans-55"/>
      </g>
     </g>
    </g>
    <g id="xtick_48">
     <g id="line2d_109">
      <path clip-path="url(#p09a27f7f5d)" d="M 649.090342 447.59625 
L 649.090342 258.432614 
" style="fill:none;stroke:#ffffff;stroke-linecap:square;stroke-width:0.8;"/>
     </g>
     <g id="line2d_110">
      <g>
       <use style="fill:#555555;stroke:#555555;stroke-width:0.8;" x="649.090342" xlink:href="#m576e2254dc" y="447.59625"/>
      </g>
     </g>
     <g id="text_27">
      <!-- Jun 16 -->
      <g style="fill:#555555;" transform="translate(636.352822 486.821815)rotate(-70)scale(0.1 -0.1)">
       <use xlink:href="#DejaVuSans-74"/>
       <use x="29.492188" xlink:href="#DejaVuSans-117"/>
       <use x="92.871094" xlink:href="#DejaVuSans-110"/>
       <use x="156.25" xlink:href="#DejaVuSans-32"/>
       <use x="188.037109" xlink:href="#DejaVuSans-49"/>
       <use x="251.660156" xlink:href="#DejaVuSans-54"/>
      </g>
     </g>
    </g>
   </g>
   <g id="matplotlib.axis_4">
    <g id="ytick_7">
     <g id="line2d_111">
      <path clip-path="url(#p09a27f7f5d)" d="M 60.515 438.997903 
L 674.315 438.997903 
" style="fill:none;stroke:#ffffff;stroke-linecap:square;stroke-width:0.8;"/>
     </g>
     <g id="line2d_112">
      <g>
       <use style="fill:#555555;stroke:#555555;stroke-width:0.8;" x="60.515" xlink:href="#m21b71e1ad1" y="438.997903"/>
      </g>
     </g>
     <g id="text_28">
      <!-- 0 -->
      <g style="fill:#555555;" transform="translate(47.1525 442.797122)scale(0.1 -0.1)">
       <use xlink:href="#DejaVuSans-48"/>
      </g>
     </g>
    </g>
    <g id="ytick_8">
     <g id="line2d_113">
      <path clip-path="url(#p09a27f7f5d)" d="M 60.515 407.900807 
L 674.315 407.900807 
" style="fill:none;stroke:#ffffff;stroke-linecap:square;stroke-width:0.8;"/>
     </g>
     <g id="line2d_114">
      <g>
       <use style="fill:#555555;stroke:#555555;stroke-width:0.8;" x="60.515" xlink:href="#m21b71e1ad1" y="407.900807"/>
      </g>
     </g>
     <g id="text_29">
      <!-- 20 -->
      <g style="fill:#555555;" transform="translate(40.79 411.700025)scale(0.1 -0.1)">
       <use xlink:href="#DejaVuSans-50"/>
       <use x="63.623047" xlink:href="#DejaVuSans-48"/>
      </g>
     </g>
    </g>
    <g id="ytick_9">
     <g id="line2d_115">
      <path clip-path="url(#p09a27f7f5d)" d="M 60.515 376.80371 
L 674.315 376.80371 
" style="fill:none;stroke:#ffffff;stroke-linecap:square;stroke-width:0.8;"/>
     </g>
     <g id="line2d_116">
      <g>
       <use style="fill:#555555;stroke:#555555;stroke-width:0.8;" x="60.515" xlink:href="#m21b71e1ad1" y="376.80371"/>
      </g>
     </g>
     <g id="text_30">
      <!-- 40 -->
      <g style="fill:#555555;" transform="translate(40.79 380.602929)scale(0.1 -0.1)">
       <use xlink:href="#DejaVuSans-52"/>
       <use x="63.623047" xlink:href="#DejaVuSans-48"/>
      </g>
     </g>
    </g>
    <g id="ytick_10">
     <g id="line2d_117">
      <path clip-path="url(#p09a27f7f5d)" d="M 60.515 345.706614 
L 674.315 345.706614 
" style="fill:none;stroke:#ffffff;stroke-linecap:square;stroke-width:0.8;"/>
     </g>
     <g id="line2d_118">
      <g>
       <use style="fill:#555555;stroke:#555555;stroke-width:0.8;" x="60.515" xlink:href="#m21b71e1ad1" y="345.706614"/>
      </g>
     </g>
     <g id="text_31">
      <!-- 60 -->
      <g style="fill:#555555;" transform="translate(40.79 349.505833)scale(0.1 -0.1)">
       <use xlink:href="#DejaVuSans-54"/>
       <use x="63.623047" xlink:href="#DejaVuSans-48"/>
      </g>
     </g>
    </g>
    <g id="ytick_11">
     <g id="line2d_119">
      <path clip-path="url(#p09a27f7f5d)" d="M 60.515 314.609518 
L 674.315 314.609518 
" style="fill:none;stroke:#ffffff;stroke-linecap:square;stroke-width:0.8;"/>
     </g>
     <g id="line2d_120">
      <g>
       <use style="fill:#555555;stroke:#555555;stroke-width:0.8;" x="60.515" xlink:href="#m21b71e1ad1" y="314.609518"/>
      </g>
     </g>
     <g id="text_32">
      <!-- 80 -->
      <g style="fill:#555555;" transform="translate(40.79 318.408737)scale(0.1 -0.1)">
       <use xlink:href="#DejaVuSans-56"/>
       <use x="63.623047" xlink:href="#DejaVuSans-48"/>
      </g>
     </g>
    </g>
    <g id="ytick_12">
     <g id="line2d_121">
      <path clip-path="url(#p09a27f7f5d)" d="M 60.515 283.512422 
L 674.315 283.512422 
" style="fill:none;stroke:#ffffff;stroke-linecap:square;stroke-width:0.8;"/>
     </g>
     <g id="line2d_122">
      <g>
       <use style="fill:#555555;stroke:#555555;stroke-width:0.8;" x="60.515" xlink:href="#m21b71e1ad1" y="283.512422"/>
      </g>
     </g>
     <g id="text_33">
      <!-- 100 -->
      <g style="fill:#555555;" transform="translate(34.4275 287.31164)scale(0.1 -0.1)">
       <use xlink:href="#DejaVuSans-49"/>
       <use x="63.623047" xlink:href="#DejaVuSans-48"/>
       <use x="127.246094" xlink:href="#DejaVuSans-48"/>
      </g>
     </g>
    </g>
   </g>
   <g id="line2d_123">
    <path clip-path="url(#p09a27f7f5d)" d="M 60.515 438.997903 
L 348.076096 438.997903 
L 349.75774 434.95528 
L 351.439384 434.799795 
L 353.121027 434.177853 
L 354.802671 433.089455 
L 358.165959 433.089455 
L 359.847603 417.696392 
L 361.529247 404.791097 
L 378.345685 404.791097 
L 380.027329 404.324641 
L 381.708973 401.370416 
L 383.390616 398.882649 
L 386.753904 398.882649 
L 388.435548 376.181769 
L 396.843767 376.181769 
L 398.525411 373.227544 
L 401.888699 373.227544 
L 403.570342 361.877104 
L 408.615274 361.877104 
L 410.296918 360.63322 
L 411.978562 358.92288 
L 413.660205 345.240158 
L 420.386781 345.240158 
L 422.068425 334.667145 
L 423.750068 329.069668 
L 432.158288 329.069668 
L 433.839932 328.29224 
L 454.019658 328.29224 
L 455.701301 326.270929 
L 460.746233 326.270929 
L 462.427877 324.716074 
L 464.109521 324.716074 
L 465.791164 316.475344 
L 469.154452 316.475344 
L 470.836096 316.164373 
L 501.105685 316.164373 
L 502.787329 315.697916 
L 506.150616 315.697916 
L 507.83226 315.386945 
L 517.922123 315.386945 
L 519.603767 314.454032 
L 521.285411 313.054663 
L 672.633356 313.054663 
L 672.633356 313.054663 
" style="fill:none;stroke:#e24a33;stroke-linecap:square;stroke-width:1.5;"/>
   </g>
   <g id="line2d_124">
    <path clip-path="url(#p09a27f7f5d)" d="M 60.515 438.997903 
L 260.630616 438.997903 
L 262.31226 438.375961 
L 263.993904 437.443048 
L 383.390616 437.443048 
L 385.07226 436.665621 
L 393.480479 436.665621 
L 395.162123 434.799795 
L 396.843767 434.488824 
L 398.525411 434.488824 
L 400.207055 434.022367 
L 401.888699 431.690085 
L 403.570342 427.181006 
L 410.296918 427.181006 
L 411.978562 426.870035 
L 467.472808 426.870035 
L 469.154452 425.470666 
L 470.836096 424.848724 
L 472.51774 424.848724 
L 474.199384 424.693239 
L 484.289247 424.693239 
L 485.97089 424.537753 
L 674.315 424.537753 
L 674.315 424.537753 
" style="fill:none;stroke:#348abd;stroke-linecap:square;stroke-width:1.5;"/>
   </g>
   <g id="line2d_125">
    <path clip-path="url(#p09a27f7f5d)" d="M 60.515 438.997903 
L 275.765411 438.997903 
L 277.447055 438.842417 
L 279.128699 438.375961 
L 316.124863 438.375961 
L 317.806507 437.598534 
L 356.484315 437.598534 
L 358.165959 437.287563 
L 359.847603 437.287563 
L 361.529247 437.132077 
L 363.21089 437.132077 
L 364.892534 433.711397 
L 366.574178 433.089455 
L 393.480479 433.089455 
L 395.162123 428.113919 
L 401.888699 428.113919 
L 403.570342 427.491977 
L 408.615274 427.491977 
L 410.296918 427.336492 
L 411.978562 427.025521 
L 413.660205 427.025521 
L 415.341849 425.470666 
L 417.023493 425.315181 
L 423.750068 425.315181 
L 425.431712 424.382268 
L 427.113356 424.382268 
L 428.795 423.449355 
L 430.476644 422.360956 
L 432.158288 422.360956 
L 433.839932 406.656923 
L 435.521575 383.645072 
L 445.611438 383.645072 
L 447.293082 383.489586 
L 448.974726 375.559827 
L 459.064589 375.559827 
L 460.746233 372.761088 
L 462.427877 372.450117 
L 477.562671 372.450117 
L 479.244315 368.407494 
L 480.925959 352.081519 
L 496.060753 352.081519 
L 497.742397 350.68215 
L 499.424041 340.886564 
L 501.105685 340.886564 
L 502.787329 340.420108 
L 672.633356 340.420108 
L 672.633356 340.420108 
" style="fill:none;stroke:#988ed5;stroke-linecap:square;stroke-width:1.5;"/>
   </g>
   <g id="line2d_126">
    <path clip-path="url(#p09a27f7f5d)" d="M 60.515 438.997903 
L 326.214726 438.997903 
L 327.89637 438.842417 
L 329.578014 438.842417 
L 331.259658 438.220475 
L 332.941301 437.754019 
L 337.986233 437.754019 
L 339.667877 432.778484 
L 341.349521 431.223629 
L 343.031164 431.223629 
L 344.712808 421.272558 
L 358.165959 421.272558 
L 359.847603 420.806102 
L 369.937466 420.806102 
L 371.61911 404.324641 
L 373.300753 397.327794 
L 383.390616 397.327794 
L 385.07226 397.016823 
L 396.843767 397.016823 
L 398.525411 393.907113 
L 400.207055 393.596142 
L 401.888699 393.596142 
L 403.570342 387.532209 
L 405.251986 387.065752 
L 408.615274 387.065752 
L 410.296918 386.910267 
L 423.750068 386.910267 
L 425.431712 384.422499 
L 427.113356 384.422499 
L 428.795 367.785553 
L 433.839932 367.785553 
L 435.521575 367.319096 
L 437.203219 367.163611 
L 440.566507 367.163611 
L 442.248151 362.188075 
L 443.929795 362.03259 
L 445.611438 356.435112 
L 447.293082 355.81317 
L 448.974726 355.81317 
L 450.65637 351.926033 
L 464.109521 351.926033 
L 465.791164 351.304092 
L 474.199384 351.304092 
L 475.881027 351.148606 
L 482.607603 351.148606 
L 484.289247 350.215693 
L 487.652534 350.215693 
L 489.334178 347.883411 
L 544.828425 347.883411 
L 546.510068 347.416954 
L 672.633356 347.416954 
L 672.633356 347.416954 
" style="fill:none;stroke:#777777;stroke-linecap:square;stroke-width:1.5;"/>
   </g>
   <g id="line2d_127">
    <path clip-path="url(#p09a27f7f5d)" d="M 60.515 438.997903 
L 309.398288 438.997903 
L 311.079932 438.531446 
L 312.761575 434.95528 
L 327.89637 434.95528 
L 329.578014 434.488824 
L 371.61911 434.488824 
L 373.300753 432.312027 
L 376.664041 432.312027 
L 378.345685 432.001056 
L 381.708973 432.001056 
L 383.390616 431.690085 
L 391.798836 431.690085 
L 393.480479 430.446201 
L 406.93363 430.446201 
L 408.615274 422.516442 
L 410.296918 422.516442 
L 411.978562 418.940276 
L 413.660205 384.577984 
L 415.341849 384.267014 
L 417.023493 384.267014 
L 418.705137 383.178615 
L 420.386781 381.157304 
L 422.068425 381.157304 
L 423.750068 355.968656 
L 427.113356 355.968656 
L 428.795 354.724772 
L 430.476644 354.724772 
L 432.158288 353.325403 
L 433.839932 341.819477 
L 435.521575 318.807626 
L 437.203219 317.719228 
L 438.884863 316.9418 
L 440.566507 315.386945 
L 442.248151 315.386945 
L 443.929795 310.41141 
L 445.611438 290.198297 
L 447.293082 290.198297 
L 448.974726 289.265385 
L 450.65637 289.265385 
L 452.338014 285.533733 
L 454.019658 285.533733 
L 455.701301 283.823393 
L 457.382945 283.667907 
L 460.746233 283.667907 
L 462.427877 280.713683 
L 464.109521 280.402712 
L 467.472808 280.402712 
L 469.154452 277.448488 
L 470.836096 277.137517 
L 472.51774 274.649749 
L 491.015822 274.649749 
L 492.697466 270.14067 
L 499.424041 270.14067 
L 501.105685 269.363243 
L 502.787329 267.497417 
L 512.877192 267.497417 
L 514.558836 267.030961 
L 672.633356 267.030961 
L 672.633356 267.030961 
" style="fill:none;stroke:#fbc15e;stroke-linecap:square;stroke-width:1.5;"/>
   </g>
   <g id="line2d_128">
    <path clip-path="url(#p09a27f7f5d)" d="M 60.515 438.997903 
L 363.21089 438.997903 
L 364.892534 437.598534 
L 386.753904 437.598534 
L 388.435548 437.132077 
L 395.162123 437.132077 
L 396.843767 435.110766 
L 398.525411 432.312027 
L 405.251986 432.312027 
L 406.93363 422.827413 
L 427.113356 422.827413 
L 428.795 412.2544 
L 432.158288 412.2544 
L 433.839932 402.303329 
L 437.203219 401.992358 
L 438.884863 401.681387 
L 443.929795 401.681387 
L 445.611438 399.660076 
L 450.65637 399.660076 
L 452.338014 399.504591 
L 474.199384 399.504591 
L 475.881027 398.727163 
L 502.787329 398.727163 
L 504.468973 393.129686 
L 524.648699 393.129686 
L 526.330342 390.175462 
L 528.011986 382.867644 
L 674.315 382.867644 
L 674.315 382.867644 
" style="fill:none;stroke:#8eba42;stroke-linecap:square;stroke-width:1.5;"/>
   </g>
   <g id="line2d_129">
    <path clip-path="url(#p09a27f7f5d)" d="M 60.515 438.997903 
L 322.851438 438.997903 
L 324.533082 438.531446 
L 332.941301 438.531446 
L 334.622945 438.220475 
L 336.304589 437.132077 
L 343.031164 437.132077 
L 344.712808 430.446201 
L 363.21089 430.446201 
L 364.892534 429.82426 
L 376.664041 429.82426 
L 378.345685 428.113919 
L 380.027329 417.229936 
L 381.708973 416.918965 
L 418.705137 416.918965 
L 420.386781 415.986052 
L 422.068425 414.742168 
L 430.476644 414.742168 
L 432.158288 412.876342 
L 433.839932 412.876342 
L 435.521575 395.928425 
L 437.203219 395.928425 
L 438.884863 390.952889 
L 440.566507 388.620607 
L 442.248151 385.199926 
L 443.929795 385.199926 
L 445.611438 385.044441 
L 447.293082 382.556673 
L 470.836096 382.556673 
L 472.51774 382.401188 
L 482.607603 382.401188 
L 484.289247 378.358565 
L 485.97089 378.047594 
L 489.334178 378.047594 
L 491.015822 367.785553 
L 517.922123 367.785553 
L 519.603767 366.85264 
L 521.285411 364.986814 
L 672.633356 364.986814 
L 672.633356 364.986814 
" style="fill:none;stroke:#ffb5b8;stroke-linecap:square;stroke-width:1.5;"/>
   </g>
   <g id="line2d_130">
    <path clip-path="url(#p09a27f7f5d)" d="M 60.515 438.997903 
L 329.578014 438.997903 
L 331.259658 429.979745 
L 332.941301 429.513289 
L 351.439384 429.513289 
L 353.121027 429.357803 
L 356.484315 429.357803 
L 358.165959 424.848724 
L 364.892534 424.848724 
L 366.574178 424.693239 
L 373.300753 424.693239 
L 374.982397 403.858184 
L 391.798836 403.858184 
L 393.480479 403.391728 
L 395.162123 403.391728 
L 396.843767 400.748475 
L 415.341849 400.748475 
L 417.023493 400.592989 
L 418.705137 397.016823 
L 422.068425 397.016823 
L 423.750068 396.861338 
L 430.476644 396.861338 
L 432.158288 393.596142 
L 447.293082 393.596142 
L 448.974726 390.641918 
L 450.65637 384.888955 
L 455.701301 384.888955 
L 457.382945 384.111528 
L 474.199384 384.111528 
L 475.881027 383.178615 
L 477.562671 383.178615 
L 479.244315 379.291478 
L 480.925959 373.227544 
L 487.652534 373.227544 
L 489.334178 350.68215 
L 491.015822 350.215693 
L 492.697466 350.060208 
L 502.787329 350.060208 
L 504.468973 348.038896 
L 507.83226 348.038896 
L 509.513904 347.883411 
L 521.285411 347.883411 
L 522.967055 346.795013 
L 528.011986 346.795013 
L 529.69363 345.8621 
L 672.633356 345.8621 
L 672.633356 345.8621 
" style="fill:none;stroke:#e24a33;stroke-linecap:square;stroke-width:1.5;"/>
   </g>
   <g id="line2d_131">
    <path clip-path="url(#p09a27f7f5d)" d="M 60.515 438.997903 
L 289.218562 438.997903 
L 290.900205 438.842417 
L 344.712808 438.842417 
L 346.394452 438.686932 
L 398.525411 438.686932 
L 400.207055 437.909505 
L 401.888699 436.199164 
L 417.023493 436.199164 
L 418.705137 435.421737 
L 438.884863 435.421737 
L 440.566507 431.690085 
L 442.248151 431.5346 
L 448.974726 431.5346 
L 450.65637 425.937122 
L 452.338014 425.937122 
L 454.019658 424.693239 
L 455.701301 422.671927 
L 464.109521 422.671927 
L 465.791164 420.806102 
L 467.472808 417.385421 
L 469.154452 417.385421 
L 470.836096 414.275711 
L 472.51774 413.187313 
L 474.199384 397.79425 
L 482.607603 397.79425 
L 484.289247 396.394881 
L 672.633356 396.394881 
L 672.633356 396.394881 
" style="fill:none;stroke:#348abd;stroke-linecap:square;stroke-width:1.5;"/>
   </g>
   <g id="line2d_132">
    <path clip-path="url(#p09a27f7f5d)" d="M 60.515 438.997903 
L 316.124863 438.997903 
L 319.488151 435.421737 
L 321.169795 429.82426 
L 324.533082 429.82426 
L 326.214726 429.513289 
L 332.941301 429.513289 
L 334.622945 425.159695 
L 380.027329 425.159695 
L 381.708973 425.00421 
L 393.480479 425.00421 
L 393.480479 425.00421 
" style="fill:none;stroke:#988ed5;stroke-linecap:square;stroke-width:1.5;"/>
   </g>
   <g id="patch_9">
    <path d="M 60.515 447.59625 
L 60.515 258.432614 
" style="fill:none;stroke:#ffffff;stroke-linecap:square;stroke-linejoin:miter;"/>
   </g>
   <g id="patch_10">
    <path d="M 674.315 447.59625 
L 674.315 258.432614 
" style="fill:none;stroke:#ffffff;stroke-linecap:square;stroke-linejoin:miter;"/>
   </g>
   <g id="patch_11">
    <path d="M 60.515 447.59625 
L 674.315 447.59625 
" style="fill:none;stroke:#ffffff;stroke-linecap:square;stroke-linejoin:miter;"/>
   </g>
   <g id="patch_12">
    <path d="M 60.515 258.432614 
L 674.315 258.432614 
" style="fill:none;stroke:#ffffff;stroke-linecap:square;stroke-linejoin:miter;"/>
   </g>
   <g id="legend_2">
    <g id="patch_13">
     <path d="M 66.115 396.213864 
L 140.224375 396.213864 
Q 141.824375 396.213864 141.824375 394.613864 
L 141.824375 264.032614 
Q 141.824375 262.432614 140.224375 262.432614 
L 66.115 262.432614 
Q 64.515 262.432614 64.515 264.032614 
L 64.515 394.613864 
Q 64.515 396.213864 66.115 396.213864 
z
" style="fill:#e5e5e5;opacity:0.8;stroke:#cccccc;stroke-linejoin:miter;stroke-width:0.5;"/>
    </g>
    <g id="text_34">
     <!-- WINTER_YEAR -->
     <defs>
      <path d="M 9.8125 72.90625 
L 19.671875 72.90625 
L 19.671875 0 
L 9.8125 0 
z
" id="DejaVuSans-73"/>
      <path d="M -0.296875 72.90625 
L 61.375 72.90625 
L 61.375 64.59375 
L 35.5 64.59375 
L 35.5 0 
L 25.59375 0 
L 25.59375 64.59375 
L -0.296875 64.59375 
z
" id="DejaVuSans-84"/>
      <path d="M 9.8125 72.90625 
L 55.90625 72.90625 
L 55.90625 64.59375 
L 19.671875 64.59375 
L 19.671875 43.015625 
L 54.390625 43.015625 
L 54.390625 34.71875 
L 19.671875 34.71875 
L 19.671875 8.296875 
L 56.78125 8.296875 
L 56.78125 0 
L 9.8125 0 
z
" id="DejaVuSans-69"/>
      <path d="M 44.390625 34.1875 
Q 47.5625 33.109375 50.5625 29.59375 
Q 53.5625 26.078125 56.59375 19.921875 
L 66.609375 0 
L 56 0 
L 46.6875 18.703125 
Q 43.0625 26.03125 39.671875 28.421875 
Q 36.28125 30.8125 30.421875 30.8125 
L 19.671875 30.8125 
L 19.671875 0 
L 9.8125 0 
L 9.8125 72.90625 
L 32.078125 72.90625 
Q 44.578125 72.90625 50.734375 67.671875 
Q 56.890625 62.453125 56.890625 51.90625 
Q 56.890625 45.015625 53.6875 40.46875 
Q 50.484375 35.9375 44.390625 34.1875 
z
M 19.671875 64.796875 
L 19.671875 38.921875 
L 32.078125 38.921875 
Q 39.203125 38.921875 42.84375 42.21875 
Q 46.484375 45.515625 46.484375 51.90625 
Q 46.484375 58.296875 42.84375 61.546875 
Q 39.203125 64.796875 32.078125 64.796875 
z
" id="DejaVuSans-82"/>
      <path d="M 50.984375 -16.609375 
L 50.984375 -23.578125 
L -0.984375 -23.578125 
L -0.984375 -16.609375 
z
" id="DejaVuSans-95"/>
      <path d="M -0.203125 72.90625 
L 10.40625 72.90625 
L 30.609375 42.921875 
L 50.6875 72.90625 
L 61.28125 72.90625 
L 35.5 34.71875 
L 35.5 0 
L 25.59375 0 
L 25.59375 34.71875 
z
" id="DejaVuSans-89"/>
     </defs>
     <g transform="translate(67.715 273.231051)scale(0.1 -0.1)">
      <use xlink:href="#DejaVuSans-87"/>
      <use x="98.876953" xlink:href="#DejaVuSans-73"/>
      <use x="128.369141" xlink:href="#DejaVuSans-78"/>
      <use x="203.173828" xlink:href="#DejaVuSans-84"/>
      <use x="264.257812" xlink:href="#DejaVuSans-69"/>
      <use x="327.441406" xlink:href="#DejaVuSans-82"/>
      <use x="396.923828" xlink:href="#DejaVuSans-95"/>
      <use x="446.923828" xlink:href="#DejaVuSans-89"/>
      <use x="508.007812" xlink:href="#DejaVuSans-69"/>
      <use x="571.191406" xlink:href="#DejaVuSans-65"/>
      <use x="639.599609" xlink:href="#DejaVuSans-82"/>
     </g>
    </g>
    <g id="line2d_133">
     <path d="M 81.789688 282.867614 
L 97.789688 282.867614 
" style="fill:none;stroke:#e24a33;stroke-linecap:square;stroke-width:1.5;"/>
    </g>
    <g id="line2d_134"/>
    <g id="text_35">
     <!-- 2010 -->
     <g transform="translate(104.189688 285.667614)scale(0.08 -0.08)">
      <use xlink:href="#DejaVuSans-50"/>
      <use x="63.623047" xlink:href="#DejaVuSans-48"/>
      <use x="127.246094" xlink:href="#DejaVuSans-49"/>
      <use x="190.869141" xlink:href="#DejaVuSans-48"/>
     </g>
    </g>
    <g id="line2d_135">
     <path d="M 81.789688 294.610114 
L 97.789688 294.610114 
" style="fill:none;stroke:#348abd;stroke-linecap:square;stroke-width:1.5;"/>
    </g>
    <g id="line2d_136"/>
    <g id="text_36">
     <!-- 2011 -->
     <g transform="translate(104.189688 297.410114)scale(0.08 -0.08)">
      <use xlink:href="#DejaVuSans-50"/>
      <use x="63.623047" xlink:href="#DejaVuSans-48"/>
      <use x="127.246094" xlink:href="#DejaVuSans-49"/>
      <use x="190.869141" xlink:href="#DejaVuSans-49"/>
     </g>
    </g>
    <g id="line2d_137">
     <path d="M 81.789688 306.352614 
L 97.789688 306.352614 
" style="fill:none;stroke:#988ed5;stroke-linecap:square;stroke-width:1.5;"/>
    </g>
    <g id="line2d_138"/>
    <g id="text_37">
     <!-- 2012 -->
     <g transform="translate(104.189688 309.152614)scale(0.08 -0.08)">
      <use xlink:href="#DejaVuSans-50"/>
      <use x="63.623047" xlink:href="#DejaVuSans-48"/>
      <use x="127.246094" xlink:href="#DejaVuSans-49"/>
      <use x="190.869141" xlink:href="#DejaVuSans-50"/>
     </g>
    </g>
    <g id="line2d_139">
     <path d="M 81.789688 318.095114 
L 97.789688 318.095114 
" style="fill:none;stroke:#777777;stroke-linecap:square;stroke-width:1.5;"/>
    </g>
    <g id="line2d_140"/>
    <g id="text_38">
     <!-- 2013 -->
     <g transform="translate(104.189688 320.895114)scale(0.08 -0.08)">
      <use xlink:href="#DejaVuSans-50"/>
      <use x="63.623047" xlink:href="#DejaVuSans-48"/>
      <use x="127.246094" xlink:href="#DejaVuSans-49"/>
      <use x="190.869141" xlink:href="#DejaVuSans-51"/>
     </g>
    </g>
    <g id="line2d_141">
     <path d="M 81.789688 329.837614 
L 97.789688 329.837614 
" style="fill:none;stroke:#fbc15e;stroke-linecap:square;stroke-width:1.5;"/>
    </g>
    <g id="line2d_142"/>
    <g id="text_39">
     <!-- 2014 -->
     <g transform="translate(104.189688 332.637614)scale(0.08 -0.08)">
      <use xlink:href="#DejaVuSans-50"/>
      <use x="63.623047" xlink:href="#DejaVuSans-48"/>
      <use x="127.246094" xlink:href="#DejaVuSans-49"/>
      <use x="190.869141" xlink:href="#DejaVuSans-52"/>
     </g>
    </g>
    <g id="line2d_143">
     <path d="M 81.789688 341.580114 
L 97.789688 341.580114 
" style="fill:none;stroke:#8eba42;stroke-linecap:square;stroke-width:1.5;"/>
    </g>
    <g id="line2d_144"/>
    <g id="text_40">
     <!-- 2015 -->
     <g transform="translate(104.189688 344.380114)scale(0.08 -0.08)">
      <use xlink:href="#DejaVuSans-50"/>
      <use x="63.623047" xlink:href="#DejaVuSans-48"/>
      <use x="127.246094" xlink:href="#DejaVuSans-49"/>
      <use x="190.869141" xlink:href="#DejaVuSans-53"/>
     </g>
    </g>
    <g id="line2d_145">
     <path d="M 81.789688 353.322614 
L 97.789688 353.322614 
" style="fill:none;stroke:#ffb5b8;stroke-linecap:square;stroke-width:1.5;"/>
    </g>
    <g id="line2d_146"/>
    <g id="text_41">
     <!-- 2016 -->
     <g transform="translate(104.189688 356.122614)scale(0.08 -0.08)">
      <use xlink:href="#DejaVuSans-50"/>
      <use x="63.623047" xlink:href="#DejaVuSans-48"/>
      <use x="127.246094" xlink:href="#DejaVuSans-49"/>
      <use x="190.869141" xlink:href="#DejaVuSans-54"/>
     </g>
    </g>
    <g id="line2d_147">
     <path d="M 81.789688 365.065114 
L 97.789688 365.065114 
" style="fill:none;stroke:#e24a33;stroke-linecap:square;stroke-width:1.5;"/>
    </g>
    <g id="line2d_148"/>
    <g id="text_42">
     <!-- 2017 -->
     <g transform="translate(104.189688 367.865114)scale(0.08 -0.08)">
      <use xlink:href="#DejaVuSans-50"/>
      <use x="63.623047" xlink:href="#DejaVuSans-48"/>
      <use x="127.246094" xlink:href="#DejaVuSans-49"/>
      <use x="190.869141" xlink:href="#DejaVuSans-55"/>
     </g>
    </g>
    <g id="line2d_149">
     <path d="M 81.789688 376.807614 
L 97.789688 376.807614 
" style="fill:none;stroke:#348abd;stroke-linecap:square;stroke-width:1.5;"/>
    </g>
    <g id="line2d_150"/>
    <g id="text_43">
     <!-- 2018 -->
     <g transform="translate(104.189688 379.607614)scale(0.08 -0.08)">
      <use xlink:href="#DejaVuSans-50"/>
      <use x="63.623047" xlink:href="#DejaVuSans-48"/>
      <use x="127.246094" xlink:href="#DejaVuSans-49"/>
      <use x="190.869141" xlink:href="#DejaVuSans-56"/>
     </g>
    </g>
    <g id="line2d_151">
     <path d="M 81.789688 388.550114 
L 97.789688 388.550114 
" style="fill:none;stroke:#988ed5;stroke-linecap:square;stroke-width:1.5;"/>
    </g>
    <g id="line2d_152"/>
    <g id="text_44">
     <!-- 2019 -->
     <g transform="translate(104.189688 391.350114)scale(0.08 -0.08)">
      <use xlink:href="#DejaVuSans-50"/>
      <use x="63.623047" xlink:href="#DejaVuSans-48"/>
      <use x="127.246094" xlink:href="#DejaVuSans-49"/>
      <use x="190.869141" xlink:href="#DejaVuSans-57"/>
     </g>
    </g>
   </g>
  </g>
 </g>
 <defs>
  <clipPath id="p93a9a1d6f7">
   <rect height="189.163636" width="613.8" x="60.515" y="31.43625"/>
  </clipPath>
  <clipPath id="p09a27f7f5d">
   <rect height="189.163636" width="613.8" x="60.515" y="258.432614"/>
  </clipPath>
 </defs>
</svg>
